<svg width="12" height="16" fill="none"
  xmlns="http://www.w3.org/2000/svg">
  <path fill-rule="evenodd" clip-rule="evenodd" d="M.56 5.44a5.44 5.44 0 0110.88 0c0 3.204-3.187 8.26-4.682 10.188a.956.956 0 01-1.514 0C3.749 13.693.56 8.624.56 5.44zm5.441 9.92a.316.316 0 00.251-.124C7.736 13.323 10.8 8.411 10.8 5.44a4.8 4.8 0 10-9.6 0c0 2.954 3.066 7.875 4.55 9.796.06.078.153.124.251.124zM6 2.56a2.24 2.24 0 100 4.48 2.24 2.24 0 000-4.48zM4.4 4.8a1.6 1.6 0 103.2 0 1.6 1.6 0 00-3.2 0z" fill="white" fill-opacity=".8"/>
</svg>