<svg xmlns="http://www.w3.org/2000/svg" viewBox="0 0 433.9 48.32">
  <defs>
    <style>.cls-1{fill:#fff;}</style>
  </defs>
  <g id="Layer_2" data-name="Layer 2">
    <path class="cls-1" d="M0,0H1.73V48.32H0ZM3.91,0H5.83V48.32H3.91ZM8,0h86.7V1.92h12.12v2H119V8h2.18v8H119v3.91h-2v2.18h-1.67V19.93h-2.44v2.18h-1.66V19.93H109v2.18h-2.17v2.18H119v1.92h2.18v4.16h2.18V26.21H125v4.16h2.43V26.21h1.73v4.16h1.92v9.94h-1.92v1.92h-1.73V40.31H125v1.92h-1.67V40.31h-2.18v1.92H119v2h-2V46.4h-1.67V44.22h-2.44V46.4h-1.66V44.22H109V46.4h-4.1v1.92h-1.73V46.4H100.8v1.92H99.07V46.4H96.89v1.92H8ZM48.57,17.94H50.3V12.11H48.57Zm0,18.27H50.3V28.39H48.57Zm3.91-18.27h1.93V12.11H52.48Zm0,18.27h1.93V28.39H52.48Zm4.1-18.27H70.43V16H72.6V14.1H70.43v-2H56.58Zm0,18.27h16v-2h2.18v2h1.73v-2H79v2h1.67v-2h1.92V30.37H80.62v-2H79v2H76.51v-2H74.78v2H72.6v-2h-16ZM74.78,16h1.73V14.1H74.78ZM79,16h1.67V14.1H79Zm44.41-8H125v8h-1.67Zm4.1,0h1.73v8h-1.73Z"/>
    <path class="cls-1" d="M133,0H135V36.14H133Zm4.11,0h1.66V36.14h-1.66Zm4.1,0h50.24V32.49h2v2h2.37v-2h1.73v2h2.18v-2h1.93v2h4.16v-2h1.92v2h2.18v-2h1.73v2H214v-2h2V0h50.24V36.14h-2v4.17h-1.92v1.92h-1.92V40.31h-2.18v1.92h-1.73V40.31h-2.44v1.92h-1.92v2.18h-1.92v1.92h-2V44.41h-2.17v1.92h-1.67V44.41H242v1.92H227.88v2H179.62v-2h-14.1V44.41h-2.43v1.92h-1.67V44.41h-2.18v1.92h-2V44.41h-1.93V42.23h-1.92V40.31H151v1.92h-1.73V40.31h-2.18v1.92h-1.92V40.31h-1.93V36.14h-2ZM268.7,0h1.66V36.14H268.7Zm3.84,0h1.92V36.14h-1.92Z"/>
    <path class="cls-1" d="M327.14,0h1.66V2.18H331V0h2V2.18h2.18V0h40.24V2.18h2.18V0h1.73V2.18h2.44V0h1.66V2.18h14.1V4.1h12.11v2h2.18V8.27H414V6.09h1.73V8.27h2.44V6.09h1.66V8.27h2v1.92H424v1.73H419.8V14.1h-1.66V11.92H415.7V14.1H414V11.92h-2.18V14.1H397.5V16H385.39v1.92H373.47V16h-1.92V14.1h-2.18V16h-2V14.1H365.2V16h-1.66V14.1H347V16h-1.66V14.1H342.9V16h-1.73V14.1H339V16h-2.19v1.92h-1.92V30.31h1.92v2.18H339v2h2.17v-2h1.73v2h2.44v-2H347v2h26.47V32.3h-14.1V20.38H433.9V48.32H408V42.23h-2.18v4.1h-2v-4.1H401.6v4.1h-1.66v-4.1H397.5v2.18h-1.92v1.92h-1.73V44.41h-2.44v1.92h-1.66V44.41h-2.18v1.92H383.4v2h-1.66v-2H379.3v2h-1.73v-2h-2.18v2H335.15v-2H333v2h-2v-2H328.8v2h-1.66v-2H312.78V44.41h-1.92V42.23h-2.18v2.18h-1.92V42.23h-2.18v2.18h-1.73V42.23h-4.1V38.32h-2.18v3.91h-2V38.32h-2.17v3.91h-1.67V38.32h-2.18V36.14h-2V32.3h-2.19v3.84h-1.92V32.3h-2.18v3.84h-1.73V32.3h-2.18v-16h2.18V12.11h1.73v4.17h2.18V12.11h1.92v4.17h2.19V12.11h2V10.19h2.18V8.27h1.67v1.92h2.17V8.27h2v1.92h2.18V8.27h1.92V6.09h2.18v-2h1.73v2h2.18v-2h1.92v2h2.18v-2h1.92V2.18h14.36Zm0,30.12h1.66V18.2h-1.66Zm3.84,0h2V18.2h-2Zm20.38-9.74h1.73V32.3h-1.73Zm3.91,0h1.92V32.3h-1.92Zm70.88-10.19h1.66v1.73h-1.66Zm4.1,0H432v1.73h-1.73Z"/>
  </g>
</svg>