<svg version="1.1" id="prefix__Layer_1"
  xmlns="http://www.w3.org/2000/svg" x="0" y="0" viewBox="0 0 86.9 35.5" xml:space="preserve">
  <style>.prefix__st0{fill-rule:evenodd;clip-rule:evenodd;fill:#fff}</style>
  <g id="prefix__Layer_2_1_">
    <g id="prefix__Layer_1-2">
      <path class="prefix__st0" d="M0 10.8C0 4.8 4.8 0 10.8 0h16.3c-1 .5-1.9 1.1-2.7 1.8H10.8c-5 0-9.1 4.1-9.1 9.1v5.7c-.7.8-1.3 1.7-1.8 2.7v-8.5z"/>
      <path class="prefix__st0" d="M3.1 10.8C3.1 6.5 6.6 3 10.9 3h12.4c-.5.6-.9 1.2-1.3 1.8H10.8c-3.3 0-6 2.7-6 6V14c-.6.4-1.2.8-1.8 1.3l.1-4.5z"/>
      <path class="prefix__st0" d="M6.1 10.8c0-2.6 2.1-4.7 4.7-4.7h10.6c-.3.6-.5 1.2-.6 1.8h-10C9.2 8 8 9.3 8 10.8v2l-1.8.6-.1-2.6zM0 24.6c0-6 4.9-10.9 10.9-10.9h9.6v1.8h-9.6c-5 0-9.1 4.1-9.1 9.1v10.9H0V24.6z"/>
      <path class="prefix__st0" d="M3.1 24.6c0-4.3 3.5-7.8 7.8-7.8h9.6v1.8h-9.6c-3.3 0-6 2.7-6 6v10.9H3.1V24.6z"/>
      <path class="prefix__st0" d="M6.1 24.6c0-2.6 2.1-4.7 4.7-4.7h9.6v1.8h-9.6C9.3 21.7 8 23 8 24.6v10.9H6.1V24.6zM21.7 19.2c.5-1 1.1-1.9 1.8-2.7v-5.7c0-5 4.1-9.1 9-9.1h13.7C47 1.1 47.9.5 48.9 0H32.6c-6 0-10.9 4.9-10.9 10.9v8.3z"/>
      <path class="prefix__st0" d="M24.8 15.3c.6-.5 1.2-.9 1.8-1.3v-3.2c0-3.3 2.7-6 6-6h11.2L45 3H32.6c-4.3 0-7.8 3.5-7.8 7.8v4.5z"/>
      <path class="prefix__st0" d="m27.9 13.4 1.8-.6v-2C29.7 9.2 31 8 32.6 8h10c.2-.6.3-1.2.6-1.8H32.6c-2.6 0-4.7 2.1-4.7 4.7v2.5zM32.6 15.6h10.6l-.6-1.8h-10c-6 0-10.9 4.9-10.9 10.9s4.9 10.9 10.9 10.9h21.8c6 0 10.9-4.9 10.9-10.9s-4.9-10.9-10.9-10.9c-1.6 0-2.9-1.3-2.9-2.9 0-1.6 1.3-2.9 2.9-2.9h21.7c1.6 0 2.9 1.3 2.9 2.9 0 1.6-1.3 2.9-2.9 2.9H59.7c1 .5 1.9 1.1 2.7 1.8h13.7c2.6 0 4.7-2.1 4.7-4.7s-2.1-4.7-4.7-4.7H54.3c-2.6 0-4.7 2.1-4.7 4.7s2.1 4.7 4.7 4.7c5 0 9.1 4.1 9.1 9.1s-4.1 9.1-9.1 9.1H32.6c-5 0-9.1-4.1-9.1-9.1 0-5.1 4.1-9.1 9.1-9.1z"/>
      <path class="prefix__st0" d="M32.6 18.6H45c-.5-.6-.9-1.2-1.2-1.8H32.6c-4.3 0-7.8 3.5-7.8 7.8s3.5 7.8 7.8 7.8h21.7c4.3 0 7.8-3.5 7.8-7.8s-3.5-7.8-7.8-7.8c-3.3 0-6-2.7-6-6s2.7-6 6-6H76c3.3 0 6 2.7 6 6s-2.7 6-6 6H63.6c.5.6.9 1.2 1.2 1.8H76c3.3 0 6 2.7 6 6s-2.7 6-6 6H64.9l-1.2 1.8h12.4c4.3 0 7.8-3.5 7.8-7.8 0-2.9-1.6-5.5-4.1-6.8 3.8-2 5.3-6.7 3.3-10.5-1.3-2.6-4-4.2-7-4.2H54.3c-4.3 0-7.8 3.5-7.8 7.8s3.5 7.8 7.8 7.8c3.3 0 6 2.7 6 6s-2.7 6-6 6H32.6c-3.3 0-6-2.7-6-6s2.7-6.1 6-6.1z"/>
      <path class="prefix__st0" d="M32.6 21.7h16.3c-1-.5-1.9-1.1-2.7-1.8H32.6c-2.6 0-4.7 2.1-4.7 4.7s2.1 4.7 4.7 4.7h21.7c2.6 0 4.7-2.1 4.7-4.7s-2.1-4.7-4.7-4.7c-5 0-9.1-4.1-9.1-9.1s4.1-9.1 9.1-9.1H76c5 0 9.1 4 9.1 9 0 2.7-1.1 5.2-3.2 6.9 3.8 3.2 4.3 8.9 1.1 12.8-1.7 2.1-4.3 3.3-7 3.2H62.4c-.8.7-1.7 1.3-2.7 1.8H76c6 0 10.9-4.9 10.9-10.9 0-2.5-.9-4.9-2.5-6.9C88.2 13 87.6 6.1 83 2.3 81 .7 78.6-.2 76-.2H54.3c-6 0-10.9 4.9-10.9 10.9s4.9 10.9 10.9 10.9c1.6 0 2.9 1.3 2.9 2.9 0 1.6-1.3 2.9-2.9 2.9H32.6c-1.6 0-2.9-1.3-2.9-2.9 0-1.5 1.3-2.8 2.9-2.8z"/>
      <path class="prefix__st0" d="M66.1 21.7h10c1.6 0 2.9 1.3 2.9 2.9 0 1.6-1.3 2.9-2.9 2.9h-10l-.6 1.8h10.6c2.6 0 4.7-2.1 4.7-4.7s-2.1-4.7-4.7-4.7H65.5l.6 1.8z"/>
    </g>
  </g>
</svg>