<svg width="1501" height="1024" fill="none"
  xmlns="http://www.w3.org/2000/svg">
  <path d="M541.122 361.83v38.051c0 14.128-7.285 21.431-21.377 21.431h-94.834c-1.94 0-2.893.956-2.893 2.901v50.712c0 1.945.987 2.901 2.893 2.901h80.231c14.092 0 21.377 7.303 21.377 21.431v38.051c0 14.129-7.285 21.432-21.377 21.432h-80.231c-1.94 0-2.893.955-2.893 2.9v98.489c0 14.129-7.285 21.432-21.377 21.432h-55.45c-2.451 0-3.881-1.468-3.881-3.891V361.761c0-14.128 7.284-21.431 21.411-21.431h157.058c14.058.068 21.343 7.371 21.343 21.5zm90.919-21.432h-55.45c-2.11 0-3.506 1.126-3.812 3.037a7.261 7.261 0 0 0-.068.888v315.909c0 14.128 7.284 21.431 21.41 21.431h37.92c14.127 0 21.377-7.303 21.377-21.431V361.864c.034-14.163-7.25-21.466-21.377-21.466zm301.012 0h-56.438c-12.629 0-22.364 5.358-25.768 21.944L808.06 575.871c-.477 1.945-2.417 1.945-2.928 0l-42.787-213.529c-3.404-16.552-13.14-21.944-25.768-21.944h-34.04c-20.424 0-25.291 10.716-21.887 26.346l61.747 285.673c4.868 21.431 14.093 29.246 34.993 29.246h58.344c20.9 0 30.635-7.815 34.992-29.246l66.207-306.661c.511-2.935-.953-5.358-3.88-5.358zm110.387 80.914h94.84c14.09 0 21.37-7.303 21.37-21.431v-38.017c0-14.163-7.28-21.466-21.37-21.466H981.219c-14.093 0-21.377 7.303-21.377 21.466v298.368c0 14.128 7.284 21.431 21.377 21.431h174.591c2.41 0 3.88-1.467 3.88-3.89v-55.592c0-14.129-7.29-21.432-21.38-21.432h-94.83c-1.94 0-2.9-.989-2.9-2.934v-45.832c0-1.945.96-2.935 2.9-2.935h80.23c14.12 0 21.41-7.303 21.41-21.432v-38.017c0-14.128-7.29-21.431-21.41-21.431h-80.23c-1.94 0-2.9-.99-2.9-2.935v-40.952c-.03-1.979.92-2.969 2.86-2.969z" fill="#fff"/>
</svg>