<svg height="78" viewBox="0 0 140 78" width="140"
  xmlns="http://www.w3.org/2000/svg"
  xmlns:xlink="http://www.w3.org/1999/xlink">
  <mask id="a" fill="#fff">
    <path d="m0 56.694h118.476v-56.694h-118.476z" fill="#fff" fill-rule="evenodd"/>
  </mask>
  <g fill="#fefefe" fill-rule="evenodd" transform="translate(11 11)">
    <path d="m7.7046 54.404c0 .724-.181 1.287-.543 1.688s-.874.602-1.537.602c-.671 0-1.187-.199-1.546-.598-.36-.398-.541-.964-.541-1.698s.182-1.298.543-1.691c.362-.393.879-.59 1.55-.59.661 0 1.172.2 1.532.599.362.399.542.962.542 1.688m-3.394 0c0 .547.11.962.331 1.246.222.282.549.423.983.423.432 0 .758-.139.977-.419.221-.28.331-.697.331-1.25 0-.545-.109-.959-.328-1.241-.217-.282-.542-.423-.974-.423-.436 0-.765.141-.987.423s-.333.696-.333 1.241"/>
    <path d="m9.9532 54.8571v1.776h-.727v-4.446h1.256c.574 0 .999.107 1.275.322.275.215.413.539.413.973 0 .554-.288.948-.863 1.183l1.255 1.968h-.827l-1.064-1.776zm0-.602h.505c.338 0 .584-.063.736-.189s.228-.312.228-.56c0-.251-.082-.431-.246-.541-.164-.109-.412-.164-.743-.164h-.48z"/>
    <path d="m15.1856 56.633h-.727v-3.823h-1.308v-.623h3.343v.623h-1.308z"/>
    <path d="m21.1021 52.1867v2.877c0 .329-.071.616-.211.862-.142.247-.345.436-.612.569-.266.133-.585.199-.956.199-.552 0-.981-.146-1.287-.438s-.459-.693-.459-1.204v-2.865h.73v2.813c0 .367.085.638.255.812.171.175.432.262.785.262.685 0 1.028-.36 1.028-1.08v-2.807z"/>
    <path d="m26.6348 56.633h-.891l-2.187-3.543h-.024l.015.198c.029.377.043.721.043 1.034v2.311h-.66v-4.446h.882l2.18 3.525h.019c-.004-.047-.013-.217-.024-.51-.013-.293-.019-.521-.019-.686v-2.329h.666z"/>
    <path d="m31.0093 56.633-.444-1.235h-1.7l-.435 1.235h-.766l1.663-4.464h.791l1.663 4.464zm-.635-1.861-.417-1.21c-.031-.082-.073-.209-.126-.384-.054-.174-.091-.302-.112-.383-.054.25-.134.522-.24.818l-.401 1.159z"/>
    <path d="m37.6358 56.633h-2.515v-4.446h2.515v.614h-1.789v1.21h1.676v.609h-1.676v1.396h1.789z"/>
    <path d="m42.8677 56.633h-.891l-2.187-3.543h-.024l.015.198c.028.377.043.721.043 1.034v2.311h-.661v-4.446h.883l2.18 3.525h.018c-.003-.047-.012-.217-.024-.51s-.018-.521-.018-.686v-2.329h.666z"/>
    <path d="m46.0196 56.633h-.727v-3.823h-1.308v-.623h3.343v.623h-1.308z"/>
    <path d="m50.9659 56.633h-2.515v-4.446h2.515v.614h-1.789v1.21h1.676v.609h-1.676v1.396h1.789z"/>
    <path d="m53.2203 54.8571v1.776h-.727v-4.446h1.256c.574 0 .999.107 1.275.322s.413.539.413.973c0 .554-.288.948-.863 1.183l1.256 1.968h-.828l-1.064-1.776zm0-.602h.505c.339 0 .584-.063.736-.189s.228-.312.228-.56c0-.251-.082-.431-.246-.541-.164-.109-.412-.164-.742-.164h-.481z"/>
    <path d="m58.3282 56.633h-.727v-3.823h-1.308v-.623h3.343v.623h-1.308z"/>
    <path d="m63.3931 56.633-.444-1.235h-1.7l-.435 1.235h-.766l1.663-4.464h.791l1.663 4.464zm-.636-1.861-.416-1.21c-.031-.082-.073-.209-.126-.384-.054-.174-.091-.302-.112-.383-.054.25-.134.522-.24.818l-.401 1.159z"/>
    <path d="m65.195 56.633h.727v-4.446h-.727z" mask="url(#a)"/>
    <path d="m71.4913 56.633h-.891l-2.187-3.543h-.024l.015.198c.028.377.043.721.043 1.034v2.311h-.66v-4.446h.882l2.18 3.525h.018c-.003-.047-.012-.217-.024-.51s-.018-.521-.018-.686v-2.329h.666z" mask="url(#a)"/>
    <path d="m75.2789 56.633-1.29-3.713h-.024c.035.551.052 1.068.052 1.551v2.162h-.66v-4.446h1.025l1.234 3.537h.018l1.272-3.537h1.028v4.446h-.7v-2.199c0-.22.006-.509.017-.864.011-.354.021-.569.029-.644h-.024l-1.335 3.707z" mask="url(#a)"/>
    <path d="m82.3111 56.633h-2.515v-4.446h2.515v.614h-1.789v1.21h1.676v.609h-1.676v1.396h1.789z" mask="url(#a)"/>
    <path d="m87.543 56.633h-.891l-2.187-3.543h-.024l.015.198c.028.377.043.721.043 1.034v2.311h-.661v-4.446h.883l2.18 3.525h.018c-.003-.047-.012-.217-.024-.51s-.018-.521-.018-.686v-2.329h.666z" mask="url(#a)"/>
    <path d="m90.6949 56.633h-.727v-3.823h-1.308v-.623h3.343v.623h-1.308z" mask="url(#a)"/>
    <path d="m97.0049 54.2213h1.636v2.232c-.267.088-.524.149-.771.186-.246.037-.512.055-.798.055-.673 0-1.192-.2-1.557-.598s-.548-.96-.548-1.687c0-.715.206-1.275.618-1.68.411-.404.978-.607 1.7-.607.464 0 .904.09 1.32.268l-.256.605c-.361-.166-.722-.249-1.082-.249-.475 0-.85.149-1.126.447s-.413.706-.413 1.223c0 .543.124.956.372 1.239s.606.424 1.072.424c.235 0 .487-.029.754-.088v-1.146h-.921z" mask="url(#a)"/>
    <path d="m101.002 54.8571v1.776h-.727v-4.446h1.256c.574 0 .999.107 1.275.322s.413.539.413.973c0 .554-.287.948-.863 1.183l1.256 1.968h-.828l-1.064-1.776zm0-.602h.505c.339 0 .584-.063.736-.189s.228-.312.228-.56c0-.251-.082-.431-.246-.541-.164-.109-.412-.164-.742-.164h-.481z" mask="url(#a)"/>
    <path d="m108.7706 54.404c0 .724-.181 1.287-.543 1.688s-.874.602-1.537.602c-.671 0-1.187-.199-1.546-.598-.361-.398-.541-.964-.541-1.698s.182-1.298.543-1.691c.362-.393.879-.59 1.55-.59.661 0 1.172.2 1.532.599.362.399.542.962.542 1.688m-3.394 0c0 .547.11.962.331 1.246.222.282.549.423.983.423.432 0 .757-.139.977-.419.221-.28.331-.697.331-1.25 0-.545-.11-.959-.328-1.241-.217-.282-.542-.423-.974-.423-.436 0-.765.141-.987.423s-.333.696-.333 1.241" mask="url(#a)"/>
    <path d="m113.7779 52.1867v2.877c0 .329-.071.616-.211.862-.142.247-.346.436-.612.569s-.585.199-.956.199c-.552 0-.981-.146-1.287-.438s-.459-.693-.459-1.204v-2.865h.73v2.813c0 .367.085.638.255.812.171.175.432.262.785.262.685 0 1.028-.36 1.028-1.08v-2.807z" mask="url(#a)"/>
    <path d="m118.4258 53.5309c0 .464-.152.82-.456 1.068-.304.247-.737.37-1.299.37h-.462v1.664h-.727v-4.446h1.28c.556 0 .972.114 1.249.341.276.227.415.561.415 1.003zm-2.217.827h.386c.373 0 .647-.064.821-.194.175-.13.262-.333.262-.609 0-.255-.078-.445-.234-.571s-.4-.189-.73-.189h-.505z" mask="url(#a)"/>
    <path d="m.0645 18.57v26.812h12.054v-17.011h13.57v-9.801z" mask="url(#a)"/>
    <path d="m.064 9.884h31.338v-9.802h-31.338z" mask="url(#a)"/>
    <path d="m39.378.0002v.221 9.583 8.737 17.009 9.299.504h12.054 19.288v-9.803h-19.288v-7.209h13.572v-9.8h-13.695v-8.737h19.411v-9.804z" mask="url(#a)"/>
    <path d="m118.4761 10.1242v-9.805h-19.65v.005c-1.403.071-2.827.109-4.235.208-.471.032-.943.073-1.41.123-1.434.116-2.872.444-4.232.965-.453.173-.899.369-1.331.587-.483.232-.945.496-1.384.783-3.59 2.528-5.347 6.522-6.321 10.667-.168.684-.306 1.326-.419 1.903-.338 1.735-.453 2.898-.453 2.898-.162 1.319-.246 2.701-.246 4.146 0 7.517 1.911 13.304 5.731 17.362 3.822 4.06 9.23 6.089 16.23 6.089 6.377 0 12.228-.911 17.551-2.733v-24.477h-19.6v9.473h8.106v7.114c-1.532.352-3.21.529-5.031.529-3.335 0-5.888-1.114-7.656-3.34-1.771-2.226-2.657-5.461-2.657-9.706 0-1.627.137-3.113.415-4.457.946-8.247 6.519-8.339 6.942-8.335v.001z" mask="url(#a)"/>
    <path d="m0 52.1868v4.446h.721v-1.824h1.676v-.618h-1.676v-1.389h1.788v-.615z" mask="url(#a)"/>
  </g>
</svg>