<svg xmlns="http://www.w3.org/2000/svg" viewBox="0 0 417.1 550.66">
  <defs>
    <style>.cls-1,.cls-2{fill:#fff;}.cls-1{fill-rule:evenodd;}</style>
  </defs>
  <g id="Layer_2" data-name="Layer 2">
    <g id="Layer_1-2" data-name="Layer 1">
      <path class="cls-1" d="M362.16,134.78a45,45,0,0,1-13.68,32.4V114.84a.82.82,0,0,0,.5-.72c.15-.72.65-1.08.58-1.44-.07-.14-.36-.43-.58-.36a.75.75,0,0,0-.5.22v-1.23l.29-.29c.21-.36,0-.57-.29-.79v-1.51a2.2,2.2,0,0,0,.79-1.3,1.57,1.57,0,0,0-.79-1.15v-1.73c1-3.45,1-5.68,0-7.48V80.5h13.68Zm-13.68,32.4a4.24,4.24,0,0,1-.65.58V165.1c.22-.29.36-.58.43-.65.15-.65-.5-47.74-.43-48.1.07-.07,0-.14,0-.21v-1.37a1,1,0,0,0,.65.07v52.34Zm-.65-86.68h.65V97.06c-.22-.29-.43-.65-.65-.94V80.5Zm.65,24v1.73a.27.27,0,0,0-.22-.07h-.43v-1.08h.43c.08-.22.15-.43.22-.58Zm0,4.18v1.51a1.39,1.39,0,0,0-.65-.21v-1.23h.29a.8.8,0,0,0,.36-.07Zm0,2.59v1.23a1.63,1.63,0,0,0-.65.43v-1.3C348.05,111.53,348.26,111.46,348.48,111.31Zm-.65,56.45a10.65,10.65,0,0,1-1.37,1.22v-2.52a11.73,11.73,0,0,0,1.37-1.36v2.66ZM346.46,80.5h1.37V96.12c-.07-.14-.21-.22-.29-.36a5.42,5.42,0,0,0-1.08-.86V80.5Zm1.37,24.62v1.08a9.52,9.52,0,0,1-1.37-.07v-1Zm0,3.67V110h-.14a6.85,6.85,0,0,1-1.23.36v-1.52a8.92,8.92,0,0,0,1.37-.07Zm0,2.88V113a1,1,0,0,0-.36.57,1,1,0,0,0,.22,1.16c.07,0,.07,0,.14.07v1.37a5.71,5.71,0,0,0-1.37-1.16v-2.44c.51-.36,1-.58,1.37-.87Zm-1.37,15v-2.59a6.78,6.78,0,0,1,.22,1.73,1.48,1.48,0,0,1-.22.86Zm0-25.13V98.71A4.84,4.84,0,0,1,346.46,101.59Zm0,67.39c-.36.36-.79.72-1.22,1.08V147.67c.22,9.29.5,18.36.5,18.72s.36.36.72.07V169ZM345.24,80.5h1.22V94.9a4.09,4.09,0,0,0-1.22-.72V80.5Zm1.22,18.21v2.88a.91.91,0,0,1-.07.43,9,9,0,0,1-1.15,2.16V96.84a3.14,3.14,0,0,1,1.22,1.87Zm0,6.41v1h-1.22v-1.3c.07.07.14.15.22.15.28.07.64.07,1,.14Zm0,3.74v1.52a4.07,4.07,0,0,1-1.22.14v-1.66Zm0,3.68V115a1.92,1.92,0,0,0-.5-.28c-.29.07-.29,1.08-.5,1.65a2.79,2.79,0,0,1-.22.43v-3a1.31,1.31,0,0,1,.22-.36c.36-.36.72-.65,1-.93Zm0,11.59v2.59c-.28.43-.79.58-1.22.94h0V126c.22-.14.43-.36.43-1a6.75,6.75,0,0,0-.29-1.22,2.17,2.17,0,0,0-.14-.65v-2a11.49,11.49,0,0,1,.86,1.73A7.88,7.88,0,0,1,346.46,124.13Zm-1.22,45.93c-.43.29-.79.58-1.15.87V125.86l.07.07a.61.61,0,0,0,.72.21c.07-.07.22-.07.36-.14v1.66a1.11,1.11,0,0,0-.29.72c-.14,2.37.07,10.94.29,19.29v22.39ZM344.09,80.5h1.15V94.18a8.71,8.71,0,0,0-1.15-.36V80.5Zm1.15,16.34v7.34a1.55,1.55,0,0,0-.22.29.4.4,0,0,0,.22.36v1.3a2.06,2.06,0,0,0-.65.07,1.24,1.24,0,0,0-.5.07v-3.74a3.47,3.47,0,0,0,.57-1,3.39,3.39,0,0,0-.21-2.66c-.15-.15-.22-.29-.36-.44V96.26a3,3,0,0,1,1.15.58Zm0,12v1.66h-.14a1.4,1.4,0,0,1-1-.79v-1.08a1.05,1.05,0,0,0,.5.14c.15,0,.36.07.65.07Zm0,5v3c-.14.15-.29.22-.36.36-.14.51-.29,3.32,0,3.53.07,0,.14.15.36.43v2a9.67,9.67,0,0,0-1.08-1.87l-.07-.07v-4.54a2.08,2.08,0,0,0,.72-1.44A11,11,0,0,1,345.24,113.83Zm-1.15,57.1c-.43.29-.79.57-1.23.86V129c.36-.43.58-.72.51-.86a2.51,2.51,0,0,0-.51-.65V124.2c.15.22.36.36.44.58a4.08,4.08,0,0,0,.79,1.08v45.07ZM342.86,80.5h1.23V93.82a6.36,6.36,0,0,0-1.23-.15V80.5Zm1.23,15.76v2.16a3.6,3.6,0,0,0-1.23-.43V96.05a3.74,3.74,0,0,1,1.23.21Zm0,6.27v3.74c-.94.43-1.66,1.8,0,2.38v1.08c-.15-.15-.22-.29-.36-.43a1.68,1.68,0,0,0-.87-.22v-5.69a3.63,3.63,0,0,0,1.23-.86Zm0,14.11v4.54a1.48,1.48,0,0,0-.43-.29c-.15,0-.36.21-.44.21a3.06,3.06,0,0,1-.36.58v-1.8a4,4,0,0,0,.44-1.66c0-.14-.15-.28-.44-.43v-1.44a3.54,3.54,0,0,0,1,.29Zm-1.23,55.15a43.37,43.37,0,0,1-10.22,5.4V156.1c.29,1,.5,1.58.72,1.58,1.08-.29,1.37-15,1.37-15.84,0-.22.14-4.32.07-4.54a.78.78,0,0,0-.43-.21,16.23,16.23,0,0,0-1.73.07v-1.58a13.4,13.4,0,0,1,1.8,0c.86.07,2.81.14,3.31-.29a50.61,50.61,0,0,0,4.32-5.33c.29-.36.58-.72.79-1v42.84ZM332.64,80.5v39.88c.58.29,1.3.8,1.66,1a1.17,1.17,0,0,1,.28.87,10.34,10.34,0,0,1-1.15,2.88c-.21.43-.5.86-.79,1.36v5.84a18.23,18.23,0,0,0,2.52-4.76c.22-.86.29-4.53.58-6.76,0-.22.5-.94.57-1.3s.07-.79.65-.86c2.3.07,2.81,3.38,4.1,6.26a8.57,8.57,0,0,0,1.8,2.52V124.2c-.21-.43-.5-.86-.43-1.22a7.5,7.5,0,0,1,.43-1.3v-1.8c-.43,1-1.15,1.94-1.36,1.22a10.34,10.34,0,0,0-1.37-2.52c-.65-.93-1.8-1.29-2.23-1.94s.43-1.15.5-1.15c.58-.07,1.44.57,2.59,1.22.72.43,1.44.79,1.87,1.08v-1.44c-.28-.14-.57-.36-.93-.57a17.5,17.5,0,0,0-2.31-.94c-1.29-.29-.43-1.3.36-2.74s2.24-3,2.88-3h0v-5.69a4.44,4.44,0,0,1-1.44.29,4.27,4.27,0,0,1-4.53-3.74c-.65-4,2.66-6.34,6-6.27V80.5Zm10.22,15.55V98a1.27,1.27,0,0,0-1.29.51c-.51.86-.22,1.44.29,1.72.28.22.57.08.64.22.44,1.15-.14,1.73-1.65,1.22a2.73,2.73,0,0,1-1.15-4.1A3.28,3.28,0,0,1,342.86,96.05Zm-10.22,81.14-1.08.43V172.3c.5-.08.72-.29.79-.51,0-.65-.36-1.37-.36-2.23-.07-1.22-.21-2.74-.43-4.32V150.05c.29,2.23.72,4.53,1.08,6v21.09ZM331.56,80.5h1.08v39.88a.22.22,0,0,1-.14-.07,1.44,1.44,0,0,0-.72.07c-.08.08-.15.08-.22.15v-2.31a1.11,1.11,0,0,0,.22-1.22l-.22-.36V80.5Zm1.08,46v5.84c-.43.72-.79,1.36-1.08,1.87v-5.83c.36-.65.72-1.23,1.08-1.88Zm0,9.08v1.58c-.22,0-.43.07-.65.07h-.43V135.5A4.61,4.61,0,0,0,332.64,135.58Zm-1.08,42c-.14,0-.22.08-.36.15V172.3h.36v5.32ZM331.2,80.5h.36v36.14l-.36-.58V80.5Zm.36,37.72v2.31c-.14.07-.22.21-.36.36v-2.31l.14-.14.22-.22Zm0,10.16v5.83c-.36.72-.5,1.22-.07,1.29h.07v1.73h-.36V129c.14-.21.22-.43.36-.64Zm0,21.67v15.19c-.14-.94-.22-1.87-.36-2.88V147.17C331.27,148,331.42,149,331.56,150.05Zm-.36,27.72a6.35,6.35,0,0,0-1.15.36v-5.91a5.91,5.91,0,0,0,1.15.08h0v5.47ZM330.05,80.5h1.15v35.56l-1.15-1.58v-34Zm1.15,38.08v2.31c-.36.29-.72.65-1.15,1v-2.45c.36-.29.79-.58,1.15-.87Zm0,10.44v8.21c-.29,0-.58.07-.58.22a3.44,3.44,0,0,0-.14,1.22,10.83,10.83,0,0,0,.07,1.51.93.93,0,0,0,.22.51,5.77,5.77,0,0,1,.07,1.94,30.83,30.83,0,0,0,.36,4.54v15.19c-.36-2.38-.72-5-1.15-7.49V131.26c.14-.29.29-.58.43-.94a13.06,13.06,0,0,1,.72-1.3Zm-1.15,42.27V170a.65.65,0,1,1,0,1.3Zm0,6.84c-1.08.29-2.23.65-3.39.86v-4.1a2.82,2.82,0,0,0,.8.29,1.89,1.89,0,0,0,.72-.15.87.87,0,0,0,.28-.79c0-.65-.28-.94-.64-.94a6.08,6.08,0,0,0-1.16,0v-.93c1.16-.07,2.38-.15,3.39-.15v5.91ZM326.66,80.5h3.39v34l-.87-1.22c-.14-.36-.64-.36-.93-.08a12,12,0,0,1-1.59,1.73V80.5Zm3.39,39v2.45a6.63,6.63,0,0,1-1.59,1.36c-.64.44-1.22.8-1.8,1.16V121.9c1.16-.8,2.31-1.59,3.39-2.45Zm0,11.81v23.61q-.44-2.91-.87-5.61a5.11,5.11,0,0,0-.21-1.66c-.22-.5-.72-.58-.87.58a94.09,94.09,0,0,1-1.44,13V139.75a20.66,20.66,0,0,1,1.59-4.1c.14-.29.79-2.23,1.8-4.39Zm0,38.73v1.3a.65.65,0,1,1,0-1.3Zm-3.39,1.15v-.57a.76.76,0,0,1,.65-.36.65.65,0,0,1,.65.65.64.64,0,0,1-.65.64.76.76,0,0,1-.65-.36Zm0-51.91v-1.44c.36-.29.8-.65.8-.79,0-.29-.44-.5-.58-.79s-.07-.43.07-.51a.55.55,0,0,1,.65.08c.07.07.36.36.58.28.93-.36,1.36-.28,1.36.15-.07.21-.64.65-.57.86a.45.45,0,0,0,.07.29c.07.22.36.36.65.58a.37.37,0,0,1,0,.57c-.07.07-.22.29-.29.29-.36,0-.65-.5-1-.65a.8.8,0,0,0-.79,0A8.53,8.53,0,0,0,326.66,119.23Zm0,59.76a9.81,9.81,0,0,1-1.51.29v-3.6c.07-.07.15-.14.22-.14.14-.15.07-.36.07-.51s-.07-.14-.29-.21V174a1.51,1.51,0,0,1,.58.29,3,3,0,0,0,.93.65V179ZM325.15,80.5h1.51v34.41a12.58,12.58,0,0,1-1.51,1.44v-6.62a.28.28,0,0,1,.22.07.64.64,0,0,0,.57-.43,12.1,12.1,0,0,0-.79-2.31V80.5Zm1.51,37.29v1.44c-.28.43-.64.79-.79.65-.5-.43-.72-1,.15-1.58a6.21,6.21,0,0,0,.64-.51Zm0,4.11v2.52a15.15,15.15,0,0,1-1.51,1V122.9a15.15,15.15,0,0,0,1.51-1Zm0,17.85v21.39a32.35,32.35,0,0,1-1.51,5V153c.29-2.74.51-5.69.72-8.57a24.33,24.33,0,0,1,.79-4.68Zm0,30.82v.57c0-.07-.07-.21-.07-.28s.07-.22.07-.29Zm0,1.8v.93h-1.51v-.86C325.66,172.44,326.16,172.37,326.66,172.37Zm-1.51,6.91a2.55,2.55,0,0,1-.72.14V175.9h.22c.14-.08.36-.15.5-.22v3.6Zm-.72-98.78h.72v26.56a4.12,4.12,0,0,1-.14-.5c-.29-.94-.29-1.94-.51-3a.28.28,0,0,0-.07-.22V80.5Zm.72,29.23v6.62c-.21.22-.5.43-.72.65v-3.74c.07-.15.22-.22.29-.36.5-.58.22-1.16-.29-1.59v-1.94a8,8,0,0,0,.72.36Zm0,13.17v2.52a4.16,4.16,0,0,1-.72.58v-2.59l.72-.51Zm0,30.1v13.1a11.64,11.64,0,0,1-.57,1.44c-.08.08-.08.15-.15.29v-9.36c0-.07.07-.21.07-.29a51.54,51.54,0,0,0,.65-5.18Zm0,19.44v.86h-.07a.53.53,0,0,0-.22.36c0,.15.15.22.29.29v.87a.24.24,0,0,0-.14-.08,5.29,5.29,0,0,0-.58-.21v-2a2.55,2.55,0,0,1,.72-.07Zm-.72-.72v-1.37a.65.65,0,0,1,.65.65A.71.71,0,0,1,324.43,171.72Zm0,7.7c-.36.08-.72.15-1.15.22V176a5.62,5.62,0,0,0,1.15-.07v3.52ZM323.28,80.5h1.15v22.89c-.07-.14-.21-.14-.36-.14-.36,0-.57.29-.79.5v-1.58c.22-.15.29-.29.58-.87a2.79,2.79,0,0,0,.21-1.22c-.14-.5-.57-.79-.65-1.3s.22-.57.29-.93a4.27,4.27,0,0,0-.07-1.37l-.36-.58V94.32c.29.07.72,0,.72-.36a22.58,22.58,0,0,0,.07-3.24,3.2,3.2,0,0,0-.79-1.73V80.5Zm1.15,28.87v1.94a3.08,3.08,0,0,0-1.15-.65v-1.87c.29.15.5.22.94.43.07.08.14.08.21.15Zm0,3.89V117c-.36.29-.79.58-1.15.86v-3.45c.43-.36.79-.79,1.15-1.15Zm0,10.15V126a.07.07,0,0,0-.07.07l-1.08.87v-2.81c.43-.22.79-.51,1.15-.72Zm0,35.06v9.36c-.43,1-.79,1.95-1.15,2.59v-7.63a11.62,11.62,0,0,0,.58-2.37c.07-.58.43-1.23.57-1.95Zm0,11.88a.65.65,0,0,0-.65.65.71.71,0,0,0,.65.72v-1.37Zm0,2.16v2c-.07-.07-.14-.07-.29-.07a2.86,2.86,0,0,0-.86-.08v-1.87h1.15Zm-1.15-80a.67.67,0,0,0,.22-.5.54.54,0,0,0-.22-.44Zm0,87.12-1.94.22v-4.18c.07,0,.07.07.14.07a3.5,3.5,0,0,0,1.66.22h.14v3.67ZM321.34,80.5h1.94V89c-.5-.65-1.22-1.29-1.94-2.16V80.5Zm1.94,11.08v.94a.56.56,0,0,1-.36.14.61.61,0,1,1,0-1.22.56.56,0,0,1,.36.14Zm0,2.74V95.9A6.28,6.28,0,0,0,321.34,94V92.74A4.77,4.77,0,0,1,323,94.25c.07,0,.22.07.29.07Zm0,7.85v1.58a.83.83,0,0,1-.36.36c-.29.22-.29,1.08-.43,1.51s-.51.36-.58.94c0,.79-.36,1.66.51,1.8.43.22.64.29.86.43v1.87a8.37,8.37,0,0,0-1.94-.64v-7.56a1.84,1.84,0,0,0,.43.57c.07.07.14.36.29.29s.72-.58.79-.72l.43-.43Zm0,12.24v3.45c-.65.44-1.3.87-1.94,1.23v-3c0-.07,0-.07.07-.07.65-.5,1.29-1.08,1.87-1.58Zm0,9.72v2.81a12.56,12.56,0,0,0-1.94,2v-3.67c.64-.36,1.29-.79,1.94-1.15Zm0,38.66v7.63a3.28,3.28,0,0,1-.43.51c-.36.14-.58,1.44-.36,1.51a2.27,2.27,0,0,0,.79.07v1.87h-.58a.93.93,0,0,0-.57.15,6.8,6.8,0,0,0-.79.5v-.57a.41.41,0,0,0,.21-.36.52.52,0,0,0-.14-.29h-.07v-6.27a22.14,22.14,0,0,0,1.94-4.75Zm-1.94-66.67a.24.24,0,0,1,.14.07c.22,0,.29-.29.36-.43s-.07-.43-.5-.72v1.08Zm0-4.75v-.79a.6.6,0,0,1,.14.43A.56.56,0,0,1,321.34,91.37Zm0,88.49a19.58,19.58,0,0,1-2,.14v-4.25h.07a3.27,3.27,0,0,0,1.51-.93c.15-.15.29-.22.44-.36V175h0a.39.39,0,0,0-.22.36c0,.07.07.15.22.29v4.18Zm-2-99.36h2v6.33a1.22,1.22,0,0,1-.36-.5c-.58-.79-1.16-1.66-1.66-2.38V80.5Zm2,10.08v.79a.65.65,0,0,1-.44.21.62.62,0,0,1-.64-.57.64.64,0,0,1,.64-.65.62.62,0,0,1,.44.22Zm0,2.16V94a8.93,8.93,0,0,0-2-.94V91.87a12.56,12.56,0,0,1,2,.87Zm0,2.3v1.08l-.15-.14a4.49,4.49,0,0,0-.86-.65c-.07-.07-.36,0-.43,0s-.44-.15-.58-.15V94.1h.14c.15.08.08.15.22.22a1.42,1.42,0,0,0,.5.07,5.44,5.44,0,0,1,1.16.65Zm0,7.42V110h-.15c-.5-.08-.86,1-1.37,1.51l-.5.5V109.3c.07-.15.07-.36.14-.44a1.51,1.51,0,0,0,.15-.57,2.81,2.81,0,0,0,.07-.72,3.85,3.85,0,0,0-.36-.58v-3.24a.28.28,0,0,0,.07.22c.07.36.22.43.29.72a5.16,5.16,0,0,1-.14,1.15.9.9,0,0,0,.14.43c.14.15.86.36,1,.15a4.07,4.07,0,0,0,.36-2.38,6.54,6.54,0,0,1-.65-1.08,5.3,5.3,0,0,0-.58-1.08,4.27,4.27,0,0,0-.5-.58V99.79a7.57,7.57,0,0,1,.94.65c.28.22.72.43.79.65s0,.72.07,1a1.49,1.49,0,0,0,.22.36Zm0,13.6v3c-.65.29-1.37.57-2,.79v-2.45a9,9,0,0,0,2-1.37Zm0,9.22V129a2.64,2.64,0,0,0-.51.87,3,3,0,0,0-.14,1.22,17.08,17.08,0,0,0-.22,2.3c0,.87.07,1.8.07,2.81-.21,10.87-.5,31.75-.28,32.11a.31.31,0,0,0,.57,0,5.6,5.6,0,0,0,.51-.72v6.27a20.06,20.06,0,0,0-2,.07v-1.15c.5-.07,1-.22,1-.72s-.36-1.15-.79-1.15h-.22V126.43c.65-.36,1.37-.72,2-1.15Zm-2-.07v-1.8a.27.27,0,0,1,.22-.07c.14,0,.14.5.14.93s.07.94-.14.94Zm0-28.23v.08c.43-.08,1.58.14,1.58-.58,0-.22-.43-.36-.64-.5,0-.08-.22-.15-.29-.15-.29-.07-.29,0-.65,0Zm0,83a2.06,2.06,0,0,1-.65.07v-4.46a1.5,1.5,0,0,0,.65.14V180Zm-.65-99.5h.65V84l-.65-.65V80.5Zm.65,11.37V93l-.65-.21V91.66l.65.21Zm0,2.23v1.08c-.14,0-.22,0-.29.08s.07,0-.07.07a.43.43,0,0,0-.07.29c0,.07.14.14.14.21h.29V97c-.29-.07.22,1-.65.8V94.32c.29-.14.22-.22.07-.22Zm0,5.69v1.51a4,4,0,0,0-.65-.5V99.43c.15.07.36.22.65.36Zm0,4V107c-.07,0-.07,0-.07-.07a1.72,1.72,0,0,1-.58-.65v-3.6h0a2.67,2.67,0,0,1,.65,1.08Zm0,5.55V112c-.22.15-.43.36-.65.51V110a2,2,0,0,0,.58-.72Zm0,8.13v2.45l-.65.22v-2.45a.28.28,0,0,0,.22-.07,1.06,1.06,0,0,0,.43-.15Zm0,6v1.8a2.06,2.06,0,0,0-.65-.07v-1.59a1.5,1.5,0,0,1,.65-.14Zm0,3v44.43a1,1,0,0,0-.65.21V126.94a.72.72,0,0,1,.43-.36c.08-.08.15-.08.22-.15Zm0,46.3v1.15H319a.56.56,0,0,0-.36.14v-1.29h.65Zm-.65-81.94V89.57h0a.62.62,0,0,1,.58.57.64.64,0,0,1-.58.65Zm0,89.28c-.65,0-1.29.07-1.94.07V176a1.38,1.38,0,0,0,.72-.36.76.76,0,0,0,.36-.58c0-.36.07-.79-.22-1-.14-.14-.43-.14-.86-.21v-1c.5,0,.72-.43.72-1s0-1.44-.72-1.51v-1.22H317c.5,0,.86-.22.79-.87l.65-40.75a.78.78,0,0,1,.21-.5v44.13a1.12,1.12,0,0,0-.43.72c0,.51.14.79.43.94V174a1.37,1.37,0,0,0-.29.8c0,.36,0,.5.29.72v4.53ZM316.73,80.5h1.94v2.8a2.83,2.83,0,0,0-1.87-.86h-.07V80.5Zm1.94,9.07v1.22a.65.65,0,0,1-.65-.65.64.64,0,0,1,.65-.57Zm0,2.09v1.15a7.67,7.67,0,0,0-1.94-.22V91.37a10.15,10.15,0,0,1,1.94.29Zm0,2.66v3.46h-.07c-.22-.08-.29-.29-.43-.44a1.25,1.25,0,0,1-.58-.64c-.07-.36-.43-.51-.5-.65-.29-.43.07-1.08.65-1.23.14-.07-.08-.36.21-.43s.58-.07.72-.07Zm0,5.11v1.37c-.65-.43-1.22-.72-1.22-1.15h0c.07-.58.43-.58,1.22-.22Zm0,3.24v3.53a4,4,0,0,1-.07-.94,3.68,3.68,0,0,0-.22-1,1.31,1.31,0,0,0-.72-.8,2,2,0,0,0-.93-.21v-1h.14a2,2,0,0,1,1.8.43Zm0,7.35v2.52a5.7,5.7,0,0,1-1.94.86v-2c.07,0,.07,0,.14-.07a3.46,3.46,0,0,0,1.44-.93c.15-.15.22-.29.36-.36Zm0,7.63v2.45a9.27,9.27,0,0,1-1.94.28V118a9.45,9.45,0,0,0,1.94-.36Zm0,5.9v1.59a18.45,18.45,0,0,0-1.94-.15v-.86a7.46,7.46,0,0,0,1.94-.58ZM316.73,122v-.65a.56.56,0,0,1,.07.36.58.58,0,0,1-.07.29Zm0-21.39v-.86a1.31,1.31,0,0,1,.29.14c.07.15.07.44,0,.44s-.08.07-.15.14-.07.14-.07.14Zm0-10.72V89.5c.07.07.07.07.07.14a.29.29,0,0,1-.07.22Zm0-2V87a.5.5,0,0,1,.21.43.63.63,0,0,1-.21.43Zm0-1.73v-1a.56.56,0,0,1,.36.51.55.55,0,0,1-.36.5Zm0-1.8v-1c.21.15.36.29.36.51A.55.55,0,0,1,316.73,84.31Zm0,95.83h-.07c-.29,0-.58-.07-.8-.07V175.9a1.3,1.3,0,0,0,.58.07h.29v4.17Zm-.87-99.64h.87v1.94a2.15,2.15,0,0,0-.87.36V80.5Zm.87,2.8v1a.39.39,0,0,1-.29.15.56.56,0,0,1-.58-.51v-.21a.56.56,0,0,1,.58-.51c.14,0,.22,0,.29.07Zm0,1.8v1c-.07.07-.15.07-.29.07a.55.55,0,0,1-.58-.5v-.14a.56.56,0,0,1,.58-.51c.14,0,.22,0,.29.07Zm0,1.88v.86a.56.56,0,0,1-.36.14.58.58,0,0,1-.51-.21v-.72a.56.56,0,0,1,.51-.22c.14,0,.29,0,.36.15Zm0,2.52v.36a.63.63,0,0,1-.58.43.54.54,0,0,1-.29-.15v-1a.42.42,0,0,1,.29-.08.55.55,0,0,1,.58.44Zm0,1.87v1.22h0a3.65,3.65,0,0,0-.87.07V91.44a3.37,3.37,0,0,1,.8-.07Zm0,8.35v.86c-.07.08-.29,0-.36.08h-.51v-1.3h.08c.21,0,.5.07.57.07a.91.91,0,0,0,.22.29Zm0,2.52v1a.07.07,0,0,1-.07.07c-.29.29-.58.14-.8.14h0v-.93h.08c.57-.07.5-.22.79-.29Zm0,9.14v2a3.76,3.76,0,0,1-.87.14v-1.87a3.71,3.71,0,0,0,.87-.29Zm0,6.63v2.37a3.21,3.21,0,0,1-.87.08V118Zm0,3.31V122c-.07.57-.43,1.73-.43,2.09a.15.15,0,0,0,.14.14c.14,0,.22-.07.29-.07V125c-.29.07-.51.15-.58.29a44.81,44.81,0,0,0,.51,5.4c.07.29-.08.43-.29.43h-.51v-9.93h.51c.21,0,.36.07.36.14Zm0,47.74v1.22h0c-.79,0-.65.86-.65,1.51s.07,1,.58,1h.07v1h-.29a1.47,1.47,0,0,0-.58.07v-4.82Zm-.87,11h-1.08v-7.2c.51,0,.72-.36.72-1s0-1.36-.72-1.36h0v-1.44h1.08v4.82c-.21,0-.36,0-.43.07-.36.22-.29.65-.29,1.08a.87.87,0,0,0,.44.72c.07,0,.14.07.28.15v4.17ZM314.78,80.5h1.08v2.3a3.38,3.38,0,0,0-1.08.79V80.5Zm1.08,3.24v0Zm0,1.8v0Zm0,1.51v.72a.56.56,0,0,1-.14-.36.54.54,0,0,1,.14-.36Zm0,2.09v1a.47.47,0,0,1-.28-.5.53.53,0,0,1,.28-.5Zm0,2.3v1.22a4.91,4.91,0,0,0-1.08.08V91.51a5.6,5.6,0,0,1,1.08-.07Zm0,7.92v1.3c-.21,0-.36-.08-.57-.08s-.29-.14-.51-.21v-.51a1.06,1.06,0,0,0,.58-.43c.07-.07.29-.07.5-.07Zm0,3.17v.93h-.79c-.14,0-.14-.14-.29-.14V102.1a1.74,1.74,0,0,1,.44.36,1.8,1.8,0,0,0,.64.07Zm0,9.14v1.87a2.46,2.46,0,0,1-1.08,0V111.6a1,1,0,0,0,.44.07Zm0,6.34v2.45c-.36,0-.72-.08-1.08-.08v-2.44c.36,0,.72.07,1.08.07Zm0,3.17v9.93H315c-.07,0-.14-.07-.22-.21v-.44a27.31,27.31,0,0,0,.44-5.25c0-.15-.15-.15-.44-.15v-.93h.29c.07.07.07-.07.07-.15a10.14,10.14,0,0,0-.36-1.87v-.79a.59.59,0,0,1,.36-.14Zm-1.08-24.84V95.26a1.76,1.76,0,0,1,.22.79A1,1,0,0,1,314.78,96.34Zm0,83.73a4.21,4.21,0,0,1-.93-.07v-4.1c.07-.08.14-.15.21-.15a1,1,0,0,0,.36-.72c0-.43.15-.86-.21-1.08a.56.56,0,0,0-.36-.07v-4.82h.93v1.44c-.72,0-.64.79-.64,1.44s.07.93.64.93h0v7.2Zm-.93-99.57h.93v3.09c-.28.29-.64.65-.93,1V80.5Zm.93,11v1.23c-.36.07-.64.07-.93.14v-1.3c.29,0,.65-.07.93-.07Zm0,3.75v1.08a1.41,1.41,0,0,1-.28.36,3.48,3.48,0,0,1-.44.72c-.07.07-.14.21-.21.28V94.25a4.38,4.38,0,0,1,.57.57,1,1,0,0,1,.36.44Zm0,4.6v.51h-.07c-.07,0-.07-.22,0-.51Zm0,2.24v1.22a.24.24,0,0,0-.14-.07,1,1,0,0,0-.65.14c-.21.29,0,1.23-.14,1.73h0v-2.88c.21-.07.43-.07.65-.14Zm0,9.5v1.94a2.28,2.28,0,0,1-.93-.21v-2a1.56,1.56,0,0,0,.93.29Zm0,6.34v2.44c-.28-.07-.64-.07-.93-.14v-2.45c.29.07.65.07.93.15Zm0,3.38v.79a.46.46,0,0,0-.07-.29c0-.21,0-.43.07-.5Zm0,2.81v.93a4.29,4.29,0,0,0-.93.08v-1.59a7.4,7.4,0,0,0,.93.58Zm0,6.33v.44a.25.25,0,0,0-.07-.15.54.54,0,0,0,.07-.29Zm-.93-30V99a.5.5,0,0,1,.5.29.74.74,0,0,1-.21.86l-.29.29Zm0-10.08V89.14h0a.61.61,0,0,1,.57.57.63.63,0,0,1-.57.65Zm0,89.64h-.79v-4h.14c.29,0,.43-.07.65-.07V180Zm-.79-99.5h.79v4.1a7.36,7.36,0,0,0-.79.79V80.5Zm.79,8.64v1.22a.65.65,0,0,1-.65-.65.63.63,0,0,1,.65-.57Zm0,2.44v1.3a2.59,2.59,0,0,0-.79.14V91.73a3.37,3.37,0,0,0,.79-.15Zm0,2.67V97.7c-.07.08-.15.08-.22.15a1.7,1.7,0,0,1-.57.14V95.76h.14c.07,0,.07-.07.07-.14v-.15c-.14-.07-.14-.14-.21-.21V94.18h.28a1.13,1.13,0,0,1,.51.07Zm0,4.75v1.44a2.71,2.71,0,0,1-.58.43c-.07,0-.14.07-.21.07V99.43c.21-.07.43-.36.64-.36s.08-.07.15-.07Zm0,3.24v2.88c-.22.43-.43.65-.79.72v-3.1a3.68,3.68,0,0,1,.36-.28,1,1,0,0,1,.43-.22Zm0,9.07v2a2.54,2.54,0,0,1-.79-.29v-2.38a3.93,3.93,0,0,0,.57.58c.07,0,.15.07.22.07Zm0,6.48v2.45a7.18,7.18,0,0,1-.79-.22v-2.44c.21.07.5.14.79.21Zm0,5.76v1.59c-.29,0-.58.07-.79.07v-2a4.23,4.23,0,0,1,.79.36Zm0,45.51v4.82a2.06,2.06,0,0,0-.65-.07h-.14v-.87c.5-.07.64-.43.64-1.08,0-.43.08-1.15-.14-1.44-.07-.14-.29-.14-.43-.21h-.07v-1.15h.79ZM313.06,180a11.26,11.26,0,0,0-1.44-.14v-7.35a1.37,1.37,0,0,0,.14-.57,2.82,2.82,0,0,0-.14-.87v-45c.28.15.57.36.86.51a1.16,1.16,0,0,1,.29.79l-.29,40.82c0,.51.14.79.58.87v1.15c-.58.07-.72.57-.72,1a3,3,0,0,0,.07.93c.14.43.29.79.57.79h.08v.87a1.62,1.62,0,0,0-1,.21c-.29.22-.29.65-.29,1s.22.43.36.58a1.27,1.27,0,0,0,.94.36v4Zm-1.44-99.5h1.44v4.89c-.22.22-.36.43-.51.58a9.51,9.51,0,0,1-.93.86V80.5Zm1.44,11.23V93a8.11,8.11,0,0,0-1.44.29V92.16c.5-.14.93-.29,1.44-.43Zm0,2.45v1.08c-.08,0-.08-.08-.15-.08-.21-.21-.72-.07-.86-.07s-.22.15-.29.22-.07.14-.14.21v-1c.07-.08.14-.15.21-.15a3,3,0,0,1,1.23-.21Zm0,1.58V98h-.29c-.15,0-.22.07-.36.07-.43-.07-.58-.14-.51-.36,0-.43.65-.14.58-.28s0-.44-.14-.36-.44,0-.51-.08a.54.54,0,0,1-.07-.36c0-.14-.07-.5.07-.64s.29-.08.36-.15a4.7,4.7,0,0,0,.87-.07Zm0,3.67v1.51a3.07,3.07,0,0,0-1.44.72V99.94a4.55,4.55,0,0,1,1.36-.51Zm0,3.31v3.1c-.15,0-.22.07-.36.07-.44,0-.58-.5-.65-.5s-.15-.36,0-.51.5-.07.65-.64a7.24,7.24,0,0,1,.14-1.23c0-.14.07-.21.22-.29Zm0,7.92V113a6.78,6.78,0,0,1-1.44-1.08v-4.1c0,.07.07.14.07.28a5,5,0,0,0,.86,2.09,4,4,0,0,1,.51.43Zm0,6.92V120a9.84,9.84,0,0,1-1.44-.5v-2.45a8.4,8.4,0,0,0,1.44.51Zm0,5.61v2a2.86,2.86,0,0,1-.87-.07c-.14-.08-.14-.22-.14-.36v-1.44c0-.29.29-.36.65-.29.07.07.21.07.36.14ZM311.62,91V89.78h0a.56.56,0,0,1,.57.58.59.59,0,0,1-.57.65Zm0,88.85c-.22-.08-.51-.08-.72-.15v-4.25a1,1,0,0,0,.14-.64,1.38,1.38,0,0,0-.14-.58v-1.3h0a.72.72,0,0,0,.72-.43v7.35ZM310.9,80.5h.72v6.33c-.29.29-.51.43-.72.65v-7Zm.72,9.28V91a.65.65,0,0,1-.65-.65.64.64,0,0,1,.65-.58Zm0,2.38v1.15c-.29.07-.51.15-.72.22v-1c.21-.14.5-.22.72-.36Zm0,2.38v1a2,2,0,0,0-.36.51.82.82,0,0,0-.36-.07v-.8a2.11,2.11,0,0,1,.72-.64Zm0,5.4v1.72a3.5,3.5,0,0,0-.51,1.16,7.77,7.77,0,0,1-.21.86v-2.3a2.92,2.92,0,0,1,.57-1.3l.15-.14Zm0,7.92V112a4.43,4.43,0,0,1-.72-.94v-4.24a1.34,1.34,0,0,0,.14.5c.14.22.43.22.58.58Zm0,9.21v2.45c-.22-.14-.51-.22-.72-.36v-2.38a2,2,0,0,0,.72.29Zm0,9v45a.87.87,0,0,0-.72-.43h0V125.57A5,5,0,0,1,311.62,126.07Zm-.72,53.64-1.73-.21v-4.18a2.32,2.32,0,0,0,.86.43,1.1,1.1,0,0,0,.72-.14c.07-.07.07-.15.15-.15v4.25ZM309.17,80.5h1.73v7a9.68,9.68,0,0,0-1.73,1.73V80.5Zm1.73,12v1a2.66,2.66,0,0,0-1.73,1.37V93.24a1.13,1.13,0,0,0,.57-.14,7.85,7.85,0,0,1,1.16-.58Zm0,2.66V96c-.15,0-.22,0-.29-.15a.89.89,0,0,1,.29-.65Zm0,6.27v2.23a3.34,3.34,0,0,1-.29.86,2.59,2.59,0,0,0,.14,1.23c.07.36.07.72.15,1V111a6,6,0,0,1-.87-1.65c-.14.07-.65.07-.86.14v-2c.07,0,.14,0,.14-.08.87-.07.43-1.8.43-2.59a7.72,7.72,0,0,0-.57-.79v-1.51a.24.24,0,0,0,.07.14c.22.22.79,0,1.15-.29a4.5,4.5,0,0,0,.51-.93Zm0,15.33v2.38c-.58-.29-1.16-.65-1.73-1v-2.3a11.89,11.89,0,0,0,1.73.93Zm0,8.79v45.07c-.72,0-.87.65-.87,1.3s.29,1,.87,1v1.3c-.15-.22-.29-.36-.51-.36s-.72-.07-1.22-.07v-4.9c.21.07.57,0,.57-.29-.21-7.12.8-14.68.87-22,.07-5.9-.51-11.66-.43-17.71a1.25,1.25,0,0,0-.65-1.08,1,1,0,0,1-.36-.29v-3.16c.57.36,1.15.79,1.73,1.15Zm-1.73-26.28V97.85c.14.57.29.65.29,1.08v.29a.46.46,0,0,1-.29.07Zm0-7.71v-.64a.59.59,0,0,1,.5-.29.65.65,0,0,1,.65.65.64.64,0,0,1-.65.57A.59.59,0,0,1,309.17,91.58Zm0,87.92a8.69,8.69,0,0,1-1.37-.29v-6.48a.56.56,0,0,0,.36-.07c.22,0,.43-.22.14-.36a1.59,1.59,0,0,0-.5-.15v-4.46a5,5,0,0,0,1.3,1.15c0,.07,0,.07.07.07v4.9H308a.48.48,0,0,0-.15.29c0,.28.36.5.65.72a4,4,0,0,0,.65.5v4.18Zm-1.37-99h1.37v8.71a2,2,0,0,0-.36.72,26.26,26.26,0,0,0-.29,2.95c0,.29.36.36.65.36V94.9a.26.26,0,0,0-.07.21,2.47,2.47,0,0,0-.15,1.3,7,7,0,0,0,.22,1.37v1.51a.28.28,0,0,0-.22.07.63.63,0,0,0-.43.58,2.17,2.17,0,0,0,.29,1.87c.21.29.21.5.36.72V104c-.15-.22-.29-.36-.43-.58-.29-.28-.44-1-.94-1v-22Zm1.37,10.44a.65.65,0,0,0-.07.36.42.42,0,0,0,.07.28v-.64Zm0,16.56v2h-.07c-.44.22-.87.36-1.3.58v-2a12,12,0,0,1,1.37-.64Zm0,8.35v2.3a9.32,9.32,0,0,1-1.37-1v-2.23a9,9,0,0,0,1.37.94Zm0,8.57v3.16c-.51-.36-.94-.72-1.37-1.08v-3.09A9.32,9.32,0,0,0,309.17,124.42Zm-1.37,54.79a20.81,20.81,0,0,1-2.23-.51V176h.21a3.5,3.5,0,0,0,1.66-.22c.22-.14.29-.21.29-.36s0-.29-.15-.36-.57-.29-.79-.5a1.44,1.44,0,0,0-.65-.15h-.57v-1.65h2.23v6.48ZM305.57,80.5h2.23v22h-.07c-.07.14-.29.21-.29.36a11.47,11.47,0,0,1-.29,1.44c-.14.43-.43.93-.57,1.36s0,1-.29,1.37a3.43,3.43,0,0,0-.65,1.73c0,.14.07.29.36.29a1.56,1.56,0,0,0,.58-.15,7.48,7.48,0,0,0,.72-.5,2.65,2.65,0,0,0,.5-.22v2c-.86.29-1.66.57-2.23.79V80.5Zm2.23,34.41v2.23a19,19,0,0,1-2.23-2v-2.31a16,16,0,0,0,2.23,2.09Zm0,8.5v3.09c-.79-.64-1.51-1.29-2.23-1.94v-2.74c.72.51,1.44,1.08,2.23,1.59Zm0,44.28v4.46a.7.7,0,0,1-.58-.5,1.59,1.59,0,0,1,.29-1.08c.07-.07.15-.29-.14-.58a6.68,6.68,0,0,1-1.8-1.94V161.5a11.34,11.34,0,0,0,2.23,6.19Zm-2.23-49.83v-.43C305.64,117.58,305.71,117.72,305.57,117.86Zm0,60.84c-.22-.07-.51-.14-.79-.21V176h.79v2.73Zm-.79-98.2h.79v30.38a5.63,5.63,0,0,0-.79.5V80.5Zm.79,32.32v2.31a10.36,10.36,0,0,0-.79-.87v-2.52a9.25,9.25,0,0,0,.79,1.08Zm0,4.61v.43a.25.25,0,0,1-.07.15c-.29.29-.36.29-.65.14h-.07v-1.22c.28.14.57.36.72.43l.07.07Zm0,4.39v2.74a9.42,9.42,0,0,0-.79-.72v-2.66a9.12,9.12,0,0,1,.79.64Zm0,39.68v6.55a13.79,13.79,0,0,1-.79-1.23V151.49c.21,2.88.5,5.83.72,9.07,0,.29.07.65.07.94Zm0,11.23v1.65h-.79v-1.72a2.8,2.8,0,0,1,.79.07Zm-.79-.65v-1.3a.65.65,0,1,1,0,1.3Zm0,6.41a6.18,6.18,0,0,1-1.08-.29v-2.59a2.15,2.15,0,0,0,.5.29c.14,0,.36.07.58.07v2.52Zm-1.08-98h1.08v30.88c0,.08-.08.15,0,.22v2.66L303.7,113V80.5Zm1.08,36.43v1.22c-.22-.14-.65-.72-1.08-1.08v-1.22l1,1c.08,0,.08,0,.08.07Zm0,4.25v2.66c-.36-.36-.72-.65-1.08-1v-2.66c.36.36.72.65,1.08,1Zm0,30.31v15.33c-.36-.79-.8-1.58-1.08-2.37V135.86a17.66,17.66,0,0,1,.43,2.67c.14,4.68.36,8.78.65,13Zm0,19.29v1.3a.65.65,0,0,1,0-1.3Zm0,1.88v1.72c0,.08,0,.08-.08.08a2.08,2.08,0,0,0-.79.28.29.29,0,0,0-.21.08V174c.14-.07.21-.14.21-.29a.82.82,0,0,0-.14-.36h-.07v-.72c.36,0,.72.08,1.08.08Zm-1.08-57.1c.14-.22.5-.43.57-.65s-.07-.21-.07-.29-.29-.28-.43-.5h-.07Zm0,62.64c-.58-.14-1.08-.36-1.59-.5v-2.81a3.19,3.19,0,0,0,.94-.65,2.5,2.5,0,0,1,.65-.29v.87c-.15.07-.29.14-.29.21a.71.71,0,0,0,.14.51.25.25,0,0,0,.15.07v2.59Zm-1.59-97.7h1.59V113a1.27,1.27,0,0,1-.29-.36,1.2,1.2,0,0,0-1.3,0V80.5Zm1.59,33.62v1.44c-.08,0-.08,0-.08.07s0,.22,0,.22h.08v1.22a1.85,1.85,0,0,0-.44-.29c-.28-.14-.43-.14-.64.08s-.29.28-.44.43a.07.07,0,0,0-.07.07v-3.1c.29.44.36.36.58.65.07.07.07,0,.14-.07.22-.22.29-.22.43-.43s.22-.36.44-.29Zm0,6v2.66a2,2,0,0,0-.44-.36c-.36-.29-.79-.72-1.15-1.08v-2.73c.51.5,1,1,1.59,1.51Zm0,15.69v28.52c-.72-2.09-.87-8.86-1.3-11.52-.07-.51-.14-.72-.29-.8V132.48c.15.22.29.5.43.72a10.94,10.94,0,0,1,1.16,2.66Zm0,36.72v.72h-1.59v-.79c.51,0,1,.07,1.59.07Zm-1.59-.79V170.5h.07a.7.7,0,0,1,.72.64.71.71,0,0,1-.72.65Zm0,5.91c-.57-.22-1.08-.36-1.65-.58v-2.23c.07,0,.07.07.14.14a1.81,1.81,0,0,0,.72.15,2.2,2.2,0,0,0,.79-.29v2.81Zm-1.65-97.2h1.65v32.11c-.07.07-.14.07-.21.14-.72.79-.94.94-1.44,1.51V80.5Zm1.65,33.76h0c-.14-.14-.5-.28-.65-.14a2.52,2.52,0,0,0-.07.72,9.08,9.08,0,0,1,.72.86v-1.44Zm0,1.66v1.44a3,3,0,0,0-.5.79,3.47,3.47,0,0,0,.5.51v2.73c-.57-.65-1.15-1.37-1.65-2v-2.52l.28.28a2.86,2.86,0,0,0,1.08-.79,1.36,1.36,0,0,0,.29-.43Zm0,16.56v19.58c-.14-.21-.36,0-.5.29a9.53,9.53,0,0,0-.36,1.66c-.22,1.8-.51,3.45-.79,5V145.44c.28-2.16.5-4.39.64-6.55.08-1.23,0-2.38-.64-2.81v-6c.57.8,1.15,1.59,1.65,2.38Zm0,38v1.29a.63.63,0,0,1-.57-.65.67.67,0,0,1,.57-.64Zm0,2v.79a6,6,0,0,0-1.15,0,.76.76,0,0,0-.5.36v-1.29C301,172.44,301.54,172.44,302.11,172.51Zm-1.65,4.61a4.58,4.58,0,0,0-.87-.36v-4.39h.87v1.29a1.27,1.27,0,0,0-.15.58,1,1,0,0,0,.15.65v2.23Zm-.87-96.62h.87v33.76a3.3,3.3,0,0,0-.44.51,1.72,1.72,0,0,0,.36,2c.08,0,.08,0,.08.08v2.52a4.74,4.74,0,0,1-.87-1.73V80.5Zm.87,49.6v6a3.15,3.15,0,0,1-.29-.22h-.58v-7c.29.36.58.79.87,1.22Zm0,15.34V159c-.29,1.8-.58,3.45-.87,4.89V152.28c.29-2.3.65-4.61.87-6.84Zm-.87,25.92v-1.3a.65.65,0,0,1,0,1.3Zm0,5.4a11.5,11.5,0,0,0-1.15-.5v-4a2,2,0,0,0,.72.07h.43v4.39ZM298.44,80.5h1.15v37.15h0c-.14-.36-.65-.43-1.15-.36V80.5Zm1.15,48.38v7a6.74,6.74,0,0,0-1.15-.07v-2.23h.36c.36-.14-.07-.58-.36-1.08V127.3c.36.5.72,1.08,1.15,1.58Zm0,23.4v11.59c-.43,2.09-.86,4-1.15,5.47V158.4c.43-2,.79-4.1,1.15-6.12Zm0,17.78v1.3a.65.65,0,1,1,0-1.3Zm-1.15,6.2a41.83,41.83,0,0,1-5-2.6v-40.6a23.21,23.21,0,0,0,2.38.5,8,8,0,0,0,2.59,0v2.23c-.43-.07-.94-.07-1.37-.14-.86-.22-1.29.14-1.37.93.36,8.57.36,17.28,1,25.78.07,1,.43,1.3.79,0s.65-2.59.94-4v10.94a.46.46,0,0,0-.07.29,6.8,6.8,0,0,0-.36,2.23.53.53,0,0,0,.43.44v4Zm-5-95.76h5v36.79a4.4,4.4,0,0,0-1,.14c-.57.22-.72.94-.79,2.45-.07.86-.29,1.8-.43,2.66a5.78,5.78,0,0,0,.65,2.45c.43.72,1,1.51,1.58,2.31v5.18c-.07-.07-.14-.14-.14-.22-.51-.93-1.52-2-2.38-3.38a13.63,13.63,0,0,1-2.16-5c-.29-4.32.22-4.39,1.37-5.76.29-.29.65-.5.57-1-.28-.93-.28-1.58-.64-1.94a.62.62,0,0,0-.94-.14,5.36,5.36,0,0,1-.65.72V113c.43-.29.65-.43.72-.58s-.07-.5-.07-.93,0-.72-.14-.79h-.51v-1.23a.55.55,0,0,0,.51-.29,5.37,5.37,0,0,0,.57-2,1.41,1.41,0,0,1,.29-.36,3.08,3.08,0,0,0,.14-1.66,5.4,5.4,0,0,0-.86-1.87c-.29-.5-.36-1.08-.65-1.51v-1.08a3.38,3.38,0,0,1,1.23,1.65c0,.08.21,0,.21-.07a5,5,0,0,0-.21-2.09c-.22-1.65-.29-3.67-1.23-4.53Zm0,93.16c-1.08-.64-2.09-1.29-3.17-2V132.41c.8.14,1.8.36,2.81.5a3.88,3.88,0,0,1,.36.15v40.6ZM290.3,80.5h3.17V95.69c-.07-.07-.21-.15-.29-.22-.86-.29-1.8.22-.57,3,.07.28-.29.93.14,1.58.07.22.36.43.72.65v1.08a.9.9,0,0,0-.21-.29,4.78,4.78,0,0,0-1.16-.79,4,4,0,0,1-.72-.65c-.14-.07-.28-.07-.28.14a3.11,3.11,0,0,0,.14,1.16c.36.79.79.79.86,1.44a5.2,5.2,0,0,1-.43,1.8,11.3,11.3,0,0,0-.36,2c.07.36-.07.65-.14.65s-.43.07-.58-.22a1.61,1.61,0,0,1-.29-.57v-2.31h.08c.14-.14.36-.28.36-.5a8.09,8.09,0,0,0-.44-3.17V98.78c.08,0,.08.08.15.08s.29.14.36.07c.72-.36.93-.72.57-1.15-.28-1.73.22-3.39-1.08-3.6V80.5Zm3.17,29v1.23c-.57.07-1.65.14-2.66.21a1.13,1.13,0,0,1-.51.07v-1.29c.22,0,.44-.07.65-.07a10.16,10.16,0,0,1,2-.15,1.15,1.15,0,0,0,.5,0Zm0,3.53v2.74a10.7,10.7,0,0,1-.93.64c-.44.22-.94.15-1.37.44a6.24,6.24,0,0,1-.87.57v-2.59A29.79,29.79,0,0,0,293.47,113Zm-3.17,58.61c-.64-.43-1.22-.94-1.87-1.44V132.12c.15.07.22.14.36.07a12.4,12.4,0,0,1,1.51.22v39.24ZM288.43,80.5h1.87V94.18a.24.24,0,0,0-.21-.08c-1.3.08-.94,1.52-.79,3a4.5,4.5,0,0,0,1,1.72v1.73a3.73,3.73,0,0,0-.93-1.87,1.42,1.42,0,0,0-.94-.14v-18Zm1.87,23.68c-.21.22-.5,0-.64-.57a22.15,22.15,0,0,0-.87-2.38,3.22,3.22,0,0,0-.36-.93v2.3a3.36,3.36,0,0,1,.36,1.73c0,.29-.14.36-.36.43v.86c.07,0,.22-.07.29-.07s.5-.14.58-.14.36-.07.5.07.36.14.36.22.07.43.14.79v-2.31Zm0,5.55V111c-.72,0-1.36.08-1.87.08V110c.51-.08,1.15-.15,1.87-.29Zm0,5.11v2.59a2.59,2.59,0,0,1-.64.36c-.36.15-.8.29-1.23.43v-2.44a15.51,15.51,0,0,0,1.87-.94Zm-1.87,7.42v-.8a2.33,2.33,0,0,1,1-.28c.14.07.14.64.07.72S288.79,122,288.43,122.26Zm0,48c-.36-.29-.72-.65-1.15-.94V129.74a6.39,6.39,0,0,0,1.15,2.38v38.09ZM287.28,80.5h1.15v18c-.14,0-.21,0-.29.07s-.28.43-.21.79.29.58.5.94v2.3c-.07-.22-.21-.43-.29-.65-.21-.65-.28-1.08-.64-1.29a.26.26,0,0,0-.22-.08V80.5Zm1.15,24.26v.86a3.62,3.62,0,0,1-.93,0c-.08,0-.15-.07-.22-.14V104a.54.54,0,0,1,.14.36,1,1,0,0,0,.87.43Zm0,5.26v1.08h-.72a1.59,1.59,0,0,0-.43.07v-1.08a8.63,8.63,0,0,0,1.15-.07Zm0,5.76v2.44a6.06,6.06,0,0,1-1.15.29v-2.3a.36.36,0,0,0,.29-.15.73.73,0,0,1-.29-.07v-2.88a7.57,7.57,0,0,1,.29,1.23c.14.5.14.93.29,1.65l.57-.21Zm0,5.68v.8h-.07a1.49,1.49,0,0,0-.58,1,3,3,0,0,0,0,.8,10,10,0,0,0,.65,1.72,3.54,3.54,0,0,1-1-1.72,2.3,2.3,0,0,1,.36-2A2.59,2.59,0,0,1,288.43,121.46Zm-1.15,47.81c-.5-.43-1.08-.93-1.58-1.44V124.49c.21.72.43,1.51.64,2.23.36,1.15.65,2.23.94,3v39.53ZM285.7,80.5h1.58v20.08a1.14,1.14,0,0,0-.94-.14c-.21.07-.43.65-.43,1,0,.21.29.43.51.79a10.27,10.27,0,0,1,.86,1.73v1.51c-.14-.14-.29-.58-.65-1.15-.14-.22-.43-.79-.72-1.23-.07,0-.14-.07-.21-.07V80.5Zm1.58,29.59v1.08a.61.61,0,0,0-.22.43,5.63,5.63,0,0,0,.22,1.51V116a1.41,1.41,0,0,1-.29-.36,7,7,0,0,1-.36-1.22.39.39,0,0,0-.21-.36c-.15-.07-.15,0-.29-.07s-.29.14-.43.21v-7a5.39,5.39,0,0,0,.64,2.45,1.29,1.29,0,0,0,.72.43h.22Zm0,6.12v2.3a5.89,5.89,0,0,1-1,.15h-.57v-2A3.68,3.68,0,0,0,287.28,116.21Zm-1.58,51.62a45.09,45.09,0,0,1-14.55-33.05V80.5H285.7V103h-.29c-.22.07-.22.87-.22,1.23,0,.14.29,1.87.36,2.3.07.22.07.36.15.65v7a9.79,9.79,0,0,0-.8.72c-.5.43-.93.79-1.08.94l-.07.43c.07.36.22.65.58.65a6.31,6.31,0,0,0,1.22-.22h.15v2c-.65,0-1.23-.08-1.59.43a2.35,2.35,0,0,0,0,.72c.07.5.51,1.15.72,1.94s.51,1.73.87,2.74Z"/>
      <path class="cls-2" d="M97.2,180.64a46.13,46.13,0,0,1-46.14-46V80h92.28v54.64A46.13,46.13,0,0,1,97.2,180.64ZM55.07,84v50.63a42.13,42.13,0,0,0,84.26,0V84Z"/>
      <polygon class="cls-1" points="1.94 0 29.52 0 29.52 13.75 15.77 13.75 15.77 27.58 1.94 27.58 1.94 0"/>
      <polygon class="cls-1" points="1.94 468.5 29.52 468.5 29.52 454.75 15.77 454.75 15.77 440.93 1.94 440.93 1.94 468.5"/>
      <rect class="cls-2" x="15.77" y="27.58" width="13.75" height="27.58"/>
      <rect class="cls-2" x="1.94" y="55.15" width="13.82" height="27.5"/>
      <rect class="cls-2" x="15.77" y="82.66" width="13.75" height="27.58"/>
      <rect class="cls-2" x="1.94" y="110.23" width="13.82" height="27.58"/>
      <rect class="cls-2" x="15.77" y="137.81" width="13.75" height="27.58"/>
      <rect class="cls-2" x="1.94" y="165.38" width="13.82" height="27.58"/>
      <rect class="cls-2" x="15.77" y="192.96" width="13.75" height="27.58"/>
      <rect class="cls-2" x="1.94" y="220.54" width="13.82" height="27.43"/>
      <rect class="cls-2" x="15.77" y="247.97" width="13.75" height="27.58"/>
      <rect class="cls-2" x="1.94" y="275.54" width="13.82" height="27.58"/>
      <rect class="cls-2" x="15.77" y="303.12" width="13.75" height="27.58"/>
      <rect class="cls-2" x="1.94" y="330.7" width="13.82" height="27.58"/>
      <rect class="cls-2" x="15.77" y="358.27" width="13.75" height="27.5"/>
      <rect class="cls-2" x="1.94" y="385.78" width="13.82" height="27.58"/>
      <rect class="cls-2" x="15.77" y="413.35" width="13.75" height="27.58"/>
      <polygon class="cls-1" points="415.3 0 415.3 27.58 401.54 27.58 401.54 13.75 387.79 13.75 387.79 0 415.3 0"/>
      <rect class="cls-2" x="29.52" y="13.75" width="27.58" height="13.82"/>
      <rect class="cls-2" x="57.1" width="27.58" height="13.75"/>
      <rect class="cls-2" x="84.67" y="13.75" width="27.58" height="13.82"/>
      <rect class="cls-2" x="112.25" width="27.5" height="13.75"/>
      <rect class="cls-2" x="139.75" y="13.75" width="27.58" height="13.82"/>
      <rect class="cls-2" x="167.33" width="27.58" height="13.75"/>
      <rect class="cls-2" x="194.9" y="13.75" width="27.5" height="13.82"/>
      <rect class="cls-2" x="222.41" width="27.58" height="13.75"/>
      <rect class="cls-2" x="249.98" y="13.75" width="27.5" height="13.82"/>
      <rect class="cls-2" x="277.49" width="27.58" height="13.75"/>
      <rect class="cls-2" x="305.06" y="13.75" width="27.58" height="13.82"/>
      <rect class="cls-2" x="332.64" width="27.58" height="13.75"/>
      <rect class="cls-2" x="360.22" y="13.75" width="27.58" height="13.82"/>
      <polygon class="cls-1" points="415.3 468.5 387.79 468.5 387.79 454.75 401.54 454.75 401.54 440.93 415.3 440.93 415.3 468.5"/>
      <rect class="cls-2" x="387.79" y="413.35" width="13.75" height="27.58"/>
      <rect class="cls-2" x="401.54" y="385.78" width="13.75" height="27.58"/>
      <rect class="cls-2" x="387.79" y="358.27" width="13.75" height="27.5"/>
      <rect class="cls-2" x="401.54" y="330.7" width="13.75" height="27.58"/>
      <rect class="cls-2" x="387.79" y="303.12" width="13.75" height="27.58"/>
      <rect class="cls-2" x="401.54" y="275.54" width="13.75" height="27.58"/>
      <rect class="cls-2" x="387.79" y="247.97" width="13.75" height="27.58"/>
      <rect class="cls-2" x="401.54" y="220.54" width="13.75" height="27.43"/>
      <rect class="cls-2" x="387.79" y="192.96" width="13.75" height="27.58"/>
      <rect class="cls-2" x="401.54" y="165.38" width="13.75" height="27.58"/>
      <rect class="cls-2" x="387.79" y="137.81" width="13.75" height="27.58"/>
      <rect class="cls-2" x="401.54" y="110.23" width="13.75" height="27.58"/>
      <rect class="cls-2" x="387.79" y="82.73" width="13.75" height="27.5"/>
      <rect class="cls-2" x="401.54" y="55.15" width="13.75" height="27.58"/>
      <rect class="cls-2" x="387.79" y="27.58" width="13.75" height="27.58"/>
      <rect class="cls-2" x="360.22" y="440.93" width="27.58" height="13.82"/>
      <rect class="cls-2" x="332.64" y="454.75" width="27.58" height="13.75"/>
      <rect class="cls-2" x="305.06" y="440.93" width="27.58" height="13.82"/>
      <rect class="cls-2" x="277.49" y="454.75" width="27.58" height="13.75"/>
      <rect class="cls-2" x="249.98" y="440.93" width="27.5" height="13.82"/>
      <rect class="cls-2" x="222.41" y="454.75" width="27.58" height="13.75"/>
      <rect class="cls-2" x="194.9" y="440.93" width="27.5" height="13.82"/>
      <rect class="cls-2" x="167.33" y="454.75" width="27.58" height="13.75"/>
      <rect class="cls-2" x="139.75" y="440.93" width="27.58" height="13.82"/>
      <rect class="cls-2" x="112.25" y="454.75" width="27.5" height="13.75"/>
      <rect class="cls-2" x="84.67" y="440.93" width="27.58" height="13.82"/>
      <rect class="cls-2" x="57.1" y="454.75" width="27.58" height="13.75"/>
      <rect class="cls-2" x="29.52" y="440.93" width="27.58" height="13.82"/>
      <rect class="cls-2" x="387.79" y="358.27" width="13.75" height="27.5"/>
      <path class="cls-1" d="M51.91,424.08H77.47V400.25h0a12.78,12.78,0,0,0-25.56,0Z"/>
      <path class="cls-1" d="M46.51,368.78H61.2V349.42h0a7.35,7.35,0,1,0-14.69,0Z"/>
      <path class="cls-1" d="M68.18,368.78H82.8V349.42h0a7.31,7.31,0,1,0-14.62,0Z"/>
      <path class="cls-1" d="M46.51,309H61.2V289.51h0a7.35,7.35,0,0,0-14.69.07Z"/>
      <path class="cls-1" d="M68.18,309H82.8V289.51h0a7.31,7.31,0,0,0-14.62.07Z"/>
      <path class="cls-1" d="M160.49,300.1l4.46,1.44V284.4h0c0-3.6-1-6.77-2.23-7.2s-2.23,2.16-2.23,5.76Z"/>
      <path class="cls-1" d="M126.65,300.1l-4.47,1.44V284.4h0c0-3.6,1-6.77,2.24-7.2s2.23,2.16,2.23,5.76Z"/>
      <path class="cls-1" d="M137.88,349.92h12.67V332.71h0a6.34,6.34,0,1,0-12.67,0Z"/>
      <path class="cls-1" d="M160.49,351.72l4.46,1.51V336h0c0-3.52-1-6.76-2.23-7.2s-2.23,2.24-2.23,5.76Z"/>
      <path class="cls-1" d="M126.65,351.72l-4.47,1.51V336h0c0-3.52,1-6.76,2.24-7.2s2.23,2.24,2.23,5.76Z"/>
      <path class="cls-1" d="M137.45,423.5H151V402.84h0c0-4.25-3-7.7-6.76-7.7s-6.77,3.45-6.77,7.77Z"/>
      <path class="cls-1" d="M137.88,298.22h12.67V281.09h0a6.38,6.38,0,0,0-6.33-6.48,6.47,6.47,0,0,0-6.34,6.48Z"/>
      <path class="cls-1" d="M364.9,424.08H339.34V400.25h0a12.78,12.78,0,0,1,25.56,0Z"/>
      <path class="cls-1" d="M370.3,368.78H355.61V349.42h0a7.35,7.35,0,1,1,14.69,0Z"/>
      <path class="cls-1" d="M348.62,368.78H334V349.42h0a7.31,7.31,0,1,1,14.61,0Z"/>
      <path class="cls-1" d="M370.3,309H355.61V289.51h0a7.35,7.35,0,0,1,14.69.07Z"/>
      <path class="cls-1" d="M348.62,309H334V289.51h0a7.3,7.3,0,0,1,7.27-7.27,7.37,7.37,0,0,1,7.34,7.34Z"/>
      <path class="cls-1" d="M256.25,300.1l-4.39,1.44V284.4h0c0-3.6,1-6.77,2.16-7.2s2.23,2.16,2.23,5.76Z"/>
      <path class="cls-1" d="M290.16,300.1l4.46,1.44V284.4h0c-.07-3.6-1-6.77-2.23-7.2s-2.23,2.16-2.23,5.76Z"/>
      <path class="cls-1" d="M278.93,349.92H266.26V332.71h0a6.34,6.34,0,1,1,12.67,0Z"/>
      <path class="cls-1" d="M256.25,351.72l-4.39,1.51V336h0c0-3.52,1-6.76,2.16-7.2s2.23,2.24,2.23,5.76Z"/>
      <path class="cls-1" d="M290.16,351.72l4.46,1.51V336h0c-.07-3.52-1-6.76-2.23-7.2s-2.23,2.24-2.23,5.76Z"/>
      <path class="cls-1" d="M279.36,423.5H265.82V402.84h0c0-4.25,3-7.7,6.77-7.7s6.77,3.45,6.77,7.77Z"/>
      <path class="cls-1" d="M278.93,298.22H266.26V281.09h0a6.37,6.37,0,0,1,6.33-6.48,6.47,6.47,0,0,1,6.34,6.48Z"/>
      <path class="cls-2" d="M250,213.75H166.88l-6.37-6.37v-10.3h95.94v10.07Zm-80.58-6h78.06l3-3.05v-1.6H166.52v1.8Z"/>
      <path class="cls-2" d="M92.66,316.3h26.21v4.24H92.66V316.3Zm27,4.1-.79.14v-2.08l.79,1.94Zm-1.51-4,12.82-5,1.51,4-12.82,5-1.51-4Zm12.82-5,.79-.14v2.16l-.79-2Zm.79-.14h25.56v4.25H131.76v-4.25Zm25.56,0,.79.14-.79,2v-2.16Zm.79.14,12.17,5-1.58,4-12.17-5,1.58-4Zm11.38,9.07-.79-.14.79-1.94v2.08Zm0-4.24h76v4.24h-76V316.3Zm-76.61-7.92,22.39-.08v4.32H92.88v-4.24Zm23,4.1-.65.14v-2.16l.65,2Zm-1.22-4,16.41-5,1.23,4-16.42,5-1.22-4Zm16.41-5,.65-.07v2.09l-.65-2Zm.65-.07h25.56v4.25H131.76v-4.25Zm25.56,0,.65.07-.65,2v-2.09Zm.65.07,15.48,5-1.3,4-15.48-5,1.3-4Zm14.83,9.14-.65-.14.65-2v2.16Zm0-4.32h72.94v4.32H172.8Z"/>
      <path class="cls-2" d="M102.65,442.42h-77l10.2-15.3,57.75.15Zm-65.78-6H92l-1.87-3.14-51.12-.13Z"/>
      <rect class="cls-2" x="52.58" y="235.51" width="6.01" height="12.6"/>
      <rect class="cls-2" x="70.58" y="235.51" width="6.01" height="12.6"/>
      <path class="cls-2" d="M93.17,296.86V279.65h4.32v17.21Zm0-17.21v-3.17l3,1.22-.79,1.95Zm3-1.95,8.64,3.53-1.58,3.89-8.64-3.46,1.58-4Zm8.57,7.49-1.51-.07.79-1.94.72,2Zm-1.51-4,8.92-3.53,1.59,4-9,3.53-1.51-4Zm8.92-3.53,3-1.15v3.1H112.9l-.8-1.95Zm3,1.95V297h-4.32V279.65Z"/>
      <polygon class="cls-2" points="95.78 267.82 33.46 267.82 28.24 262.61 28.24 253.82 38.3 253.82 38.3 259.83 34.25 259.83 34.25 260.12 35.95 261.81 93.29 261.81 95.13 259.97 95.13 259.83 91.94 259.83 91.94 253.82 101.14 253.82 101.14 262.46 95.78 267.82"/>
      <path class="cls-2" d="M39.89,265.32v62.5H35.64v-62.5Zm49.53,62.5v-62.5h4.32v62.5Z"/>
      <path class="cls-2" d="M39.89,335.66v94.47H35.64V335.66Zm49.53,94.47V335.66h4.32v94.47Z"/>
      <path class="cls-2" d="M175.54,364.25l-3.32,8-4-1.66,3.39-8,3.89,1.66Zm-3.32,8-.86,1.94-1.87-.79.79-2,1.94.86Zm-2.73,1.15-13-5.25,1.58-4,13,5.25-1.58,4ZM157.32,364l.79.15-.79,2V364Zm0,4.25H131.76V364h25.56v4.25ZM131,364.18l.79-.15v2.16l-.79-2Zm1.51,4-15.34,6-1.51-4,15.34-6,1.51,4Zm-15.34,6-1.87.72-.86-1.87,1.94-.86.79,2ZM114.41,373l-3.6-8,3.89-1.73,3.6,8L114.41,373Zm-3.6-8-1-2.16,2.3-.72.65,2-1.94.87Zm1.29-2.88,19-5.91,1.23,4-18.94,6-1.3-4.1Zm19-5.91.65-.14v2.16l-.65-2Zm.65-.14h25.56v4.25H131.76V356Zm25.56,0,.65.14-.65,2V356Zm.65.14,16.27,5.26-1.3,4-16.27-5.25,1.3-4Zm16.27,5.26,2.16.65-.86,2.16-1.95-.79Z"/>
      <polygon class="cls-2" points="173.29 361.8 167.27 361.8 167.27 322.12 174.72 309.05 179.95 312.02 173.29 323.72 173.29 361.8"/>
      <polygon class="cls-2" points="119.79 361.8 113.78 361.8 113.78 323.72 107.12 312.02 112.34 309.05 119.79 322.12 119.79 361.8"/>
      <path class="cls-2" d="M114.7,269.14,131,262.87l1.51,4-16.27,6.27-1.51-4ZM131,262.87l.79-.14v2.09l-.79-1.95Zm.79-.14h25.56V267H131.76v-4.25Zm25.56,0,.86.14-.86,1.95v-2.09Zm.86.14L172.8,269l-1.66,4-14.61-6.12,1.65-4Zm-47-1.8,19.94-6.26,1.23,4.1-19.88,6.27-1.29-4.11Zm19.94-6.26.65-.07v2.08l-.65-2Zm.65-.07h25.56V259H131.76v-4.24Zm25.56,0,.72.07-.72,2v-2.08Zm.72.07L176,260.93l-1.37,4-17.93-6.12Z"/>
      <polygon class="cls-2" points="173.29 309.74 167.27 309.74 167.27 273.45 174.72 260.38 179.95 263.35 173.29 275.05 173.29 309.74"/>
      <polygon class="cls-2" points="119.79 310.03 113.78 310.03 113.78 275.05 107.12 263.35 112.34 260.38 119.79 273.45 119.79 310.03"/>
      <path class="cls-2" d="M176.9,429.7,172,422.5l-3.53,2.44,4.9,7.13,3.52-2.37Zm-5.61-4.11-1.73.94-1.08-1.59,1.8-1.22,1,1.87Zm-2.09-3.74L156.31,429l2,3.74,13-7.13-2.09-3.74ZM156.31,429l1-.22v2.09l-1-1.87Zm1-.22H131.76V433h25.56v-4.25Zm-25.56,0,.94.22-.94,1.87v-2.09Zm.94.22-15.41-7.85-1.87,3.81,15.33,7.85L132.7,429Zm-14.62-4.76L117,425.74l-1.58-.8.93-1.94,1.73,1.22Zm-3.46-2.44-5,7.05,3.46,2.45,5-7.06-3.46-2.44Zm-2.44,6.33,2.44,1L113,431.28l-1.73-1.22.87-1.95ZM110.52,432l20.38,8.78,1.65-3.88-20.37-8.79L110.52,432Zm21.24,4.68.79.22-.79,1.94v-2.16Zm0,4.25h25.56v-4.25H131.76v4.25Zm24.7-4,.86-.22v2.16l-.86-1.94Zm1.72,3.88L176,432.86,174.31,429l-17.85,7.92,1.72,3.88Zm15.2-8.71L171.94,430l2.37-1,.87,1.94Z"/>
      <rect class="cls-2" x="168.12" y="371.52" width="4.25" height="52.27"/>
      <rect class="cls-2" x="114.62" y="371.52" width="4.25" height="52.27"/>
      <path class="cls-2" d="M95.78,338.45H33.46l-5.22-5.21v-8.79h72.9v8.64Zm-59.83-6H93.29l1.84-1.84v-.14H34.25v.29Z"/>
      <path class="cls-2" d="M89.42,256.82V235.3h4.32v21.52Zm1.37-23.47,2.95-1.15v3.1H91.58l-.79-2Zm1.59,4-9.15,3.6L81.65,237l9.14-3.67,1.59,4Zm-9.15,3.6H81.65l.79-1.94.79,1.94Zm-1.58,0-8.86-3.6,1.59-4L83.23,237l-1.58,3.89Zm-8.86-7.56h1.59l-.8,2-.79-2Zm1.59,4-9.08,3.6L63.72,237l9.07-3.67,1.59,4Zm-9.08,3.6H63.65l.86-1.94.79,1.94Zm-1.65,0-8.86-3.67,1.59-3.89L65.3,237l-1.65,3.89Zm-8.86-7.56h1.59l-.8,2-.79-2Zm1.59,4L47.3,240.7l-1.58-3.82,9.07-3.53,1.59,4ZM47.3,240.7H45.72l.79-1.88.79,1.88Zm-1.58,0L37,237.31l1.58-4,8.71,3.53-1.58,3.82Zm-10.08-5.4v-3.1l3,1.15-.79,2Zm4.25,0v21.52H35.64V235.3ZM37.8,259H35.64v-2.16H37.8V259Zm0-4.24H91.58V259H37.8v-4.24Zm55.94,2.08V259H91.58v-2.16Z"/>
      <path class="cls-2" d="M140.83,232.49l9.22,7.85,2.81-3.17-9.22-7.85-2.81,3.17Zm9.51,4.46,1.36-.79,1.16,1-1.44,1.58-1.08-1.8Zm2.16,3.6,5.18-3-2.16-3.67-5.18,3,2.16,3.6Zm5.18-3-1.51.86-1.23-1.29,1.66-1.44,1.08,1.87Zm-2.74-.43,7.64,8.49,3.16-2.8-7.56-8.5-3.24,2.81Zm8.43,5.11,1.44-.5.93,1.08-1.58,1.36-.79-1.94Zm1.58,4,5.76-2.23-1.51-3.89-5.83,2.16,1.58,4Zm5.76-2.23-2.88,1.08V242h2.09l.79,2Zm-2.88-2v19.3h4.25V242Z"/>
      <path class="cls-2" d="M146.23,232.56l-9.29,7.85-2.8-3.31,9.36-7.78,2.73,3.24Zm-9.29,7.85-1.15.86-1.37-.72,1.08-1.8,1.44,1.66Zm-2.52.14-5.11-3,2.16-3.67,5.19,3-2.24,3.6Zm-5.61-6.19,1.15-1.3,1.51.87-1.08,1.8-1.58-1.37Zm3.17,2.81-7.56,8.49-3.24-2.8,7.63-8.5,3.17,2.81Zm-7.56,8.49-1,1.08-1.37-.5.79-2,1.59,1.44Zm-2.38.58L116.28,244l1.51-3.89,5.76,2.16-1.51,4ZM114.91,242v-3l2.88,1.15L117,242Zm4.25,0v20.16h-4.25V242Z"/>
      <rect class="cls-2" x="141.84" y="234" width="4.25" height="12.67"/>
      <rect class="cls-2" x="127.58" y="237.53" width="4.25" height="11.45"/>
      <rect class="cls-2" x="128.11" y="248.18" width="6.01" height="8.5"/>
      <rect class="cls-2" x="155.16" y="237.53" width="4.25" height="11.45"/>
      <rect class="cls-2" x="152.87" y="248.18" width="6.01" height="8.5"/>
      <rect class="cls-2" x="129.02" y="266.69" width="4.25" height="38.16"/>
      <rect class="cls-2" x="153.72" y="266.69" width="4.25" height="38.16"/>
      <rect class="cls-2" x="129.02" y="314.28" width="4.25" height="44.21"/>
      <rect class="cls-2" x="153.72" y="314.28" width="4.25" height="44.21"/>
      <rect class="cls-2" x="129.02" y="366.7" width="4.25" height="64.08"/>
      <rect class="cls-2" x="153.72" y="366.7" width="4.25" height="64.08"/>
      <rect class="cls-2" x="106.56" y="319.61" width="4.25" height="19.51"/>
      <rect class="cls-2" x="105.12" y="356.54" width="4.25" height="19.44"/>
      <rect class="cls-2" x="99.43" y="338.18" width="4.25" height="19.51"/>
      <rect class="cls-2" x="98.93" y="374.4" width="4.25" height="19.51"/>
      <rect class="cls-2" x="105.91" y="392.04" width="4.25" height="19.51"/>
      <rect class="cls-2" x="98.5" y="410.26" width="4.25" height="19.44"/>
      <rect class="cls-2" x="93.46" y="408.31" width="21.67" height="4.25"/>
      <rect class="cls-2" x="92.88" y="390.82" width="22.46" height="4.25"/>
      <rect class="cls-2" x="92.88" y="373.03" width="22.46" height="4.25"/>
      <rect class="cls-2" x="93.17" y="354.82" width="22.46" height="4.25"/>
      <rect class="cls-2" x="92.88" y="336.82" width="22.46" height="4.25"/>
      <rect class="cls-2" x="91.8" y="427.19" width="20.02" height="6.01"/>
      <path class="cls-2" d="M250,125.41H166.88L160.51,119v-10.3h95.94v10.07Zm-80.58-6h78.06l3-3v-1.59H166.52v1.8Z"/>
      <path class="cls-2" d="M182.66,186.05h18.72v4.25H182.66v-4.25Zm20.81,2.16v2.09h-2.09v-2.09Zm-4.17,0V139.54h4.17v48.67Zm0-48.67Zm2.08-2.16h2.09v2.16h-2.09v-2.16Zm0,4.24h0v-4.24h0Zm0,0H199.3v-2.08h2.08v2.08Zm-2.08-2.08a1.3,1.3,0,0,0-.08-.51l4.25-.29v.8Zm-.08-.51a5.25,5.25,0,0,0-.28-1.51l4.1-1.22a12.83,12.83,0,0,1,.43,2.44l-4.25.29Zm-.28-1.51a5.74,5.74,0,0,0-.58-1.37l3.67-2.09a10.66,10.66,0,0,1,1,2.24l-4.1,1.22Zm-.58-1.37a7.23,7.23,0,0,0-6.34-3.6V128.3a11.42,11.42,0,0,1,10,5.76l-3.67,2.09Zm-6.34-3.6h0V128.3h0Zm0,0a7.17,7.17,0,0,0-5.11,2.09l-2.95-3A11.56,11.56,0,0,1,192,128.3v4.25Zm-5.11,2.09a7,7,0,0,0-2.09,4.9h-4.24a11,11,0,0,1,3.38-7.92l2.95,3Zm-2.09,4.9Zm0,0v48.67h-4.24V139.54Zm-2.16,50.76h-2.08v-2.09h2.08Z"/>
      <path class="cls-2" d="M215.42,186.05h18.72v4.25H215.42v-4.25Zm20.88,2.16v2.09h-2.16v-2.09Zm-4.24,0V139.54h4.24v48.67Zm0-48.67Zm2.08-2.16h2.16v2.16h-2.16v-2.16Zm0,4.24h0v-4.24h0Zm0,0h-2.08v-2.08h2.08v2.08Zm-2.08-2.08A1.3,1.3,0,0,0,232,139l4.25-.29c0,.22.07.44.07.8ZM232,139a5.25,5.25,0,0,0-.28-1.51l4.1-1.22a12.83,12.83,0,0,1,.43,2.44L232,139Zm-.28-1.51a5.74,5.74,0,0,0-.58-1.37l3.67-2.09a10.66,10.66,0,0,1,1,2.24l-4.1,1.22Zm-.58-1.37a7.23,7.23,0,0,0-6.34-3.6V128.3a11.42,11.42,0,0,1,10,5.76l-3.67,2.09Zm-6.34-3.6h0V128.3h0Zm0,0a7.17,7.17,0,0,0-5.11,2.09l-2.95-3a11.68,11.68,0,0,1,8.06-3.32v4.25Zm-5.11,2.09a7,7,0,0,0-2.09,4.9h-4.24a11,11,0,0,1,3.38-7.92l2.95,3Zm-2.09,4.9Zm0,0v48.67h-4.24V139.54Zm-2.16,50.76h-2.08v-2.09h2.08Z"/>
      <rect class="cls-2" x="170.64" y="248.49" width="75.46" height="6.01"/>
      <rect class="cls-2" x="170.64" y="258.84" width="77.47" height="4.25"/>
      <rect class="cls-2" x="245.16" y="211.32" width="3.38" height="48.74"/>
      <rect class="cls-2" x="167.83" y="211.32" width="4.25" height="48.74"/>
      <rect class="cls-2" x="244.73" y="122.83" width="4.25" height="76.32"/>
      <rect class="cls-2" x="167.83" y="122.83" width="4.25" height="76.32"/>
      <path class="cls-2" d="M239.62,299.81v-21.6h4.24v21.6Zm1.51-23.62,2.73-.93v2.95h-2.08l-.65-2Zm1.29,4-11.37,3.68-1.3-4,11.38-3.67,1.29,4Zm-11.37,3.68h-1.37l.72-2,.65,2Zm-1.37,0-11.09-3.68,1.37-4,11.09,3.67-1.37,4Zm-11-7.71H220l-.65,2-.65-2Zm1.3,4-11.38,3.68-1.22-4,11.3-3.67,1.3,4Zm-11.38,3.68h-1.22l.58-2,.64,2Zm-1.22,0-11.09-3.68,1.3-4,11.09,3.67-1.3,4Zm-11.09-7.71h1.3l-.65,2-.65-2Zm1.3,4-11.31,3.53-1.29-4.1,11.3-3.46,1.3,4Zm-11.31,3.53H185l.65-2,.64,2Zm-1.29,0L174,280.22l1.3-4,10.94,3.53-1.29,4Zm-12.39-5.54v-2.95l2.74.93-.65,2Zm4.25,0v21.6h-4.25v-21.6Zm-2.16,23.69h-2.09v-2.09h2.09v2.09Zm0-4.25h67.11v4.25H174.67v-4.25Zm69.19,2.16v2.09h-2.08v-2.09Z"/>
      <rect class="cls-2" x="217.15" y="279.29" width="4.25" height="19.37"/>
      <rect class="cls-2" x="194.76" y="279.29" width="4.25" height="19.37"/>
      <rect class="cls-2" x="171" y="336.82" width="74.16" height="4.25"/>
      <rect class="cls-2" x="188.14" y="319.61" width="4.25" height="19.51"/>
      <rect class="cls-2" x="224.35" y="319.61" width="4.25" height="19.51"/>
      <rect class="cls-2" x="206.28" y="319.61" width="4.18" height="19.51"/>
      <path class="cls-2" d="M191.57,251h-6V239.4a22.85,22.85,0,1,1,45.69,0v11.3h-6V239.4a16.83,16.83,0,1,0-33.66,0Z"/>
      <path class="cls-2" d="M173.21,384h-6v-4a41.21,41.21,0,1,1,82.41,0v3.88h-6V380a35.19,35.19,0,1,0-70.38,0Z"/>
      <path class="cls-2" d="M234.49,424.06h-52.1V378.58a26.05,26.05,0,1,1,52.1,0Zm-46.08-6h40.06V378.58a20,20,0,1,0-40.06,0Z"/>
      <rect class="cls-2" x="174.82" y="428.04" width="66.6" height="4.25"/>
      <path class="cls-2" d="M324.14,316.3h-26.2v4.24h26.2V316.3Zm-26.2,0,.72.14-.72,2V316.3Zm.72.14-12.82-5-1.51,4,12.81,5,1.52-4Zm-13.61-.86-.72-.15.72-1.94v2.09Zm0-4.25H259.49v4.25h25.56v-4.25Zm-24.77,4.1-.79.15v-2.09l.79,1.94Zm-1.58-4-12.17,5,1.58,4,12.17-5-1.58-4Zm-12.17,5,.79-.14v2.16l-.79-2Zm.79-.14h-8.57v4.24h8.57V316.3Zm76.61-7.92-22.39-.08v4.32h22.39v-4.24Zm-22.39-.08.57.15-.57,2V308.3Zm.57.15-16.41-5-1.23,4,16.42,5,1.22-4Zm-17.06-.79-.58-.15.58-2v2.16Zm0-4.25H259.49v4.25h25.56v-4.25Zm-24.91,4.1-.65.15V305.5l.65,2Zm-1.3-4-15.48,5,1.22,4,15.56-5-1.3-4Zm-15.48,5,.65-.15v2.16l-.65-2Zm.65-.15h-5.47v4.32H244Z"/>
      <path class="cls-2" d="M391.18,442.42H314.05l9.19-15.15,57.73-.15Zm-66.45-6h55.21l-2.18-3.27-51.13.13Z"/>
      <rect class="cls-2" x="358.22" y="235.51" width="6.01" height="12.6"/>
      <rect class="cls-2" x="340.22" y="235.51" width="6.01" height="12.6"/>
      <path class="cls-2" d="M323.57,296.86V279.65h-4.25v17.21Zm-1.3-15.2-2.95,1.16v-3.17h2.16l.79,2Zm-1.58-4-8.64,3.53,1.58,3.89,8.64-3.46-1.58-4Zm-8.64,3.53h1.58l-.79,1.95-.79-1.95Zm1.58,0-8.93-3.53-1.58,4,8.93,3.53,1.58-4ZM306,279.65v3.17l-2.88-1.16.79-2Zm-4.25,0V297H306V279.65Z"/>
      <polygon class="cls-2" points="383.35 267.82 321.03 267.82 315.67 262.46 315.67 253.82 324.86 253.82 324.86 259.83 321.68 259.83 321.68 259.97 323.52 261.81 380.86 261.81 382.55 260.12 382.55 259.83 378.5 259.83 378.5 253.82 388.57 253.82 388.57 262.61 383.35 267.82"/>
      <path class="cls-2" d="M376.92,265.32v62.5h4.25v-62.5Zm-49.54,62.5v-62.5h-4.32v62.5Z"/>
      <path class="cls-2" d="M376.92,335.66v94.47h4.25V335.66Zm-49.54,94.47V335.66h-4.32v94.47Z"/>
      <path class="cls-2" d="M241.27,364.25l3.31,8,3.89-1.66-3.31-8-3.89,1.66Zm4.47,5.18,1.94-.79.79,1.94-1.94.8-.79-1.95Zm1.58,4,13-5.25-1.58-4-13,5.25,1.58,4Zm13-5.25-.79.14v-2.09l.79,1.95Zm-.79.14h25.56V364H259.49v4.25Zm25.56,0-.72-.14.72-1.95v2.09Zm-.72-.14,15.33,6,1.52-4-15.34-6-1.51,4Zm14.18,3.09.79-1.8,1.88.72-.72,2-1.95-.87ZM302.4,373l3.6-8-3.89-1.73-3.6,8L302.4,373Zm1-6.77-2.31-.72,1-2.23,1.95.86-.65,2.09Zm1.29-4.1-19-5.91-1.3,4,19,6,1.29-4.1Zm-19.65-1.8-.65-.07.65-2v2.09Zm0-4.25H259.49v4.25h25.56V356Zm-24.91,4.18-.65.07V358.2l.65,2Zm-1.3-4-16.27,5.26,1.29,4,16.28-5.25-1.3-4Zm-13.68,6.41.94,2.16-2.24.72-.64-2Z"/>
      <polygon class="cls-2" points="249.53 361.8 243.52 361.8 243.52 323.72 236.86 312.02 242.08 309.05 249.53 322.12 249.53 361.8"/>
      <polygon class="cls-2" points="303.03 361.8 297.02 361.8 297.02 322.12 304.47 309.05 309.69 312.02 303.03 323.72 303.03 361.8"/>
      <path class="cls-2" d="M302.11,269.14l-16.27-6.27-1.51,4,16.27,6.27,1.51-4ZM285.05,267l-.72-.15.72-2V267Zm0-4.25H259.49V267h25.56v-4.25Zm-24.77,4.1-.79.15v-2.16l.79,2Zm-1.66-4L244,269l1.65,4,14.62-6.12-1.66-4Zm47-1.8-19.94-6.26-1.3,4.1,19.94,6.27,1.3-4.11ZM285.05,259l-.65-.07.65-2.09V259Zm0-4.24H259.49V259h25.56v-4.24Zm-24.91,4.1-.65.14v-2.16l.65,2Zm-1.37-4-17.93,6.12,1.37,4,17.93-6.12Z"/>
      <polygon class="cls-2" points="249.53 309.74 243.52 309.74 243.52 275.05 236.86 263.35 242.08 260.38 249.53 273.45 249.53 309.74"/>
      <polygon class="cls-2" points="303.03 310.03 297.02 310.03 297.02 273.45 304.47 260.38 309.69 263.35 303.03 275.05 303.03 310.03"/>
      <path class="cls-2" d="M239.9,429.7l4.9-7.2,3.53,2.44-5,7.13-3.46-2.37Zm4.9-7.2,1.08-1.59,1.66.94-1,1.87-1.73-1.22Zm2.74-.65,13,7.13-2.09,3.74-12.89-7.13,2-3.74Zm12,11.16-1.08-.29,1.08-1.87V433Zm0-4.25h25.56V433H259.49v-4.25Zm26.57,4-1,.22v-2.16l1,1.94ZM284.11,429l15.34-7.85,1.94,3.81-15.33,7.85L284.11,429Zm15.34-7.85,1.65-.87,1.08,1.52L300.46,423l-1-1.87Zm2.73.65,5,7.05-3.45,2.45-5-7.06,3.45-2.44Zm5,7.05,1.52,2.16-2.45,1-.79-1.94,1.72-1.23Zm-.93,3.17-20.38,8.78-1.65-3.88,20.37-8.79,1.66,3.89Zm-20.38,8.78-.86.15v-2.09l.86,1.94Zm-.86.15H259.49v-4.25h25.56v4.25Zm-25.56,0-.87-.15.87-1.94v2.09Zm-.87-.15-17.85-7.92L242.5,429l17.85,7.92-1.73,3.88Zm-17.85-7.92-2.31-1.08,1.44-2.08,1.73,1.22Z"/>
      <rect class="cls-2" x="244.44" y="371.52" width="4.25" height="52.27"/>
      <rect class="cls-2" x="297.86" y="371.52" width="4.32" height="52.27"/>
      <path class="cls-2" d="M383.35,338.45H321l-5.36-5.36v-8.64h72.9v8.79Zm-59.83-6h57.34l1.69-1.69v-.29H321.68v.14Z"/>
      <path class="cls-2" d="M327.38,256.82V235.3h-4.32v21.52Zm0-21.52v3.16l-2.95-1.15.79-2Zm-2.95,2,9.15,3.6,1.58-3.89L326,233.35l-1.59,4Zm9.07-.29h1.66l-.79,1.95L333.5,237Zm1.66,3.89,8.86-3.6-1.59-4L333.5,237l1.66,3.89Zm8.86-3.6h-1.59l.79-1.94.8,1.94Zm-1.59,0,9.07,3.6,1.59-3.89L344,233.35l-1.59,4Zm9.07-.29h1.59L352.3,239l-.8-1.95Zm1.59,3.89,8.93-3.67-1.59-3.89L351.5,237l1.59,3.89Zm8.93-3.67-1.59.07.79-2,.8,1.94Zm-1.59.07,9.07,3.39,1.59-3.82L362,233.35l-1.59,4Zm9.07-.43h1.59l-.79,1.94-.8-1.94Zm1.59,3.82,8.71-3.39-1.58-4-8.72,3.53,1.59,3.82Zm8.71-3.39-2.88,1.15V235.3H379l.79,2Zm-2.88-2v21.52h4.25V235.3Zm0,21.52v-2.08H379v2.08Zm2.09-2.08H325.22V259H379v-4.24Zm-53.79,0h2.16v2.08h-2.16Z"/>
      <path class="cls-2" d="M276,232.49l-9.22,7.85L264,237.17l9.22-7.85,2.81,3.17Zm-9.22,7.85-1.15.93-1.37-.72,1.15-1.8,1.37,1.59Zm-2.52.21-5.11-3,2.16-3.67,5.18,3-2.23,3.6Zm-5.62-6.19,1.16-1.3,1.51.87-1.08,1.8-1.59-1.37Zm3.17,2.81-7.56,8.49-3.24-2.8,7.63-8.5,3.17,2.81Zm-7.56,8.49-1,1.08-1.36-.5.79-2,1.58,1.44Zm-2.37.58L246.1,244l1.51-3.89,5.76,2.16-1.51,4ZM244.73,242v-3l2.88,1.15-.79,1.87Zm4.25,0v19.3h-4.25V242Z"/>
      <path class="cls-2" d="M270.58,232.56l9.28,7.85,2.81-3.31-9.36-7.78-2.73,3.24Zm9.57,4.39,1.37-.79,1.15.94-1.44,1.65-1.08-1.8Zm2.16,3.6,5.19-3-2.16-3.67-5.19,3,2.16,3.6Zm5.19-3-1.52.86-1.22-1.29,1.66-1.44,1.08,1.87Zm-2.74-.43,7.63,8.49,3.17-2.8-7.56-8.5-3.24,2.81Zm8.42,5.11,1.44-.5.94,1.08L294,244.22l-.8-1.94Zm1.59,4,5.76-2.23L299,240.12l-5.84,2.16,1.59,4Zm5.76-2.23-2.88,1.08V242h2.09l.79,2Zm-2.88-2v20.16h4.25V242Z"/>
      <rect class="cls-2" x="270.72" y="234" width="4.25" height="12.67"/>
      <rect class="cls-2" x="284.98" y="237.53" width="4.25" height="11.45"/>
      <rect class="cls-2" x="282.69" y="248.18" width="6.01" height="8.5"/>
      <rect class="cls-2" x="257.4" y="237.53" width="4.25" height="11.45"/>
      <rect class="cls-2" x="257.92" y="248.18" width="6.01" height="8.5"/>
      <rect class="cls-2" x="283.54" y="266.69" width="4.25" height="38.16"/>
      <rect class="cls-2" x="258.84" y="266.69" width="4.25" height="38.16"/>
      <rect class="cls-2" x="283.54" y="314.28" width="4.25" height="44.21"/>
      <rect class="cls-2" x="258.84" y="314.28" width="4.25" height="44.21"/>
      <rect class="cls-2" x="283.54" y="366.7" width="4.25" height="64.08"/>
      <rect class="cls-2" x="258.84" y="366.7" width="4.25" height="64.08"/>
      <rect class="cls-2" x="305.93" y="319.61" width="4.32" height="19.51"/>
      <rect class="cls-2" x="307.44" y="356.54" width="4.25" height="19.44"/>
      <rect class="cls-2" x="313.13" y="338.18" width="4.25" height="19.51"/>
      <rect class="cls-2" x="313.63" y="374.4" width="4.25" height="19.51"/>
      <rect class="cls-2" x="306.65" y="392.04" width="4.25" height="19.51"/>
      <rect class="cls-2" x="314.06" y="410.26" width="4.25" height="19.44"/>
      <rect class="cls-2" x="301.68" y="408.31" width="21.67" height="4.25"/>
      <rect class="cls-2" x="301.39" y="390.82" width="22.54" height="4.25"/>
      <rect class="cls-2" x="301.39" y="373.03" width="22.54" height="4.25"/>
      <rect class="cls-2" x="301.18" y="354.82" width="22.46" height="4.25"/>
      <rect class="cls-2" x="301.39" y="336.82" width="22.54" height="4.25"/>
      <rect class="cls-2" x="304.92" y="427.19" width="20.02" height="6.01"/>
      <path class="cls-2" d="M162.52,114.54h-.36l.11-6c3.18.07,5.89-1,6.5-2.61l.54-1.37C174.29,92,181.8,73,200.9,60.07v-17h29.55v19h-16v-6h10v-7H206.91V61a5.19,5.19,0,0,1-2.6,4c-17.59,11.91-24.7,29.86-29.41,41.74l-.53,1.34C172.85,112,168.22,114.54,162.52,114.54Z"/>
      <path class="cls-2" d="M255.23,114.54c-5.71,0-10.34-2.52-11.87-6.46l-.52-1.32C238.14,94.88,231,76.93,213.44,65c-1.34-.83-2.73-2.38-2.61-4.2V46.22h6V60.07C236,73,243.46,92,248.43,104.54l.53,1.34c.62,1.6,3.37,2.7,6.51,2.64l.11,6Z"/>
      <rect class="cls-2" x="54.5" y="83.3" width="17.06" height="19.01"/>
      <rect class="cls-2" x="88.7" y="83.3" width="17.14" height="19.01"/>
      <rect class="cls-2" x="122.9" y="83.3" width="17.14" height="19.01"/>
      <rect class="cls-2" x="71.64" y="102.24" width="17.06" height="19.01"/>
      <rect class="cls-2" x="105.84" y="102.24" width="17.06" height="19.01"/>
      <rect class="cls-2" x="54.5" y="121.32" width="17.06" height="18.94"/>
      <rect class="cls-2" x="88.7" y="121.32" width="17.14" height="18.94"/>
      <rect class="cls-2" x="122.9" y="121.32" width="17.14" height="18.94"/>
      <rect class="cls-2" x="71.64" y="140.26" width="17.06" height="19.01"/>
      <rect class="cls-2" x="105.84" y="140.26" width="17.06" height="19.01"/>
      <rect class="cls-2" x="88.7" y="159.26" width="17.14" height="18.94"/>
      <path class="cls-1" d="M71.57,171.14a46.14,46.14,0,0,1-11.52-11.88H71.57Z"/>
      <path class="cls-1" d="M122.9,171.14a45.48,45.48,0,0,0,11.6-11.88H122.9Z"/>
      <path class="cls-1" d="M25.7,529.06v-5.91h21V541.8a36.25,36.25,0,0,1-9.94,5.83,28.44,28.44,0,0,1-10.58,2,27.24,27.24,0,0,1-13-3,22.09,22.09,0,0,1-9-8.85,27.15,27.15,0,0,1-3.32-13.9,29.21,29.21,0,0,1,3.32-14.33,21.67,21.67,0,0,1,8.78-9,26.48,26.48,0,0,1,12.74-2.88,24.44,24.44,0,0,1,9.51,1.66,17,17,0,0,1,6.69,4.75,19.84,19.84,0,0,1,4,8.5L40,514.22a17.68,17.68,0,0,0-3-6.4,12.63,12.63,0,0,0-4.83-3.32,17.52,17.52,0,0,0-6.62-1.15,18.85,18.85,0,0,0-9.29,2.16A15.49,15.49,0,0,0,10,512.28a24.15,24.15,0,0,0-2.38,11.23c0,6.7,1.66,11.74,5,15.12s7.78,5,13.18,5a22.35,22.35,0,0,0,7.92-1.51,19.81,19.81,0,0,0,6.48-3.67v-9.36Z"/>
      <path class="cls-1" d="M75.89,498.46h2.23c4.61,0,8,.5,10.15,1.44a12,12,0,0,1,5.4,4.68,13.9,13.9,0,0,1,2.09,7.63,12.45,12.45,0,0,1-3.53,9.21c-2.37,2.31-5.83,3.82-10.37,4.47A17.23,17.23,0,0,1,86,528.7a35,35,0,0,1,5.18,6.4l8.64,13.68H91.58L85,538.27c-2.59-4-4.46-6.84-5.83-8.21a10.52,10.52,0,0,0-3.31-2.66v-6.7h.93a21.34,21.34,0,0,0,7-.93,8.25,8.25,0,0,0,3.81-2.95A7.72,7.72,0,0,0,89,512.21a7.24,7.24,0,0,0-2.66-6c-1.8-1.44-4.39-2.16-7.92-2.16H75.89ZM56.16,548.78V498.46H75.89v5.61H62.71V520.7H75.89v6.7l-.43-.22a14.17,14.17,0,0,0-5.12-.72H62.71v22.32Z"/>
      <path class="cls-1" d="M123.41,498.46h3.38l20.31,50.32h-7.56l-5.76-15.26H123.41v-5.4h8.35l-5.11-13.9q-2.16-5.72-3.24-9.5Zm-22.68,50.32,19-50.32h3.67v6.26c-.07-.36-.22-.65-.29-.94a65.93,65.93,0,0,1-2.66,9.58L115,528.12h8.43v5.4h-10.3l-5.47,15.26Z"/>
      <path class="cls-1" d="M172.51,498.53a31.17,31.17,0,0,1,6.34.86,16.9,16.9,0,0,1,7.49,4.39,21.22,21.22,0,0,1,5,8.07,34,34,0,0,1,1.8,11.52,31.56,31.56,0,0,1-3,14.47,18.84,18.84,0,0,1-7.7,8.42,24.14,24.14,0,0,1-9.87,2.45v-6a17.68,17.68,0,0,0,6.41-1.66,11.2,11.2,0,0,0,5-5.54,28.86,28.86,0,0,0,2.38-12.24c0-5.12-.87-9.15-2.52-12a12.2,12.2,0,0,0-6.41-5.83,15.77,15.77,0,0,0-4.9-.94Zm-20.37,50.25V498.46H169.2c1.22,0,2.3.07,3.31.07v6c-1.08-.07-2.23-.07-3.45-.07H158.69v38.38H169.2c1.22,0,2.3,0,3.31-.07v6c-.79,0-1.65.07-2.52.07Z"/>
      <path class="cls-1" d="M228.46,532.58l6.19-.5a13.27,13.27,0,0,0,2.23,6.48,12.09,12.09,0,0,0,5,3.67,18.24,18.24,0,0,0,7.34,1.44q5.84,0,9.07-2.37a7.39,7.39,0,0,0,3.24-6.2,6.36,6.36,0,0,0-1.15-3.88,8.07,8.07,0,0,0-3.53-2.74,74.87,74.87,0,0,0-10.22-3c-4.68-1.16-8.06-2.31-10-3.46a12.5,12.5,0,0,1-4.61-4.46,11.38,11.38,0,0,1-1.65-6,12.3,12.3,0,0,1,4.75-10c3.17-2.59,7.42-3.82,12.74-3.82a24.15,24.15,0,0,1,9.72,1.8,14.9,14.9,0,0,1,6.41,5.19,15.58,15.58,0,0,1,2.45,8l-6.34.5a9.81,9.81,0,0,0-3.52-7.27c-2-1.58-4.83-2.37-8.5-2.37s-6.55.72-8.5,2.08a6.26,6.26,0,0,0-2.88,5.33,5.7,5.7,0,0,0,2.09,4.75c1.44,1.16,4.68,2.24,9.65,3.39a68.85,68.85,0,0,1,10.3,3,15.38,15.38,0,0,1,6.84,5,12.06,12.06,0,0,1,2.3,7.49,14,14,0,0,1-2.38,7.92,15.71,15.71,0,0,1-6.62,5.33,24.1,24.1,0,0,1-10.08,1.87c-6.12,0-11-1.51-14.69-4.61S228.6,537.84,228.46,532.58Z"/>
      <path class="cls-1" d="M295.56,498.46a35,35,0,0,1,9.65,1,12.94,12.94,0,0,1,6.84,4.83,14.77,14.77,0,0,1,2.52,8.64c0,4.53-1.37,8.28-4.18,11.09s-7.56,4.32-14.33,4.32h-.5v-6h.58c4,0,7-.72,8.85-2.23s2.81-3.82,2.81-6.91a9.19,9.19,0,0,0-1.37-5.12,7.41,7.41,0,0,0-3.31-2.88c-1.3-.57-3.67-.79-7.06-.79h-.5Zm-18.72,50.32V498.46h18.72v6H283.39v17.93h12.17v6H283.39v20.44Z"/>
      <polygon class="cls-1" points="322.56 548.78 322.56 498.46 329.04 498.46 329.04 542.81 353.45 542.81 353.45 548.78 322.56 548.78"/>
      <rect class="cls-2" x="362.66" y="498.46" width="6.55" height="50.33"/>
      <polygon class="cls-1" points="393.34 548.78 393.34 504.43 376.99 504.43 376.99 498.46 416.3 498.46 416.3 504.43 399.89 504.43 399.89 548.78 393.34 548.78"/>
      <path class="cls-2" d="M24.84,529.06v-5.91H26.5v5.91Zm0-5.91v-1h.86v1Zm.86-1h21v2l-21,.07v-2Zm21,0h.86v1h-.86v-1Zm.86,1V541.8H45.86V523.15Zm0,18.65v.5l-.43.29-.43-.79Zm-.43.79h0l-.87-1.65h0l.87,1.65Zm-.87-1.65h0l.44.86-.44-.86Zm.87,1.65c-.43.36-.87.72-1.37,1.08L44.86,542c.43-.36.86-.72,1.36-1.08l.87,1.65Zm-1.37,1.08c-.43.36-.94.72-1.37,1L43.56,543c.43-.29.86-.65,1.3-.93l.86,1.65Zm-1.37,1a33.13,33.13,0,0,1-7.41,3.89l-.51-1.87A35.68,35.68,0,0,0,43.56,543l.79,1.73Zm-7.41,3.89h0l-.22-.94Zm0,0a23.72,23.72,0,0,1-5.33,1.51l-.29-1.94a26.27,26.27,0,0,0,5.11-1.44l.51,1.87Zm-5.33,1.51a28.12,28.12,0,0,1-5.47.5v-1.94a25.33,25.33,0,0,0,5.18-.5l.29,1.94Zm-5.47.5a27.71,27.71,0,0,1-13.32-3.09l.72-1.8a26.48,26.48,0,0,0,12.6,2.95v1.94Zm-13.32-3.09a22.76,22.76,0,0,1-5.26-3.82l1.08-1.51a20.17,20.17,0,0,0,4.9,3.53l-.72,1.8Zm-5.26-3.82a23.24,23.24,0,0,1-4.1-5.33l1.36-1.08a25.56,25.56,0,0,0,3.82,4.9l-1.08,1.51Zm-4.1-5.33a24.65,24.65,0,0,1-2.6-6.69l1.59-.51a26.94,26.94,0,0,0,2.37,6.12l-1.36,1.08Zm-2.6-6.69A33.35,33.35,0,0,1,0,523.87H1.66a32.72,32.72,0,0,0,.79,7.27l-1.59.51ZM0,523.87Zm0,0a35.65,35.65,0,0,1,.86-8l1.66.58a30.12,30.12,0,0,0-.86,7.41Zm.86-8c.15-.43.22-.79.36-1.15l1.59.57a8.17,8.17,0,0,0-.29,1.16l-1.66-.58Zm.36-1.15A23.62,23.62,0,0,1,3.53,509l1.37,1.08a25.11,25.11,0,0,0-2.09,5.25l-1.59-.57Zm3.68-4.68h0l-.72-.51.72.51Zm-1.44-1v.07L5,510a.07.07,0,0,0-.07.07l-1.44-1Zm0,.07.07-.14.65.57-.72-.43Zm.07-.14a13.1,13.1,0,0,1,1-1.66l1.29,1.15c-.29.51-.65,1-.93,1.59L3.53,509Zm1-1.66c.36-.57.72-1.08,1.08-1.58L6.84,507a11.26,11.26,0,0,0-1,1.44l-1.29-1.15Zm1.08-1.58a20.89,20.89,0,0,1,7-6.12l.65,1.8A20.7,20.7,0,0,0,6.84,507l-1.22-1.29Zm7-6.12a24,24,0,0,1,6-2.23l.29,1.94a21.27,21.27,0,0,0-5.69,2.09l-.65-1.8Zm6-2.23a31.27,31.27,0,0,1,7.05-.72v1.94a28.85,28.85,0,0,0-6.76.72l-.29-1.94Zm7.05-.72a28.9,28.9,0,0,1,5.19.43L30.67,499a26.44,26.44,0,0,0-5-.43v-1.94Zm5.19.43a23.47,23.47,0,0,1,4.61,1.29l-.58,1.88A19.42,19.42,0,0,0,30.67,499l.22-1.94Zm4,3.17h0l.29-.94-.29.94Zm.58-1.88h.07l-.65,1.8c-.07,0,.07.08,0,.08l.58-1.88Zm-.58,1.88v-.08l.29-.86-.29.94Zm.58-1.88c.36.15.72.29,1.15.51l-.65,1.8a7.34,7.34,0,0,0-1.08-.43l.58-1.88Zm1.15.51c.43.21.79.43,1.08.57l-.72,1.8a7.36,7.36,0,0,0-1-.57l.65-1.8Zm1.08.57a18.23,18.23,0,0,1,4.75,3.89l-1.15,1.44A13.89,13.89,0,0,0,37,501.26l.72-1.8Zm4.75,3.89h0l-1.15,1.44h0Zm0,0a8.7,8.7,0,0,1,.79,1l-1.22,1.3c-.22-.29-.51-.58-.72-.87l1.15-1.44Zm.79,1c.22.36.51.72.72,1.08l-1.37,1.15c-.21-.36-.43-.65-.57-.93l1.22-1.3Zm.72,1.08a23.93,23.93,0,0,1,2.67,6.84l-1.59.58a20.93,20.93,0,0,0-2.45-6.27L44,505.44Zm2.67,6.84.28,1-.86.21-.22-.93.8-.29Zm-.58,1.22-5.9,1.66-.36-1.94,5.9-1.66.36,1.94Zm-5.9,1.66-.72.22-.22-.87.79-.29.15.94Zm-.94-.65a35.12,35.12,0,0,0-1.3-3.53l1.44-1a23.72,23.72,0,0,1,1.37,3.88l-1.51.65ZM37.94,511a13.82,13.82,0,0,0-1.51-2.44l1.15-1.44a17.36,17.36,0,0,1,1.8,2.88l-1.44,1Zm-.36-3.88h0l-.57.72.57-.72Zm-1.15,1.44a10.67,10.67,0,0,0-1.94-1.73l.79-1.73a15.82,15.82,0,0,1,2.3,2l-1.15,1.44Zm-1.94-1.73A16.08,16.08,0,0,0,32,505.44l.5-1.87a16.73,16.73,0,0,1,2.81,1.51l-.79,1.73ZM32,505.44h0l.21-.94Zm0,0a22.94,22.94,0,0,0-3-.86l.22-1.95a22.85,22.85,0,0,1,3.31.94l-.5,1.87Zm-3-.86a24.71,24.71,0,0,0-3.38-.29v-2a20.27,20.27,0,0,1,3.6.29l-.22,1.95Zm-3.38-.29a20.85,20.85,0,0,0-4.9.57l-.28-1.94a23.26,23.26,0,0,1,5.18-.58v2Zm-4.9.57a14.27,14.27,0,0,0-4,1.52l-.72-1.8a17.36,17.36,0,0,1,4.47-1.66l.28,1.94Zm-4,1.52h0l-.36-.87Zm0,0A13.27,13.27,0,0,0,13.32,509l-1.15-1.51a16.45,16.45,0,0,1,3.74-2.95l.72,1.8ZM13.32,509a16.44,16.44,0,0,0-2.66,3.74l-1.37-1a18.12,18.12,0,0,1,2.88-4.25L13.32,509Zm-4,2.74h0l.72.5-.72-.5Zm1.37,1A20.07,20.07,0,0,0,9,517.61l-1.58-.43a19.53,19.53,0,0,1,1.87-5.4l1.37,1ZM9,517.61a29.8,29.8,0,0,0-.58,5.9H6.77a28.5,28.5,0,0,1,.65-6.33l1.58.43Zm-.58,5.9a26.76,26.76,0,0,0,1.23,8.43l-1.51.72a27.1,27.1,0,0,1-1.37-9.15Zm1.23,8.43a14.62,14.62,0,0,0,3.53,5.9l-1,1.51a16.5,16.5,0,0,1-4-6.69l1.51-.72Zm2.52,7.41h0l.5-.72-.5.72Zm1-1.51a16.58,16.58,0,0,0,5.61,3.6l-.5,1.87a17.14,17.14,0,0,1-6.12-4l1-1.51Zm5.61,3.6a20,20,0,0,0,7.06,1.22v2a20.93,20.93,0,0,1-7.56-1.3l.5-1.87Zm7.06,1.22h0v2h0Zm0,0a22.33,22.33,0,0,0,3.81-.36l.22,2a25.37,25.37,0,0,1-4,.36v-2Zm3.81-.36h0l.15.94Zm0,0a3.87,3.87,0,0,1,.65-.14l.29,1.94a2.19,2.19,0,0,0-.72.15l-.22-2Zm.65-.14c1-.29,2.09-.58,3.24-1l.51,1.87a29.27,29.27,0,0,1-3.46,1.08l-.29-1.94Zm3.75.86h0l-.29-.93.29.93Zm-.51-1.87h0L34,543h.08l-.51-1.87Zm.51,1.87H34l-.21-.93.29.93Zm-.51-1.87c.36-.14.65-.29,1.08-.43l.58,1.87c-.36.15-.72.29-1.15.43l-.51-1.87Zm1.08-.43c.36-.14.72-.29,1-.43l.58,1.8c-.36.14-.72.36-1,.5l-.58-1.87Zm1-.43a18.06,18.06,0,0,0,4.1-2.67l1,1.59a19.7,19.7,0,0,1-4.53,2.88l-.58-1.8Zm5.4-1.87v.5l-.29.29-.5-.79Zm-1.66,0v-9.36H41v9.36Zm.87-10.37H41v1h-.79v-1Zm0,1.94H25.7v-1.94H40.25V530ZM25.7,530h-.86v-.93h.86Z"/>
      <path class="cls-2" d="M55.37,548.78V498.46H57v50.32Zm0-50.32v-.94h.79v.94Zm.79-.94h22v1.94h-22v-1.94Zm22,0c4.68,0,8.21.5,10.44,1.44l-.5,1.87c-2.16-.93-5.4-1.37-9.94-1.37v-1.94ZM88.56,499h0l-.29.94Zm0,0a11.16,11.16,0,0,1,3.17,2l-.94,1.58A10.09,10.09,0,0,0,88,500.83l.58-1.87Zm3.17,2a13,13,0,0,1,2.59,3L93,505.15a12.9,12.9,0,0,0-2.23-2.59l.94-1.58Zm2.59,3a12.24,12.24,0,0,1,1.73,3.82l-1.59.57A13.08,13.08,0,0,0,93,505.15l1.3-1.15Zm1.73,3.82a17,17,0,0,1,.57,4.39H95a16.23,16.23,0,0,0-.51-3.82l1.59-.57Zm.57,4.39Zm0,0a15.34,15.34,0,0,1-1,5.54l-1.52-.86a12,12,0,0,0,.87-4.68ZM94.1,517v-.07l.8.43-.8-.36Zm1.52.79a4.29,4.29,0,0,1-.36.79l-1.44-.93c.14-.29.21-.51.28-.65l1.52.79Zm-.36.79a11.28,11.28,0,0,1-2.52,3.6l-1.08-1.51a9.87,9.87,0,0,0,2.16-3l1.44.93Zm-3.6,2.09h0l.57.79-.57-.79Zm1.08,1.51h0l-1.08-1.51h0Zm0,0h0l-.51-.72Zm0,0a7.51,7.51,0,0,1-1.16,1l-.93-1.65a13,13,0,0,0,1-.87l1.08,1.51Zm-1.16,1a6.58,6.58,0,0,1-1.22.87l-.79-1.73a4.57,4.57,0,0,0,1.08-.79l.93,1.65Zm-1.22.87a21.23,21.23,0,0,1-8.42,2.88L81.72,525a21,21,0,0,0,7.85-2.66l.79,1.73Zm-8.86,2.8.22-1.87.14.94-.36.93Zm.65-1.8h0l-.65,1.8h0l.65-1.8Zm-.65,1.8h0l.36-.93-.36.93Zm.65-1.8c.29.15.58.22.79.36l-.72,1.8a3.73,3.73,0,0,0-.72-.36l.65-1.8Zm.79.36a2.68,2.68,0,0,1,.72.44l-.72,1.72a6,6,0,0,1-.72-.36l.72-1.8Zm.72.44a11.57,11.57,0,0,1,2.88,2.08l-1,1.52a13.58,13.58,0,0,0-2.6-1.88l.72-1.72Zm2.88,2.08h0l-.5.8Zm0,0h.08l-1.08,1.52h0l1-1.52Zm-1,1.52h0l.5-.72-.5.72Zm1-1.52a10.19,10.19,0,0,1,.87.87l-1.08,1.44-.79-.79,1-1.52Zm.87.87a8.82,8.82,0,0,1,.79.86l-1.15,1.44c-.22-.29-.51-.57-.72-.86l1.08-1.44Zm.79.86a30.85,30.85,0,0,1,3.67,4.9l-1.37,1.15a30.43,30.43,0,0,0-3.45-4.61l1.15-1.44Zm3.67,4.9,8.64,13.68-1.29,1.15L90.5,535.68l1.37-1.15Zm8.64,13.68,1,1.51H99.86v-.94l.65-.57Zm-.65,1.51H91.58v-1.94h8.28v1.94Zm-8.28,0h-.36l-.28-.36.64-.58v.94Zm-.64-.36-6.56-10.44,1.3-1.22,6.55,10.51-1.29,1.15Zm-6.56-10.44h0l.65-.65Zm0,0c-1.29-2-2.37-3.74-3.38-5.11l1.3-1.3c.93,1.37,2.08,3.1,3.38,5.19l-1.3,1.22ZM81,533.81a33.48,33.48,0,0,0-2.3-3l1.08-1.44a30.33,30.33,0,0,1,2.52,3.17l-1.3,1.3Zm-2.3-3-.08-.07.58-.65-.5.72Zm-.08-.07.08.07,1.08-1.51a.07.07,0,0,0,.07.07l-1.23,1.37Zm.08.07h0l.5-.72Zm0,0-.58-.57,1.08-1.51.58.57-1.08,1.51Zm-.58-.57-.5-.51,1-1.51c.22.15.36.36.58.51l-1.08,1.51Zm-.5-.51a8,8,0,0,0-2.45-1.58l.57-1.87a9.18,9.18,0,0,1,2.88,1.94l-1,1.51Zm-2-3.45h.07l-.28.93.21-.93Zm-.5,1.87h0l.5-1.87h0Zm0,0a5.5,5.5,0,0,0-.51-.22L75.1,526a4.91,4.91,0,0,1,.57.22l-.5,1.87Zm-.51-.22a1.34,1.34,0,0,1-.5-.14l.29-1.87a2.23,2.23,0,0,1,.65.14l-.44,1.87Zm-.5-.14a18.78,18.78,0,0,0-3.82-.36v-1.94a17,17,0,0,1,4.11.43l-.29,1.87Zm-3.82-.36H62.71v-1.94h7.63v1.94Zm-8.42-.94v-1h.79v1Zm1.66,0v22.32H61.92V526.46Zm0,22.32v.94h-.87v-.94Zm-.87.94H56.16v-1.94h6.55v1.94Zm-6.55,0h-.79v-.94h.79v.94Zm6.55-30H76.82v1.94H62.71V519.7Zm14.11,0h0v1.94h0Zm0,0a32.59,32.59,0,0,0,4-.22l.22,1.94a34.4,34.4,0,0,1-4.18.22V519.7Zm4-.22a1.65,1.65,0,0,1,.58-.07l.22,1.94c-.22,0-.44.07-.58.07l-.22-1.94Zm.58-.07a14.64,14.64,0,0,0,2.23-.58l.51,1.87a11.43,11.43,0,0,1-2.52.65l-.22-1.94Zm2.74,1.29h0l-.29-.93.29.93Zm-.51-1.87h0L84,520.7h.08l-.51-1.87Zm.51,1.87H84l-.21-.93.29.93Zm-.51-1.87a3.45,3.45,0,0,0,.58-.29l.65,1.88a2.9,2.9,0,0,0-.72.28l-.51-1.87Zm.58-.29a2.15,2.15,0,0,0,.57-.28l.72,1.8a2.59,2.59,0,0,0-.64.36l-.65-1.88Zm.57-.28a7.62,7.62,0,0,0,2.24-2l1.29,1.22a9.62,9.62,0,0,1-2.81,2.6l-.72-1.8Zm2.24-2v-.07l.64.65-.64-.58Zm0-.07h0l1.29,1.29h0Zm0,0h0l.64.65Zm0,0a1.65,1.65,0,0,0,.28-.43l1.37,1.08a2.59,2.59,0,0,1-.36.64L87,516.17Zm.28-.43a2,2,0,0,0,.29-.58l1.44,1a2.83,2.83,0,0,1-.36.65l-1.37-1.08Zm.29-.58a6.59,6.59,0,0,0,.65-2.95h1.66a9.07,9.07,0,0,1-.87,4l-1.44-1Zm.65-2.95a7.68,7.68,0,0,0-.58-3l1.44-.94a9.52,9.52,0,0,1,.8,3.89Zm-.58-3A7.37,7.37,0,0,0,85.9,507l.86-1.58a7.92,7.92,0,0,1,2.3,2.88l-1.44.94Zm-.86-3.82h0l-.43.79.43-.79ZM85.9,507h0l.86-1.58h0Zm0,0h-.08l.51-.79-.43.79Zm-.08,0c-.21-.14-.43-.36-.64-.5l.72-1.73a2.78,2.78,0,0,1,.86.65L85.82,507Zm-.64-.5-.87-.43.65-1.8a6.12,6.12,0,0,1,.94.5l-.72,1.73Zm-.87-.43a14,14,0,0,0-5.9-1.08v-1.95A16.15,16.15,0,0,1,85,504.29l-.65,1.8ZM78.41,505H62.71v-1.95h15.7V505Zm-16.49-.94v-1h.79v1Zm1.66,0V520.7H61.92V504.07Zm-.87,17.57h-.79v-.94h.79Z"/>
      <path class="cls-2" d="M99.94,548.35,119,498.1l1.51.79-19.08,50.25-1.51-.79ZM119,498.1l.21-.58h.51v.94l-.72-.36Zm.72-.58h7.05v1.94h-7.05v-1.94Zm7.05,0h.51l.21.58-.72.36v-.94Zm.72.58,20.31,50.25-1.52.87-20.23-50.33,1.44-.79Zm20.31,50.25.57,1.37H147.1v-.94l.72-.43Zm-.72,1.37h-7.56v-1.94h7.56v1.94Zm-7.56,0H139l-.21-.58.72-.36v.94Zm-.72-.58L133.06,534l1.51-.79,5.76,15.19-1.51.79Zm-5-16.56h.57l.22.58-.79.36v-.94Zm0,1.95H113.11v-1.95h20.67v1.95Zm-21.46-1.37.22-.58h.57v.94l-.79-.36Zm1.58.79-5.47,15.19-1.51-.79,5.4-15.19,1.58.79Zm-5.47,15.19-.21.58h-.58v-.94l.79.36Zm-.79.58h-6.91v-1.94h6.91v1.94Zm-6.91,0h-1.3l.51-1.37.79.43v.94ZM115,527.11h16.78v2H115v-2Zm17.57.65.51,1.37h-1.3v-1l.79-.36Zm-1.51.72-5.18-13.9,1.51-.79,5.18,14-1.51.72Zm-3.67-14.69h0l-.72.43.72-.43Zm-1.51.79h0l1.51-.79h0Zm0,0h0l.79-.43Zm0,0c-.22-.64-.44-1.22-.65-1.72l1.51-.8.65,1.73-1.51.79Zm-.65-1.72c-.22-.65-.43-1.23-.58-1.66l1.51-.79c.22.57.44,1.15.58,1.65l-1.51.8Zm-.58-1.66c-1-2.81-1.73-5.18-2.3-7.13l1.58-.65c.58,1.95,1.3,4.25,2.23,7l-1.51.79Zm-2.3-7.63,1.58-.15-.79.36-.79-.21Zm1.58.43c-.29,1.66-.72,3.31-1.15,4.9l-1.58-.65c.43-1.59.86-3.1,1.15-4.68l1.58.43Zm-1.15,4.9a49.38,49.38,0,0,1-1.58,4.89l-1.52-.79c.58-1.58,1.08-3.1,1.52-4.75l1.58.65Zm-1.58,4.89-5.4,14.69-1.52-.72,5.4-14.76,1.52.79ZM115,529.13h-1.22l.5-1.37.72.36Z"/>
      <path class="cls-2" d="M151.27,548.78V498.46h1.66v50.32Zm0-50.32v-.94h.87v.94Zm.87-.94H169.2v1.94H152.14v-1.94Zm17.06,0c2.16,0,4,.07,5.69.22l-.15,1.94c-1.58-.14-3.45-.22-5.54-.22v-1.94Zm5.69.22a20.54,20.54,0,0,1,4.17.72l-.36,1.94a17.48,17.48,0,0,0-4-.72l.15-1.94Zm4.17.72a16.25,16.25,0,0,1,4.18,1.8l-.72,1.72a13.74,13.74,0,0,0-3.82-1.58l.36-1.94Zm4.18,1.8a15,15,0,0,1,3.67,2.8l-1.08,1.52a16.57,16.57,0,0,0-3.31-2.6l.72-1.72Zm3.67,2.8h0l-.57.72Zm0,0a21.61,21.61,0,0,1,3,3.75L188.5,508a20.59,20.59,0,0,0-2.67-3.38l1.08-1.52Zm3,3.75a22.55,22.55,0,0,1,2.16,4.68l-1.51.72a21,21,0,0,0-2-4.25l1.36-1.15Zm2.16,4.68a30.15,30.15,0,0,1,1.44,5.47l-1.65.36a26.33,26.33,0,0,0-1.3-5.11l1.51-.72Zm1.44,5.47a43.72,43.72,0,0,1,.44,6.41h-1.66a39.59,39.59,0,0,0-.43-6l1.65-.36Zm.44,6.41a41.05,41.05,0,0,1-.8,8.13l-1.58-.5a36.43,36.43,0,0,0,.72-7.63Zm-.8,8.13a27.93,27.93,0,0,1-2.3,6.84l-1.44-1a27.17,27.17,0,0,0,2.16-6.34l1.58.5Zm-2.3,6.84a24.48,24.48,0,0,1-3.6,5.33l-1.15-1.44a21.15,21.15,0,0,0,3.31-4.89l1.44,1Zm-3.6,5.33a17.45,17.45,0,0,1-4.54,3.53l-.64-1.8a15.37,15.37,0,0,0,4-3.17l1.15,1.44Zm-4.54,3.53h0l-.28-.94Zm0,0a20.57,20.57,0,0,1-5.61,1.94l-.29-1.94a21.68,21.68,0,0,0,5.26-1.8l.64,1.8Zm-5.61,1.94a34.89,34.89,0,0,1-7.06.58v-1.94a38.32,38.32,0,0,0,6.77-.58l.29,1.94Zm-7.06.58H152.14v-1.94H170v1.94Zm-17.85,0h-.87v-.94h.87v.94Zm6.55-7.85H169.2v2H158.69v-2Zm10.51,0a31.25,31.25,0,0,0,5.54-.43l.22,1.94a33.92,33.92,0,0,1-5.76.44v-2Zm5.54-.43a15.06,15.06,0,0,0,3.82-1.22l.65,1.8a15.39,15.39,0,0,1-4.25,1.36l-.22-1.94Zm3.82-1.22h0l.36.86Zm0,0a9.63,9.63,0,0,0,2.66-2.09l1.16,1.44a11.82,11.82,0,0,1-3.17,2.45l-.65-1.8Zm2.66-2.09a10.27,10.27,0,0,0,2-3.1l1.44.94a13.08,13.08,0,0,1-2.3,3.6l-1.16-1.44Zm2-3.1h0l1.44.94h0l-1.44-.94Zm1.44.94h0l-.72-.43.72.43Zm-1.44-.94a7.73,7.73,0,0,0,.58-1.37l1.51.8a7.24,7.24,0,0,1-.65,1.51l-1.44-.94Zm.58-1.37a7.42,7.42,0,0,0,.5-1.51l1.58.65a15.52,15.52,0,0,1-.57,1.66l-1.51-.8Zm.5-1.51a30.38,30.38,0,0,0,1.15-8.85h1.66a34.67,34.67,0,0,1-1.23,9.5l-1.58-.65Zm1.15-8.85c0-4.9-.79-8.72-2.3-11.52l1.37-1.08c1.72,3.09,2.59,7.27,2.59,12.6Zm-.93-12.6h0l-.72.57.72-.57Zm-1.37,1.08a16.21,16.21,0,0,0-2.67-3.39l1-1.58a21.32,21.32,0,0,1,3,3.89l-1.37,1.08Zm-2.67-3.39a9.24,9.24,0,0,0-3.31-2l.51-1.88a12.43,12.43,0,0,1,3.81,2.31l-1,1.58Zm-3.31-2a11.81,11.81,0,0,0-3.24-.72l.15-2a14.44,14.44,0,0,1,3.6.79l-.51,1.88Zm-3.24-.72a46.12,46.12,0,0,0-4.89-.22v-2a35.5,35.5,0,0,1,5,.29l-.15,2Zm-4.89-.22H158.69v-2h10.37v2Zm-11.24-1v-1h.87v1Zm1.66,0v38.38h-1.66V504.43Zm-.79,39.39h-.87v-1h.87Z"/>
      <path class="cls-2" d="M228.38,531.65l6.2-.58.07,1.95-6.12.57-.15-1.94Zm6.2-.58.72-.07.14.94-.79.14-.07-1Zm.86.87a15.1,15.1,0,0,0,.79,3.45l-1.58.72a26.47,26.47,0,0,1-.87-3.89l1.66-.28Zm.79,3.45a7.71,7.71,0,0,0,1.23,2.45l-1.23,1.37a11.27,11.27,0,0,1-1.58-3.1l1.58-.72Zm1.23,2.45h0l-.58.72Zm0,0a11.87,11.87,0,0,0,1.94,1.94l-.86,1.66a13.6,13.6,0,0,1-2.31-2.23l1.23-1.37Zm1.94,1.94a14.31,14.31,0,0,0,2.74,1.52l-.58,1.87a20.63,20.63,0,0,1-3-1.73l.86-1.66Zm2.74,1.52h0l-.29.93Zm0,0h0l-.51,1.87h-.07Zm0,0h0l-.22.93Zm0,0c.36.14.64.28.93.36l-.5,1.87a3.75,3.75,0,0,1-.94-.36l.51-1.87Zm.93.36a4.19,4.19,0,0,0,.87.28l-.36,1.95a5.82,5.82,0,0,1-1-.36l.5-1.87Zm.87.28a17.58,17.58,0,0,0,5.25.72v2a20.09,20.09,0,0,1-5.61-.72l.36-1.95Zm5.25.72a21.13,21.13,0,0,0,5-.57l.36,1.94a20.75,20.75,0,0,1-5.4.58v-2Zm5-.57a10.41,10.41,0,0,0,3.6-1.66l.87,1.66a12.12,12.12,0,0,1-4.11,1.94l-.36-1.94Zm3.6-1.66h0l.43.87Zm0,0a6.62,6.62,0,0,0,2.16-2.37l1.44,1a9.09,9.09,0,0,1-2.73,3l-.87-1.66Zm2.16-2.37V538l.72.58-.72-.5Zm0-.08a5.46,5.46,0,0,0,.72-2.88h1.66a9.09,9.09,0,0,1-.94,4L260,538Zm.72-2.88Zm0,0a4.93,4.93,0,0,0-.29-1.8l1.59-.64a9.34,9.34,0,0,1,.36,2.44Zm-.29-1.8a.26.26,0,0,0-.07-.21l1.51-.79a3.88,3.88,0,0,1,.15.36l-1.59.64Zm-.07-.21a5.27,5.27,0,0,0-.65-1.3l1.3-1.22a7.35,7.35,0,0,1,.86,1.73l-1.51.79Zm-.65-1.3h0l.65-.57Zm0,0,.15.15,1-1.52.14.15-1.3,1.22Zm.15.15-.15-.08.65-.64-.5.72Zm-.15-.08c-.07-.14-.21-.28-.28-.43l1.15-1.37c.14.15.29.36.43.51l-1.3,1.29Zm.87-1.8h0l-.58.65.58-.65Zm-1.15,1.37c-.08-.14-.22-.21-.36-.36l1.08-1.51a3.8,3.8,0,0,1,.43.5l-1.15,1.37Zm-.36-.36a8.1,8.1,0,0,0-2.52-1.65l.57-1.88a10.75,10.75,0,0,1,3,2l-1.08,1.51Zm-2.52-1.65h0l.28-.94Zm0,0h0l.57-1.88h0l-.57,1.88Zm.57-1.88h0l-.29.94.29-.94Zm-.57,1.88c-.22-.15-.51-.22-.72-.36l.43-1.88c.36.15.65.29.86.36l-.57,1.88Zm-.72-.36c-.36-.08-.65-.22-1-.29l.43-1.95c.43.15.72.29,1,.36l-.43,1.88Zm-1-.29a87.21,87.21,0,0,0-8.43-2.31l.36-1.94c3.82.94,6.63,1.73,8.5,2.3l-.43,1.95Zm-8.43-2.31h0l.22-1Zm0,0h0l.36-1.94h0l-.36,1.94Zm.36-1.94h0l-.14.94.14-.94Zm-.36,1.94-1.87-.5.36-1.94c.72.21,1.37.36,1.87.5l-.36,1.94Zm-1.87-.5c-.65-.14-1.22-.36-1.73-.5l.36-1.88,1.73.44-.36,1.94Zm-1.73-.5a28.62,28.62,0,0,1-6.55-2.6l.72-1.72a33.4,33.4,0,0,0,6.19,2.44l-.36,1.88Zm-6.55-2.6a13.56,13.56,0,0,1-2.81-2.08l1.08-1.52a13.35,13.35,0,0,0,2.45,1.88l-.72,1.72Zm-2.81-2.08a12.67,12.67,0,0,1-2.08-2.67l1.29-1.08a11,11,0,0,0,1.87,2.23l-1.08,1.52Zm-.79-3.82V517l-.65.51.65-.58Zm-1.29,1.22A11,11,0,0,1,230,515l1.58-.65a8.46,8.46,0,0,0,1.08,2.59l-1.29,1.22ZM230,515a14.34,14.34,0,0,1-.43-3.53h1.65a9.25,9.25,0,0,0,.36,2.88L230,515Zm-.43-3.53Zm0,0a13.87,13.87,0,0,1,1.29-6.05l1.44,1a11.5,11.5,0,0,0-1.08,5Zm1.29-6.05c.29-.58.58-1.15.94-1.73l1.29,1.23a16.76,16.76,0,0,0-.79,1.51l-1.44-1Zm.94-1.73a18.09,18.09,0,0,1,2.81-3l.93,1.65a14.24,14.24,0,0,0-2.45,2.6l-1.29-1.23Zm2.81-3h0l.5.79Zm0,0a16,16,0,0,1,5.83-3l.43,1.88a16.23,16.23,0,0,0-5.33,2.8l-.93-1.65Zm5.83-3a26.67,26.67,0,0,1,7.41-1v1.94a25.84,25.84,0,0,0-7,.94l-.43-1.88Zm7.41-1h.08v1.94h-.08v-1.94Zm.08,0a30.16,30.16,0,0,1,5.25.43l-.29,1.94a26.94,26.94,0,0,0-5-.43v-1.94Zm5.25.43c.22.07.51.14.79.21l-.28,1.88a5,5,0,0,1-.8-.15l.29-1.94Zm.51,2.09h0l.14-.94-.14.94Zm.28-1.88a21.8,21.8,0,0,1,3.89,1.23l-.57,1.87a21.2,21.2,0,0,0-3.6-1.22l.28-1.88Zm3.89,1.23h0l-.29.93Zm0,0a20.16,20.16,0,0,1,3.82,2.3l-.94,1.66a13.87,13.87,0,0,0-3.45-2.09l.57-1.87Zm3.82,2.3a14.16,14.16,0,0,1,3,3.24l-1.3,1.23a12,12,0,0,0-2.59-2.81l.94-1.66Zm3,3.24h0l-.65.58Zm0,0a15.47,15.47,0,0,1,1.87,4l-1.58.65a11.17,11.17,0,0,0-1.59-3.38l1.3-1.23Zm1.87,4a18.69,18.69,0,0,1,.72,4.61l-1.65.07a12.16,12.16,0,0,0-.65-4l1.58-.65Zm.72,4.61.07.94-.79.07-.07-1Zm-.72,1-6.33.43-.08-1.94,6.27-.44.14,1.95Zm-6.33.43-.8.07-.07-.93.79-.08.08.94Zm-.87-.86a12.56,12.56,0,0,0-1-3.89l1.44-.94a16.59,16.59,0,0,1,1.23,4.61l-1.66.22Zm-1-3.89a7.74,7.74,0,0,0-2.16-2.67L257,505a11.21,11.21,0,0,1,2.66,3.38l-1.44.94Zm-2.16-2.67h0l.44-.79Zm0,0h0l.94-1.58h0l-.94,1.58ZM257,505v.07l-.5.79.5-.86Zm-.94,1.65-.79-.57.72-1.73c.36.22.65.43,1,.65l-.94,1.65Zm-.79-.57c-.29-.15-.65-.29-.93-.43l.57-1.88c.36.22.72.36,1.08.58l-.72,1.73Zm-.93-.43A14.78,14.78,0,0,0,248,504.5v-2a16.49,16.49,0,0,1,6.91,1.29l-.57,1.88ZM248,504.5h0v-2h0Zm0,0a18.84,18.84,0,0,0-4.75.51l-.29-1.95a21.13,21.13,0,0,1,5-.57v2Zm-4.75.51a3.68,3.68,0,0,0-.65.14l-.36-1.87.72-.22.29,1.95Zm-.65.14a8.25,8.25,0,0,0-2.66,1.3l-.87-1.73a10.7,10.7,0,0,1,3.17-1.44l.36,1.87Zm-2.66,1.3h0l-.44-.87Zm0,0a5.38,5.38,0,0,0-1.88,2l-1.44-1.08a8.1,8.1,0,0,1,2.52-2.66l.8,1.73Zm-1.88,2a4.82,4.82,0,0,0-.64,2.45H235.8a7.4,7.4,0,0,1,.86-3.53l1.44,1.08Zm-.64,2.45a5.7,5.7,0,0,0,.43,2.31l-1.44.86a7.35,7.35,0,0,1-.65-3.17Zm.43,2.31a4.81,4.81,0,0,0,1.37,1.65l-.94,1.66a7.62,7.62,0,0,1-1.87-2.45l1.44-.86Zm1.37,1.65a13,13,0,0,0,3.24,1.59l-.44,1.87a17,17,0,0,1-3.74-1.8l.94-1.66Zm3.24,1.59c1.58.5,3.6,1.08,6.12,1.65l-.36,1.95a56.89,56.89,0,0,1-6.2-1.73l.44-1.87Zm6.12,1.65c2.44.58,4.53,1.08,6.26,1.59l-.43,1.87c-1.66-.43-3.75-1-6.19-1.51l.36-1.95Zm6.26,1.59a37.51,37.51,0,0,1,4.1,1.36l-.5,1.88a34,34,0,0,0-4-1.37l.43-1.87Zm4.1,1.36h0l-.28.94Zm0,0h0l-.5,1.88h0l.5-1.88Zm-.5,1.88h0l.22-.94-.22.94Zm.5-1.88a9.94,9.94,0,0,1,1.3.58l-.65,1.8c-.36-.14-.72-.36-1.15-.5l.5-1.88Zm1.3.58c.43.22.79.43,1.15.65l-.72,1.73c-.36-.22-.72-.36-1.08-.58l.65-1.8Zm1.15.65a14.82,14.82,0,0,1,4.75,4.1l-1.22,1.3a14.26,14.26,0,0,0-4.25-3.67l.72-1.73Zm3.53,5.4h0l.58-.65-.58.65Zm1.22-1.3a12.23,12.23,0,0,1,1.88,3.75l-1.52.64a12.36,12.36,0,0,0-1.58-3.09l1.22-1.3Zm1.88,3.75a14.38,14.38,0,0,1,.64,4.39h-1.65a15.64,15.64,0,0,0-.51-3.75l1.52-.64Zm.64,4.39a15.27,15.27,0,0,1-.64,4.46l-1.59-.65a13.58,13.58,0,0,0,.58-3.81Zm-.64,4.46a14.85,14.85,0,0,1-1.95,4l-1.29-1.22a12.65,12.65,0,0,0,1.65-3.46l1.59.65Zm-1.95,4h0l-.65-.57Zm0,0a15.07,15.07,0,0,1-3.09,3.32l-.94-1.59a15.29,15.29,0,0,0,2.74-3l1.29,1.22ZM263,546.34a18,18,0,0,1-3.89,2.37l-.58-1.8a21.11,21.11,0,0,0,3.53-2.16l.94,1.59Zm-3.89,2.37h0l-.58-1.8h0Zm0,0a10,10,0,0,1-1.3.51l-.43-1.88c.36-.14.72-.28,1.15-.43l.58,1.8Zm-1.3.51-1.29.43-.36-1.87c.36-.15.79-.29,1.22-.44l.43,1.88Zm-1.29.43a28.65,28.65,0,0,1-7.78,1v-1.95a29.76,29.76,0,0,0,7.42-.93l.36,1.87Zm-7.78,1a28.21,28.21,0,0,1-8.5-1.23l.44-1.87a27.54,27.54,0,0,0,8.06,1.15v1.95Zm-8.5-1.23a18.73,18.73,0,0,1-6.62-3.53l.94-1.65a16.72,16.72,0,0,0,6.12,3.31l-.44,1.87Zm-6.62-3.53h0l.43-.86Zm0,0-.07-.07.93-1.58h.08l-.94,1.65Zm-.07-.07h0l.5-.79Zm0,0c-.51-.43-1-.93-1.51-1.44l1.15-1.44c.36.43.86.87,1.29,1.3l-.93,1.58Zm-1.51-1.44a12.61,12.61,0,0,1-1.23-1.58l1.23-1.23a17.77,17.77,0,0,0,1.15,1.37l-1.15,1.44Zm-1.23-1.58a18.21,18.21,0,0,1-3.24-10.15l1.66-.08a16,16,0,0,0,2.81,9l-1.23,1.23Zm-3.24-10.15v-.94l.79-.07.08.93Z"/>
      <path class="cls-2" d="M276,548.78V498.46h1.65v50.32Zm0-50.32v-.94h.86v.94Zm.86-.94h18.65v1.94H276.84v-1.94Zm18.65,0c2.16,0,4.1.07,5.76.22l-.15,1.94c-1.58-.14-3.45-.22-5.61-.22v-1.94Zm5.76.22a17.85,17.85,0,0,1,4.1.79L305,500.4a20.45,20.45,0,0,0-3.89-.72l.15-1.94ZM305,500.4h0l.22-.94-.22.94Zm.36-1.87a13.64,13.64,0,0,1,4.11,1.94l-.87,1.66a12.8,12.8,0,0,0-3.6-1.73l.36-1.87Zm4.11,1.94a13.4,13.4,0,0,1,3.16,3.17l-1.22,1.3a12.91,12.91,0,0,0-2.81-2.81l.87-1.66Zm3.16,3.17a12.88,12.88,0,0,1,2.09,4.25l-1.58.65a11.1,11.1,0,0,0-1.73-3.6l1.22-1.3Zm2.09,4.25a19,19,0,0,1,.72,5h-1.65a14.38,14.38,0,0,0-.65-4.39l1.58-.65Zm.72,5a19.3,19.3,0,0,1-1.15,6.62l-1.51-.79a16.46,16.46,0,0,0,1-5.83Zm-1.15,6.62a15.42,15.42,0,0,1-3.31,5.26l-1.08-1.51a13.28,13.28,0,0,0,2.88-4.54l1.51.79ZM311,524.81h0l-.58-.79Zm0,0h0l-1.08-1.51h0l1.08,1.51Zm-1.08-1.51h0l.5.72-.5-.72Zm1.08,1.51c-.43.43-.94.79-1.44,1.22l-.87-1.73a7.46,7.46,0,0,0,1.23-1l1.08,1.51ZM309.53,526a14.68,14.68,0,0,1-1.59,1l-.64-1.8a9.37,9.37,0,0,0,1.36-.94l.87,1.73Zm-1.59,1c-2.95,1.51-6.91,2.3-11.88,2.3v-2c4.76,0,8.5-.72,11.24-2.09l.64,1.8Zm-11.88,2.3H283.39v-2h12.67v2Zm-13.53-1v-1h.86v1Zm1.65,0v20.44h-1.65V528.34Zm0,20.44v.94h-.79v-.94Zm-.79.94h-6.55v-1.94h6.55v1.94Zm-6.55,0H276v-.94h.86v.94Zm6.55-28.3h12.75v2H283.39v-2Zm12.75,0h.07v2h-.07v-2Zm.07,0a20.7,20.7,0,0,0,5-.57l.36,1.94a24.42,24.42,0,0,1-5.4.58v-2Zm5-.57a4.66,4.66,0,0,0,1.29-.43l.51,1.87a8.71,8.71,0,0,1-1.44.5l-.36-1.94Zm1.29-.43a6.07,6.07,0,0,0,2-1.16l.94,1.66a9,9,0,0,1-2.45,1.37l-.51-1.87Zm2-1.16a5.58,5.58,0,0,0,1.8-2.44l1.51.86a7.52,7.52,0,0,1-2.37,3.24l-.94-1.66Zm1.8-2.44a9.25,9.25,0,0,0,.65-3.6h1.65a12,12,0,0,1-.79,4.46l-1.51-.86Zm.65-3.6Zm0,0a13,13,0,0,0-.29-2.45l1.51-.58a10.23,10.23,0,0,1,.43,3Zm-.29-2.45c-.07-.15-.07-.29-.14-.36l1.58-.72c0,.21.07.36.07.5l-1.51.58Zm-.14-.36a6.09,6.09,0,0,0-.8-1.66l1.3-1.22a10.38,10.38,0,0,1,1.08,2.16l-1.58.72Zm.5-2.88h0l-.65.57.65-.57Zm-1.3,1.22a7.88,7.88,0,0,0-1.36-1.65l1-1.59a11.7,11.7,0,0,1,1.66,2l-1.3,1.22Zm-1.36-1.65a5.09,5.09,0,0,0-1.59-.94l.51-1.87a7.59,7.59,0,0,1,2.08,1.22l-1,1.59Zm-1.59-.94h0l.29-.94Zm0,0a8.77,8.77,0,0,0-2.52-.58l.15-1.94a10.55,10.55,0,0,1,2.88.65l-.51,1.87Zm-2.52-.58a38.19,38.19,0,0,0-4.25-.14v-2a39,39,0,0,1,4.4.22l-.15,1.94Zm-4.25-.14H283.39v-2h12.67v2Zm-13.53-1v-1h.86v1Zm1.65,0v17.93h-1.65V504.43Zm-.79,18.94h-.86v-1h.86Z"/>
      <path class="cls-2" d="M321.7,548.78V498.46h1.65v50.32Zm0-50.32v-.94h.86v.94Zm.86-.94H329v1.94h-6.48v-1.94Zm6.48,0h.86v.94H329v-.94Zm.86.94v44.35h-1.65V498.46ZM329,543.82h-.79v-1H329v1Zm0-2h24.41v2H329v-2Zm24.41,0h.86v.94h-.86v-.94Zm.86.94v6h-1.65v-6Zm0,6v.94h-.86v-.94Zm-.86.94H322.56v-1.94h30.89v1.94Zm-30.89,0h-.86v-.94h.86Z"/>
      <path class="cls-2" d="M361.8,548.78V498.46h1.66v50.32Zm0-50.32v-.94h.86v.94Zm.86-.94h6.56v1.94h-6.56v-1.94Zm6.56,0H370v.94h-.79v-.94Zm.79.94v50.32h-1.66V498.46Zm0,50.32v.94h-.79v-.94Zm-.79.94h-6.56v-1.94h6.56v1.94Zm-6.56,0h-.86v-.94h.86Z"/>
      <path class="cls-2" d="M392.47,548.78V504.43h1.66v44.35Zm.87-45.36h.79v1h-.79v-1Zm0,2H377v-2h16.35v2Zm-16.35,0h-.79v-1H377v1Zm-.79-1v-6h1.66v6Zm0-6v-.94H377v.94Zm.79-.94H416.3v1.94H377v-1.94Zm39.31,0h.8v.94h-.8v-.94Zm.8.94v6h-1.66v-6Zm0,6v1h-.8v-1Zm-.8,1H399.89v-2H416.3v2Zm-17.28-1v-1h.87v1Zm1.66,0v44.35H399V504.43Zm0,44.35v.94h-.79v-.94Zm-.79.94h-6.55v-1.94h6.55v1.94Zm-6.55,0h-.87v-.94h.87Z"/>
    </g>
  </g>
</svg>