<svg xmlns="http://www.w3.org/2000/svg" viewBox="0 0 161.16 107.74">
  <defs>
    <style>.cls-1{fill:#fff;}</style>
  </defs>
  <g id="Layer_2" data-name="Layer 2">
    <g id="Layer_1-2" data-name="Layer 1">
      <polygon class="cls-1" points="100.63 24.18 100.7 48.44 114.46 57.09 114.33 17.07 101.4 23.77 101.4 23.77 100.63 24.18"/>
      <polygon class="cls-1" points="79.81 59.98 79.86 76.39 114.38 58.49 100.06 49.48 79.81 59.98"/>
      <polygon class="cls-1" points="79.87 13.73 99.72 22.99 113.4 15.9 79.31 0 78.8 0.26 79.87 0.26 79.87 13.73"/>
      <polygon class="cls-1" points="78.64 0.35 44.88 17.84 58.5 24.19 78.64 13.75 78.64 0.35"/>
      <polygon class="cls-1" points="57.71 25.45 43.95 19.03 44.08 59.04 57.79 49.62 57.71 25.45"/>
      <polygon class="cls-1" points="44.16 60.48 78.39 76.44 78.33 59.91 58.46 50.65 44.16 60.48"/>
      <polygon class="cls-1" points="79.8 58.6 99.48 48.4 99.4 24.81 91.41 28.96 79.72 35.01 79.8 58.6"/>
      <polygon class="cls-1" points="59.9 24.85 78.97 33.74 98.34 23.7 79.27 14.81 59.9 24.85"/>
      <polygon class="cls-1" points="58.94 26.02 59.02 49.55 78.33 58.56 78.25 35.03 58.94 26.02"/>
      <path class="cls-1" d="M0,98.83H1.19v3.79h8V98.83h1.19v8.82H9.16V103.6h-8v4.05H0Z"/>
      <path class="cls-1" d="M12.73,98.83h1.19v8.82H12.73Z"/>
      <path class="cls-1" d="M16.3,98.83h7.26c1.6,0,2.52.34,2.52,2.4s-.16,3-2.75,3H17.49v3.47H16.3Zm8.58,2.28c0-1-.57-1.3-1.6-1.3H17.49v3.4h5.88c.95,0,1.51-.34,1.51-1.26Z"/>
      <path class="cls-1" d="M27.73,98.83H36.4v1H28.93v2.81H36.1v1H28.93v3.08h7.51v1H27.73Z"/>
      <path class="cls-1" d="M38.19,98.83h7.05c2.54,0,2.95.84,2.95,2.5v.72c0,1.24-.71,1.58-1.62,1.67v0c1.21.22,1.51.86,1.51,1.66v2.25H47v-1.93c0-1.38-.67-1.55-1.76-1.55H39.38v3.48H38.19Zm6.91,4.36c1.33,0,1.89-.35,1.89-1.28v-.8c0-1-.42-1.3-2.18-1.3H39.38v3.38Z"/>
      <path class="cls-1" d="M50.28,98.83h7.26c1.61,0,2.52.34,2.52,2.4s-.16,3-2.75,3H51.47v3.47H50.28Zm8.59,2.28c0-1-.58-1.3-1.61-1.3H51.47v3.4h5.89c1,0,1.51-.34,1.51-1.26Z"/>
      <path class="cls-1" d="M61.64,98.83H68.7c2.54,0,2.94.84,2.94,2.5v.72c0,1.24-.7,1.58-1.62,1.67v0c1.22.22,1.51.86,1.51,1.66v2.25H70.41v-1.93c0-1.38-.67-1.55-1.75-1.55H62.84v3.48h-1.2Zm6.92,4.36c1.33,0,1.89-.35,1.89-1.28v-.8c0-1-.43-1.3-2.18-1.3H62.84v3.38Z"/>
      <path class="cls-1" d="M73.51,102c0-2.23.75-3.3,3.14-3.3h5.08c2.39,0,3.14,1.07,3.14,3.3v2.41c0,2.23-.75,3.29-3.14,3.29H76.65c-2.39,0-3.14-1.06-3.14-3.29Zm10.17-.45c0-1.54-.93-1.88-2.07-1.88H76.77c-1.14,0-2.07.34-2.07,1.88v3.31c0,1.53.93,1.88,2.07,1.88h4.84c1.14,0,2.07-.35,2.07-1.88Z"/>
      <path class="cls-1" d="M86.91,98.83H94c3,0,3.77.93,3.77,4.41,0,3.24-.81,4.41-3.81,4.41H86.91Zm9.69,4c0-2.55-.79-3-2.25-3H88.1v6.87h6.05c1.45,0,2.45-.32,2.45-3Z"/>
      <path class="cls-1" d="M99.9,98.83h1.2v6.59c0,.86.29,1.36,1.91,1.36h4.14c1.62,0,1.91-.5,1.91-1.36V98.83h1.2v6.61c0,1.79-.91,2.3-3.15,2.3H103c-2.24,0-3.14-.51-3.14-2.3Z"/>
      <path class="cls-1" d="M112.59,98.83h1.2v3.74h1.5l5.53-3.74h2l0,0-6.32,4.21,6.89,4.56,0,0h-2.1l-6-4.1h-1.4v4.1h-1.2Z"/>
      <path class="cls-1" d="M124.38,102c0-2.23.76-3.3,3.15-3.3h4.57c2.16,0,2.76,1,2.76,2.19v.75h-1.05v-.4c0-1.5-.92-1.57-2-1.57h-4.14c-1.15,0-2.07.34-2.07,1.88v3.31c0,1.53.92,1.88,2.07,1.88h4.18c1.6,0,2.07-.35,2.07-1.54v-.55H135v.6c0,1.6-.51,2.45-3,2.45h-4.5c-2.39,0-3.15-1.06-3.15-3.29Z"/>
      <path class="cls-1" d="M137,98.83h1.19v8.82H137Z"/>
      <path class="cls-1" d="M139.69,104.4h1.13v.69c0,1.39.34,1.69,1.87,1.69h2.08c1.38,0,1.95-.24,1.95-1.37V98.83h1.2v6.35c0,2-.88,2.56-3,2.56h-2.26c-2.1,0-2.92-.71-2.92-2.36Z"/>
      <path class="cls-1" d="M154.43,98.83h1.49l5.24,8.82H159.8l-1.09-1.86h-7.07l-1.09,1.86H149.2Zm.75,1-3,5h5.92Z"/>
    </g>
  </g>
</svg>