<svg xmlns="http://www.w3.org/2000/svg" viewBox="0 0 860 250">
  <defs>
    <style>.cls-1,.cls-2{fill:#ffffff;}.cls-2{font-size:26.8px;font-family:Lato-Regular, Lato;}</style>
  </defs>
  <title>HRCloud_Logo_Lockup</title>
  <g id="Layer_5" data-name="Layer 5">
    <path class="cls-1" d="M215.25,119.91c0,5.07-4.61,9.36-10.27,9.36H191.15V110.71H205C210.64,110.71,215.25,114.84,215.25,119.91Zm71.68,36.88a65.21,65.21,0,0,1-19.52,38,57.12,57.12,0,0,1-39.06,15.81H109c-12.87,0-25.51-5.18-35.59-14.35a62.85,62.85,0,0,1-19.09-34.09c-3.71-18.52,2-43.32,22.78-58a49.39,49.39,0,0,1,9.36-30.3,56.7,56.7,0,0,1,45.2-23.27,51.82,51.82,0,0,1,18.77,3.36,57,57,0,0,1,42.41-18.5A63.89,63.89,0,0,1,242,58.67a60,60,0,0,1,12.86,34.8C281.32,107.34,290.09,135,286.93,156.79ZM170.26,105.48a6.1,6.1,0,0,0-6.09-6.1h-.67a6.1,6.1,0,0,0-6.09,6.1v20.89H133.63V105.48a6.1,6.1,0,0,0-6.09-6.1h-.67a6.1,6.1,0,0,0-6.09,6.1v55.93a6.09,6.09,0,0,0,6.09,6.09h.67a6.09,6.09,0,0,0,6.09-6.09V137.3h23.78v24.11a6.09,6.09,0,0,0,6.09,6.09h.67a6.09,6.09,0,0,0,6.09-6.09Zm45,32.4a20.35,20.35,0,0,0,11.28-18c0-11.28-9.65-20.45-21.51-20.45h-21.7v0a6.08,6.08,0,0,0-5,6v55.93a6.09,6.09,0,0,0,6.09,6.09h.67a6.09,6.09,0,0,0,6.09-6.09V140.19h11.74l12.94,24.49a5.65,5.65,0,0,0,5.22,3h0a5.66,5.66,0,0,0,5.22-4.2v0a5.68,5.68,0,0,0-.4-3.93Z"/>
    <path class="cls-1" d="M387.36,99.21v75.17H372.24V141.69H340.09v32.69h-15V99.21h15v30.45h32.15V99.21Z"/>
    <path class="cls-1" d="M438,174.38,420.47,145.1h-6.6v29.28h-15V99.21H427.5q13.1,0,20,6.39t6.87,16.82a21.68,21.68,0,0,1-4.74,14.27q-4.72,5.75-13.68,7.67l18.74,30Zm-24.17-39.61h12.35q12.88,0,12.89-11.39,0-5.43-3.14-8.46t-9.75-3H413.87Z"/>
    <path class="cls-1" d="M536.41,105.71q9.27,7.23,12.24,19.69H532.9a20.64,20.64,0,0,0-7.62-9.58,21.51,21.51,0,0,0-12.4-3.51,19.61,19.61,0,0,0-18.21,11.5,32.78,32.78,0,0,0,0,25.87,19.61,19.61,0,0,0,18.21,11.5,21.51,21.51,0,0,0,12.4-3.51,20.67,20.67,0,0,0,7.62-9.59h15.75a34.17,34.17,0,0,1-12.24,19.7Q527.16,175,513.09,175a36.8,36.8,0,0,1-19-4.84,33,33,0,0,1-12.78-13.58,42.35,42.35,0,0,1-4.52-19.8,42.57,42.57,0,0,1,4.52-19.91A33.16,33.16,0,0,1,494,103.31a36.77,36.77,0,0,1,19.06-4.84Q527.15,98.47,536.41,105.71Z"/>
    <path class="cls-1" d="M575,95.59v78.79h-15V95.59Z"/>
    <path class="cls-1" d="M629.2,118.27A26.49,26.49,0,0,1,640,128.76,31.92,31.92,0,0,1,644,144.89,31.67,31.67,0,0,1,640,161a26.91,26.91,0,0,1-10.81,10.48,34.44,34.44,0,0,1-31,0A26.85,26.85,0,0,1,587.41,161a31.57,31.57,0,0,1-3.94-16.08,31.81,31.81,0,0,1,3.94-16.13,26.43,26.43,0,0,1,10.81-10.49,35,35,0,0,1,31,0Zm-26.14,13.79q-4.37,4.42-4.36,12.83t4.36,12.83a15,15,0,0,0,21.29,0q4.36-4.42,4.37-12.83t-4.37-12.83a15,15,0,0,0-21.29,0Z"/>
    <path class="cls-1" d="M708.9,115.4v59h-15V162.46a18.74,18.74,0,0,1-7.72,9.31,22.9,22.9,0,0,1-12.4,3.36q-10.23,0-16.29-6.71t-6.07-18.74V115.4h14.91V148q0,7,3.62,10.91a12.72,12.72,0,0,0,9.79,3.89,13.38,13.38,0,0,0,10.33-4.16q3.83-4.16,3.83-11.92V115.4Z"/>
    <path class="cls-1" d="M756.22,118.16a19.91,19.91,0,0,1,7.61,9.48v-32h14.91v78.79H763.83V162a20.13,20.13,0,0,1-7.61,9.53,22.13,22.13,0,0,1-12.72,3.57,25.39,25.39,0,0,1-13.42-3.62A24.47,24.47,0,0,1,720.77,161a36.33,36.33,0,0,1-3.36-16.13,36.3,36.3,0,0,1,3.36-16.13,24.42,24.42,0,0,1,9.31-10.49,25.39,25.39,0,0,1,13.42-3.62A22.4,22.4,0,0,1,756.22,118.16ZM736.9,132.32c-2.84,3.06-4.26,7.24-4.26,12.57s1.42,9.49,4.26,12.51,6.6,4.52,11.28,4.52a14.87,14.87,0,0,0,11.24-4.63q4.41-4.64,4.41-12.4t-4.41-12.51a14.87,14.87,0,0,0-11.24-4.63A14.67,14.67,0,0,0,736.9,132.32Z"/>
    <text class="cls-2" transform="translate(785.31 115.06)">®</text>
  </g>
</svg>