<svg width="405" height="125"
  xmlns="http://www.w3.org/2000/svg"
  xmlns:xlink="http://www.w3.org/1999/xlink">
  <defs>
    <path id="prefix__a" d="M0 124.938h404.933V0H0z"/>
  </defs>
  <g fill="#fff" fill-rule="evenodd">
    <path d="M53.865 50.405h17.077a3.488 3.488 0 0 1 3.51 3.514v17.095a3.488 3.488 0 0 1-3.51 3.513H53.865a3.488 3.488 0 0 1-3.51-3.513V53.919a3.488 3.488 0 0 1 3.51-3.514M0 62.5C0 27.973 27.945 0 62.437 0c34.155 0 61.965 27.5 62.438 61.622.472 34.932-28.35 63.783-63.248 63.31C27.472 124.46 0 96.69 0 62.5m26.73 35.946c6.817 6.824 20.182 10.946 35.707 10.946 15.525 0 28.89-4.054 35.708-10.946 6.817-6.824 10.935-20.203 10.935-35.743 0-15.54-4.05-28.92-10.935-35.744-6.818-6.824-20.183-10.945-35.708-10.945-15.525 0-28.89 4.054-35.707 10.945-6.818 6.892-10.935 20.203-10.935 35.744.067 15.54 4.117 28.919 10.935 35.743m6.412-65.27c4.86-4.865 16.335-7.973 29.295-7.973s24.436 3.108 29.296 7.973c4.86 4.865 7.965 16.351 7.965 29.324 0 12.973-3.105 24.46-7.965 29.324-4.86 4.865-16.335 7.973-29.296 7.973-12.96 0-24.435-3.176-29.295-7.973-4.86-4.797-7.965-16.351-7.965-29.324 0-12.973 3.105-24.46 7.965-29.324M44.28 80.338c1.012 1.013 4.05 4.054 18.022 4.054 13.973 0 17.01-3.04 18.023-4.054 1.012-1.014 4.05-4.054 4.05-18.04 0-13.987-3.038-17.028-4.05-18.041-1.013-1.014-4.05-4.054-18.023-4.054-13.972 0-17.01 3.04-18.022 4.054-1.013 1.013-4.05 4.054-4.05 18.04 0 13.987 3.037 17.027 4.05 18.04"/>
    <mask id="prefix__b">
      <use xlink:href="#prefix__a"/>
    </mask>
    <path mask="url(#prefix__b)" d="M153.968 82.364h13.635v-38.31h-13.635zm20.924.001V44.054h10.8l1.688 4.19c3.172-3.38 7.357-5.136 12.555-5.136 4.59 0 8.167 1.419 11.07 4.257 2.835 2.77 4.252 6.351 4.252 10.743v24.257h-13.635v-21.96c0-3.513-2.565-6.148-6.007-6.148-4.253 0-7.088 3.04-7.088 7.567v20.473l-13.635.068zm43.471-28.041v-10.27h6.412v-3.581c0-4.122 1.35-7.365 3.915-9.865 2.7-2.5 6.21-3.716 10.463-3.716 3.24 0 6.412.405 9.516 1.216l-1.687 10.068c-1.484-.27-2.97-.406-4.454-.473-2.498 0-4.118 1.554-4.118 4.121v2.162h7.897v10.338h-7.897v28.04h-13.635v-28.04h-6.412zm35.842-5.608c4.118-3.784 9.315-5.675 15.727-5.675 6.413 0 11.679 1.891 15.729 5.675 4.116 3.716 6.141 8.514 6.141 14.46 0 5.878-2.025 10.675-6.141 14.46-4.05 3.715-9.316 5.607-15.729 5.607-6.412 0-11.609-1.892-15.727-5.608-4.118-3.784-6.143-8.58-6.143-14.46 0-5.81 2.025-10.607 6.143-14.459m15.66 24.054c4.658 0 7.965-3.919 7.965-9.527 0-5.675-3.307-9.594-7.965-9.594-4.658 0-7.898 3.919-7.898 9.594.069 5.54 3.308 9.527 7.898 9.527m25.852 9.595V27.838h13.635v18.919c2.903-2.365 6.548-3.717 10.26-3.649 5.199 0 9.45 1.892 12.758 5.676 3.307 3.716 4.995 8.513 4.995 14.46 0 5.877-1.688 10.675-4.995 14.459-3.308 3.716-7.56 5.608-12.758 5.608-4.657 0-8.437-1.487-11.339-4.46l-1.687 3.581-10.869-.067zm13.365-17.095c0 4.257 2.768 7.365 6.885 7.365 4.388 0 7.56-3.851 7.56-9.392 0-5.54-3.172-9.46-7.56-9.46-4.117 0-6.885 3.109-6.885 7.433v4.054zm40.095-39.122c4.658 0 7.83 3.244 7.83 7.838 0 4.392-3.172 7.77-7.83 7.77-4.387 0-7.762-3.31-7.762-7.77 0-4.594 3.375-7.838 7.762-7.838zm-6.817 56.217h13.634V44.054H342.36v38.31zm20.992 16.081v-54.46h10.8l1.688 3.581c2.97-3.04 6.75-4.46 11.34-4.46 5.197 0 9.45 1.893 12.757 5.677 3.308 3.716 4.995 8.513 4.995 14.459 0 5.879-1.687 10.676-4.995 14.46-3.307 3.716-7.56 5.608-12.757 5.608-3.78 0-7.358-1.284-10.26-3.65v18.785h-13.568zm13.365-33.176c0 4.257 2.768 7.365 6.885 7.365 4.388 0 7.56-3.85 7.56-9.392 0-5.54-3.172-9.46-7.56-9.46-4.117 0-6.885 3.109-6.885 7.433v4.054zM153.968 40h13.635V26.352h-13.635z"/>
  </g>
</svg>