<svg version="1.1" id="prefix__Layer_1"
  xmlns="http://www.w3.org/2000/svg" x="0" y="0" viewBox="0 0 707.4 117.2" xml:space="preserve">
  <style>.prefix__st0{fill:#fff}</style>
  <path class="prefix__st0" d="M21.4 110.5c-1.2-1.2-1.8-2.6-1.8-4.3V19.6h-13c-.9 0-1.6-.3-2.1-.9-.6-.6-.9-1.3-.9-2.1V6.1c0-.9.3-1.6.9-2.1.6-.6 1.3-.9 2.1-.9h24c1.7 0 3.2.6 4.3 1.8 1.2 1.2 1.8 2.6 1.8 4.3v86.6h13c.9 0 1.6.3 2.1.9.6.6.9 1.3.9 2.1v10.6c0 .9-.3 1.6-.9 2.1-.6.6-1.3.9-2.1.9h-24c-1.6-.1-3.1-.7-4.3-1.9zM67.2 110.9c-.6-1-.8-2.1-.5-3.3l8.1-35.4c.2-1 .6-1.8 1.3-2.5.7-.7 1.4-1 2.3-1h14.1c.9 0 1.7.4 2.3 1.1.6.7.9 1.6.9 2.5 0 .8-.1 1.6-.4 2.4l-16.5 37.6h-9.1c-1.1 0-1.9-.5-2.5-1.4zM78.1 53.2c-.6-.6-.9-1.3-.9-2.1V33.5c0-.9.3-1.6.9-2.1.6-.6 1.3-.9 2.1-.9h12.3c.9 0 1.6.3 2.1.9.6.6.9 1.3.9 2.1V51c0 .9-.3 1.6-.9 2.1-.6.6-1.3.9-2.1.9H80.3c-.9.1-1.6-.2-2.2-.8zM130.7 105.5c-4.6-4.6-6.9-10.6-6.9-18V46.6H114c-.9 0-1.6-.3-2.1-.9-.6-.6-.9-1.3-.9-2.1v-10c0-.9.3-1.6.9-2.1.6-.6 1.3-.9 2.1-.9h9.8V15.2c0-.9.3-1.6.9-2.1.6-.6 1.3-.9 2.1-.9h11.1c.9 0 1.6.3 2.1.9.6.6.9 1.3.9 2.1v15.4H165c.9 0 1.6.3 2.1.9.6.6.9 1.3.9 2.1v10.1c0 .9-.3 1.6-.9 2.1-.6.6-1.3.9-2.1.9h-24.1v40.1c0 2.9.8 5.1 2.5 6.8 1.7 1.7 3.9 2.6 6.6 2.6l15 .1c.9 0 1.6.3 2.1.9.6.6.9 1.3.9 2.1v10c0 .9-.3 1.6-.9 2.1-.6.6-1.3.9-2.1.9h-16.3c-7.4 0-13.4-2.3-18-6.8zM198.4 105.5c-4.6-4.6-6.9-10.6-6.9-18V46.6h-9.8c-.9 0-1.6-.3-2.1-.9-.6-.6-.9-1.3-.9-2.1v-10c0-.9.3-1.6.9-2.1.6-.6 1.3-.9 2.1-.9h9.8V15.2c0-.9.3-1.6.9-2.1.6-.6 1.3-.9 2.1-.9h11.1c.9 0 1.6.3 2.1.9.6.6.9 1.3.9 2.1v15.4h24.1c.9 0 1.6.3 2.1.9.6.6.9 1.3.9 2.1v10.1c0 .9-.3 1.6-.9 2.1-.6.6-1.3.9-2.1.9h-24.1v40.1c0 2.9.8 5.1 2.5 6.8 1.7 1.7 3.9 2.6 6.6 2.6l15 .1c.9 0 1.6.3 2.1.9.6.6.9 1.3.9 2.1v10c0 .9-.3 1.6-.9 2.1-.6.6-1.3.9-2.1.9h-16.3c-7.4 0-13.4-2.3-18-6.8zM262.6 110.5c-1.2-1.2-1.8-2.6-1.8-4.3V19.6h-13c-.9 0-1.6-.3-2.1-.9-.6-.6-.9-1.3-.9-2.1V6.1c0-.9.3-1.6.9-2.1.6-.6 1.3-.9 2.1-.9h24c1.7 0 3.2.6 4.3 1.8 1.2 1.2 1.8 2.6 1.8 4.3v86.6h13c.9 0 1.6.3 2.1.9.6.6.9 1.3.9 2.1v10.6c0 .9-.3 1.6-.9 2.1-.6.6-1.3.9-2.1.9h-24c-1.7-.1-3.1-.7-4.3-1.9zM322 107.7c-5.2-3-9.3-7.2-12.3-12.4s-4.6-10.9-4.6-17.1V62.8c0-6.2 1.5-11.9 4.6-17.1 3-5.2 7.2-9.4 12.3-12.4 5.2-3 10.9-4.6 17-4.6 6.2 0 11.9 1.5 17 4.6 5.2 3 9.3 7.2 12.3 12.4s4.6 10.9 4.6 17.1v9.6c0 1.7-.6 3.2-1.8 4.4-1.2 1.2-2.6 1.8-4.3 1.8h-44.6v.7c0 4.7 1.6 8.6 4.9 11.9 3.3 3.3 7.2 4.9 11.9 4.9h22.7c.9 0 1.6.3 2.1.9.6.6.9 1.3.9 2.1v10.3c0 .9-.3 1.6-.9 2.1-.6.6-1.3.9-2.1.9H339c-6.1-.1-11.8-1.6-17-4.7zm33.9-44.6v-1.3c0-4.7-1.6-8.6-4.9-11.9-3.3-3.3-7.2-4.9-11.9-4.9s-8.6 1.6-11.9 4.9c-3.3 3.3-4.9 7.3-4.9 11.9v1.3h33.6zM406.2 109.6c-5.2-3-9.3-7.2-12.3-12.4s-4.6-10.9-4.6-17.1V62.8c0-6.2 1.5-11.9 4.6-17.1 3-5.2 7.2-9.4 12.3-12.4 5.2-3 10.9-4.6 17-4.6 4.8 0 9.3 1 13.7 2.9 4.4 1.9 8.1 4.7 11.3 8.2.7.7 1 1.4 1 2.3 0 1-.4 2-1.3 2.9l-6.1 6.1c-.7.7-1.4 1-2.3 1-.9 0-1.7-.4-2.4-1.3-3.7-3.7-8.3-5.6-13.8-5.6-4.7 0-8.6 1.6-11.9 4.9-3.3 3.3-4.9 7.2-4.9 11.9v18.7c0 4.7 1.6 8.6 4.9 11.9 3.3 3.3 7.2 4.9 11.9 4.9 5.5 0 10.1-1.9 13.8-5.6.8-.9 1.6-1.3 2.4-1.3.9 0 1.6.3 2.3 1l6.1 6.1c.9.9 1.3 1.8 1.3 2.9 0 .9-.3 1.6-1 2.3-3.1 3.5-6.9 6.3-11.3 8.2-4.4 1.9-8.9 2.9-13.7 2.9-6.2.2-11.9-1.4-17-4.4zM479.2 109.7c-5.2-3-9.3-7.1-12.3-12.2s-4.6-10.7-4.6-16.7V62.1c0-6 1.5-11.5 4.6-16.7 3-5.1 7.2-9.2 12.3-12.2 5.2-3 10.9-4.5 17-4.5 6.2 0 11.9 1.5 17 4.5 5.2 3 9.3 7.1 12.3 12.2s4.6 10.7 4.6 16.7v18.7c0 6-1.5 11.5-4.6 16.7-3 5.1-7.2 9.2-12.3 12.2-5.2 3-10.9 4.5-17 4.5-6.2 0-11.9-1.5-17-4.5zm28.9-17c3.3-3.3 4.9-7.2 4.9-11.9V62.1c0-4.7-1.6-8.6-4.9-11.9-3.3-3.3-7.3-4.9-11.9-4.9-4.7 0-8.6 1.6-11.9 4.9-3.3 3.3-4.9 7.2-4.9 11.9v18.7c0 4.7 1.6 8.6 4.9 11.9s7.2 4.9 11.9 4.9 8.6-1.6 11.9-4.9zM563.4 109.7c-4.8-3-8.7-7-11.6-12-2.9-5-4.3-10.5-4.3-16.3V61.5c0-5.8 1.4-11.2 4.3-16.3 2.9-5 6.7-9.1 11.6-12 4.8-3 10.1-4.5 15.8-4.5 3.6 0 7.1.6 10.5 1.7 3.4 1.1 6.3 2.8 8.8 4.8V6.1c0-.9.3-1.6.9-2.1.6-.6 1.3-.9 2.1-.9h11.1c.9 0 1.6.3 2.1.9.6.6.9 1.3.9 2.1v103.2c0 .9-.3 1.6-.9 2.1-.6.6-1.3.9-2.1.9h-9.3c-.9 0-1.6-.3-2.1-.9-.6-.6-.9-1.3-.9-2.1v-6.8c-2.6 3.9-5.7 6.8-9.3 8.8-3.6 1.9-7.6 2.9-12 2.9-5.6 0-10.8-1.5-15.6-4.5zm29.9-16.9c3.3-3.3 5-7.2 5-11.9V62c0-4.7-1.7-8.6-5-11.9-3.3-3.3-7.3-4.9-12-4.9s-8.6 1.6-11.9 4.9-4.9 7.3-4.9 11.9v19c0 4.7 1.6 8.6 4.9 11.9s7.2 4.9 11.9 4.9 8.7-1.7 12-5zM652.7 107.7c-5.2-3-9.3-7.2-12.3-12.4s-4.6-10.9-4.6-17.1V62.8c0-6.2 1.5-11.9 4.6-17.1 3-5.2 7.2-9.4 12.3-12.4 5.2-3 10.9-4.6 17-4.6 6.2 0 11.9 1.5 17 4.6 5.2 3 9.3 7.2 12.3 12.4s4.6 10.9 4.6 17.1v9.6c0 1.7-.6 3.2-1.8 4.4-1.2 1.2-2.6 1.8-4.4 1.8h-44.6v.7c0 4.7 1.6 8.6 4.9 11.9 3.3 3.3 7.2 4.9 11.9 4.9h22.7c.9 0 1.6.3 2.1.9.6.6.9 1.3.9 2.1v10.3c0 .9-.3 1.6-.9 2.1-.6.6-1.3.9-2.1.9h-22.7c-6-.1-11.7-1.6-16.9-4.7zm33.9-44.6v-1.3c0-4.7-1.6-8.6-4.9-11.9-3.3-3.3-7.3-4.9-11.9-4.9-4.7 0-8.6 1.6-11.9 4.9-3.3 3.3-4.9 7.3-4.9 11.9v1.3h33.6z"/>
</svg>