<svg xmlns="http://www.w3.org/2000/svg" viewBox="0 0 257.01 38.1"><defs><style>.cls-1{fill:#fff;}</style></defs><g id="Layer_2" data-name="Layer 2"><g id="BW_1" data-name="BW 1"><g id="NETOKRACIJA_" data-name="NETOKRACIJA
"><g id="TYPE"><polygon class="cls-1" points="105.2 29.36 107.19 12.68 100.41 12.68 100.84 9.03 118.05 9.03 117.61 12.68 110.83 12.68 108.84 29.36 105.2 29.36"/><path class="cls-1" d="M173.25,29.36l.22-1.82a5.78,5.78,0,0,0-1.87-5.09h-6.88l-.82,6.9h-3.65L162.67,9h9.94a5.9,5.9,0,0,1,4.5,2,6,6,0,0,1,1.41,4.76,7.69,7.69,0,0,1-3,5.13l-.06.05,0,.06a9.24,9.24,0,0,1,1.62,6.55l-.22,1.83Zm-8.09-10.55h6.29a3.55,3.55,0,0,0,3.42-3,2.75,2.75,0,0,0-.65-2.19,2.72,2.72,0,0,0-2.06-.89h-6.27Z"/><path class="cls-1" d="M152,29.36l.22-1.82a5.7,5.7,0,0,0-3-5.87,13.21,13.21,0,0,1-4.37.79h-.38l-.09.07-.81,6.84h-3.65L142.35,9H146l-1.16,9.76h.48a9.22,9.22,0,0,0,8.9-7.95L154.44,9h3.64l-.21,1.81A13.34,13.34,0,0,1,153,19.46l-.07.06.07.06a9,9,0,0,1,2.89,8l-.22,1.83Z"/><polygon class="cls-1" points="222.02 29.36 224.44 9.03 228.09 9.03 225.67 29.36 222.02 29.36"/><path class="cls-1" d="M232.87,9l-2.38,20a6.3,6.3,0,0,1-6.07,5.42L224,38.1A10.54,10.54,0,0,0,234.14,29l2.38-20Z"/><path class="cls-1" d="M194.76,29.36l.6-5h-9.58l-.61,5h-3.64l1.41-11.88A9.8,9.8,0,0,1,192.4,9a7.43,7.43,0,0,1,5.65,2.45,7.55,7.55,0,0,1,1.78,6l-1.42,11.9ZM192,12.68a5.55,5.55,0,0,0-5.36,4.78l-.38,3.22h9.59l.38-3.2a4.27,4.27,0,0,0-1-3.4A4.19,4.19,0,0,0,192,12.68Z"/><path class="cls-1" d="M251.88,29.36l.61-5H242.9l-.6,5h-3.65l1.41-11.88A9.8,9.8,0,0,1,249.52,9a7.42,7.42,0,0,1,5.65,2.45,7.51,7.51,0,0,1,1.78,6l-1.42,11.9Zm-2.81-16.68a5.53,5.53,0,0,0-5.35,4.78l-.39,3.22h9.59l.38-3.2a4.31,4.31,0,0,0-1-3.4A4.21,4.21,0,0,0,249.07,12.68Z"/><path class="cls-1" d="M210.62,29.36A7.41,7.41,0,0,1,205,26.89a7.53,7.53,0,0,1-1.76-6l.41-3.45a9.58,9.58,0,0,1,3.19-6A9.47,9.47,0,0,1,213.06,9a7.43,7.43,0,0,1,5.67,2.47l1.13,1.28L217,15.37l-1.14-1.29a4.22,4.22,0,0,0-3.22-1.4,5.55,5.55,0,0,0-5.36,4.78l-.41,3.45a4.29,4.29,0,0,0,1,3.39,4.23,4.23,0,0,0,3.23,1.41,5.36,5.36,0,0,0,3.55-1.4L216.07,23l2.27,2.57-1.45,1.29A9.45,9.45,0,0,1,210.62,29.36Z"/><path class="cls-1" d="M127.15,29.36a7.41,7.41,0,0,1-5.66-2.47,7.49,7.49,0,0,1-1.76-6l.41-3.45a9.58,9.58,0,0,1,3.19-6A9.45,9.45,0,0,1,129.6,9a7.42,7.42,0,0,1,5.66,2.47,7.53,7.53,0,0,1,1.76,6l-.41,3.45a9.53,9.53,0,0,1-3.19,6A9.43,9.43,0,0,1,127.15,29.36Zm2-16.68a5.53,5.53,0,0,0-5.35,4.78l-.41,3.45a4.29,4.29,0,0,0,1,3.39,4.23,4.23,0,0,0,3.23,1.41A5.55,5.55,0,0,0,133,20.93l.41-3.45a4.31,4.31,0,0,0-1-3.4A4.25,4.25,0,0,0,129.14,12.68Z"/><polygon class="cls-1" points="80.63 29.36 83.05 9.03 96.89 9.03 96.46 12.68 86.27 12.68 85.71 17.37 94.79 17.37 94.35 21.02 85.27 21.02 84.71 25.71 94.9 25.71 94.47 29.36 80.63 29.36"/><polygon class="cls-1" points="62.67 15.86 61.06 29.36 57.41 29.36 59.87 9.03 63.02 9.03 73 22.52 74.6 9.03 78.22 9.03 75.8 29.36 72.64 29.36 62.67 15.86"/></g><path id="MARK" class="cls-1" d="M45.28,0l-.39,3.11h0A8.06,8.06,0,0,1,41,8.73c-3.08,1.46-8-1.19-12.67-3.74C24.08,2.68,19.67.29,15.46.15A12.12,12.12,0,0,0,7,2.91a11.06,11.06,0,0,0-3.63,7.15L0,37.24H3.44L3.72,35a6.64,6.64,0,0,1,3.77-4.52c3.57-1.59,8.94.75,14.13,3,4.18,1.83,8.52,3.72,12.49,3.84h.77a10.47,10.47,0,0,0,6.89-2.44,11.24,11.24,0,0,0,3.6-7.46L48.72,0ZM23.19,12.55a3.65,3.65,0,0,1-1.13,2.63c.94.44,1.88.9,2.81,1.37,3.54,1.78,7.2,3.63,10.57,4.13a9.32,9.32,0,0,0,7.12-1.42l.37-.28c0-.06,0,7.21-7.37,6.56l-.28,0a3.63,3.63,0,0,1,.43,1.67A3.69,3.69,0,0,1,35.18,29a9.45,9.45,0,0,0,6.74-1.76c0,.2,0,6.8-7.22,6.57-3.35-.1-7.4-1.87-11.32-3.58-6-2.64-11.71-5.27-16.95-2.93a9.29,9.29,0,0,0-1.86,1.12c0-.09.27-8.23,8.64-7.14,3.08.41,6.66,2.09,10.13,3.71,1.35.64,2.71,1.27,4.08,1.85a3.24,3.24,0,0,0,3.19,2.65,3.3,3.3,0,0,0,3.26-3.25,3.32,3.32,0,0,0-.19-1.06h0a3.24,3.24,0,0,0-4.81-1.69c-1.23-.52-2.47-1.1-3.69-1.68-3.68-1.72-7.48-3.5-11-4a11.35,11.35,0,0,0-8.51,1.9c0-.08.09-7.95,8.42-7.3.31,0,.64.08,1,.14a3.24,3.24,0,1,0,6.21-1.86v0h0A3.23,3.23,0,0,0,16,9.17c-.4-.06-.8-.13-1.19-.16-3.63-.29-5.56.17-8.11,2,0,0-.11-7.69,8.18-7.42C18.31,3.73,22.4,6,26.35,8.09c4.34,2.35,8.5,4.61,12.34,4.54a8.52,8.52,0,0,0,5.25-1.94c0-.09-.48,7.58-7.52,6.55-2.87-.42-6.31-2.16-9.63-3.83-1.24-.62-2.49-1.24-3.74-1.82A3.71,3.71,0,0,1,23.19,12.55Z"/></g></g></g></svg>