<svg width="639" height="150"
  xmlns="http://www.w3.org/2000/svg">
  <g fill="#fff" fill-rule="evenodd">
    <path d="M322.6 57.174h4.493c5.29 0 10.582.03 15.872-.022 1.257-.012 2.26.318 3.264 1.076 9.248 6.983 18.526 13.926 27.794 20.881 1.969 1.478 2.015 1.475 4.036-.044 9.263-6.962 18.534-13.915 27.784-20.895.903-.682 1.809-1.02 2.962-1.007 4.534.054 9.07.057 13.604-.002 1.123-.014 1.568.155 1.562 1.451a5096.17 5096.17 0 0 0-.014 36.99c.003 1.014-.208 1.385-1.314 1.368-4.48-.065-8.962-.064-13.442 0-1.089.016-1.322-.324-1.317-1.35.038-9.423.026-18.846.013-28.268 0-.56.273-1.3-.391-1.614-.656-.31-1.062.368-1.507.702-11.298 8.472-22.595 16.944-33.86 25.46-1.168.884-2.034 1.013-3.273.079-15.061-11.358-30.16-22.667-45.247-33.99-.241-.182-.471-.376-1.018-.815M238.822 96.943h-10.777c-2.106 0-4.212-.04-6.316.017-1.058.028-1.837-.34-2.572-1.076-5.94-5.954-11.905-11.882-17.855-17.826-.4-.4-1.057-.743-.828-1.444.266-.814 1.04-.615 1.662-.63 5.504-.131 11.01-.208 16.511-.393 2.81-.094 5.584-.536 8.213-1.602 2.728-1.107 4.114-2.854 4.076-5.06-.045-2.563-1.48-4.397-4.305-5.438-3.252-1.198-6.658-1.265-10.06-1.268-16.788-.014-33.576-.03-50.365.027-1.903.006-3.446-.362-4.765-1.807-.997-1.09-2.202-1.993-3.301-2.968.26-.414.558-.282.798-.282 22.78-.004 45.562-.019 68.342.02 4.269.008 8.515.398 12.578 1.868 3.723 1.348 6.574 3.538 7.043 7.782.516 4.663-1.576 7.994-5.565 10.234-3.453 1.938-7.26 2.65-11.144 3.028-1.719.167-3.444.26-5.164.406-.47.04-1.06-.026-1.26.526-.207.573.356.846.678 1.17 4.46 4.46 8.923 8.916 13.407 13.352.367.362.891.565 1.342.842l-.373.522zM638.794 57.253c-.171.243-.197.293-.234.331-4.417 4.633-4.417 4.626-10.814 4.634-10.851.014-21.704-.025-32.555.083-5.306.052-10.389 1.203-14.897 4.178-8.792 5.802-8.879 17.046-.197 22.99 1.382.947 2.883 1.675 4.44 2.29 3.496 1.386 7.158 1.95 10.886 2.212.51.035 1.062-.132 1.725.33-1.88 1.22-3.326 2.815-5.84 2.682-5.054-.27-10.149.376-15.17-.696-5.862-1.252-11.039-3.74-14.801-8.546-7.372-9.417-3.495-22.652 8.042-27.647 5.101-2.209 10.531-2.81 15.984-2.844 17.547-.111 35.094-.056 52.641-.063.201 0 .402.033.79.066M455.747 79.1c3.421-3.4 6.516-6.472 9.606-9.549 3.744-3.728 7.5-7.446 11.212-11.206.818-.828 1.684-1.19 2.858-1.18 5.237.047 10.474.04 15.71.003 1.049-.007 1.847.292 2.59 1.034 12.707 12.686 25.43 25.354 38.15 38.028.145.145.272.308.63.713h-3.05c-4.644 0-9.288-.043-13.93.027-1.36.021-2.32-.427-3.266-1.374-10.626-10.649-21.285-21.264-31.937-31.888-1.667-1.663-1.987-1.663-3.646-.007-4.696 4.683-9.408 9.35-14.069 14.069-.945.957-1.946 1.393-3.291 1.35-2.36-.074-4.724-.02-7.567-.02M294.79 77.22c0 6.085-.039 12.17.031 18.255.015 1.237-.338 1.518-1.533 1.498-4.426-.074-8.854-.06-13.28-.007-1.037.013-1.36-.24-1.356-1.322.04-12.385.04-24.77 0-37.155-.003-1.072.302-1.34 1.348-1.328 4.481.057 8.963.071 13.443-.006 1.225-.022 1.376.439 1.369 1.488-.045 6.192-.022 12.385-.022 18.577M109.5 21.555c-.885 15.461-3.38 30.657-7.601 45.566-2.182 7.708-4.804 15.258-8.078 22.849-6.465-6.471-12.748-12.762-19.034-19.05-2.553-2.553-5.118-5.096-7.666-7.655-.36-.362-.975-.684-.692-1.32.26-.583.913-.477 1.432-.524 3.868-.348 7.738-.686 11.435-1.993 3.415-1.208 6.476-2.948 8.615-5.981 3.686-5.228 2.445-11.753-2.944-15.186-4.959-3.158-10.584-3.944-16.28-3.978-17.54-.103-35.084-.047-52.626-.054-2.254 0-2.272.002-2.54-2.194-.441-3.633-.755-7.28-.88-10.937-.069-2.01.678-3.009 2.636-3.455 10.318-2.348 20.752-3.946 31.309-4.728a197.259 197.259 0 0 1 32.66.3 208.11 208.11 0 0 1 27.439 4.374c2.243.513 2.956 1.505 2.815 3.966m-21.78 85.649c-2.24-.685-2.228-.74-3.447 1.249-5.749 9.382-12.549 17.889-20.96 25.057-2.012 1.715-2.445 1.73-4.4.067-12.125-10.31-20.868-23.137-27.74-37.318-7.958-16.422-13.01-33.754-15.95-51.722-.173-1.053-.585-1.723-1.573-2.184-1.51-.703-2.952-1.548-4.423-2.331l.057-.313h.91c15.709.009 31.417.007 47.126.033 3.14.006 6.253.371 9.245 1.363 4.367 1.447 6.272 4.201 5.757 8.131-.327 2.493-1.86 4.045-3.996 5.103-3.422 1.696-7.144 2.029-10.867 2.12-4.855.118-9.716.036-14.574.065-.658.004-1.51-.308-1.872.535-.365.85.457 1.242.92 1.704a94652.646 94652.646 0 0 0 48.098 47.967c.416.413.858.8 1.211 1.368-1.3.136-2.382-.546-3.522-.894m31.522-99.166A220.128 220.128 0 0 0 61.084 0C41.446.078 22.168 2.748 3.239 7.952.522 8.698-.011 9.378 0 12.119c.062 16.536 2.063 32.848 5.862 48.933 4.842 20.495 12.26 39.949 23.894 57.644 7.8 11.863 17.193 22.228 29.02 30.258 1.865 1.266 2.698 1.273 4.56.023a86.733 86.733 0 0 0 8.466-6.49c13.09-11.343 22.75-25.255 30.186-40.73 13.676-28.462 19.803-58.645 20.155-90.091.023-2.155-.691-3.015-2.901-3.628"/>
  </g>
</svg>