<svg width="157" height="157" viewBox="0 0 157 157" fill="none" xmlns="http://www.w3.org/2000/svg">
<path d="M94.1804 115.428L85.42 99.982C84.8605 98.966 85.047 98.0438 86.166 98.0438H89.3364C90.7352 98.0438 91.2947 98.7836 91.8541 99.7946L97.5423 110.314L103.044 99.7946C103.603 98.7786 104.256 98.0438 105.375 98.0438H108.546C109.758 98.0438 109.944 99.0597 109.292 99.982L100.158 115.492V123.412C100.158 124.428 99.7852 125.163 98.7594 125.163H95.589C94.5633 125.163 94.1903 124.611 94.1903 123.412V115.428H94.1804Z" fill="white"/>
<path d="M52.7634 66.7569C52.7634 65.5594 53.3131 65.0075 54.6824 65.0075H69.6757C70.6818 65.0075 71.4131 65.3771 71.4131 66.3923V68.6986C71.4131 69.7138 70.8634 70.0834 69.6757 70.0834H58.5252V75.8887H67.5752C68.5813 75.8887 69.3126 76.2583 69.3126 77.2735V79.5798C69.3126 80.595 68.7629 80.9646 67.5752 80.9646H58.5252V87.0508H69.6757C70.8634 87.0508 71.4131 87.4204 71.4131 88.4356V90.7419C71.4131 91.7571 70.6818 92.1267 69.6757 92.1267H54.6873C53.318 92.1267 52.7683 91.5748 52.7683 90.3772V66.7569H52.7634Z" fill="white"/>
<path d="M91.6971 87.049H84.9194C81.4397 87.049 80.2471 83.8199 80.2471 80.4085V76.9033C80.2471 73.3982 81.4397 70.0804 84.9194 70.0804H91.8787C93.0713 70.0804 93.6209 69.7106 93.6209 68.6951V66.3879C93.6209 65.3724 92.8897 65.0026 91.8787 65.0026H84.9194C78.3233 65.0026 74.4805 69.7994 74.4805 76.4399V80.6845C74.4805 87.2314 78.3282 92.1218 84.9194 92.1218H91.6971C92.8897 92.1218 93.4393 91.7521 93.4393 90.7365V88.4294C93.4393 87.4138 92.7032 87.049 91.6971 87.049Z" fill="white"/>
<path d="M46.9428 120.085H40.1651C36.6855 120.085 35.4929 116.767 35.4929 113.445V109.939C35.4929 106.434 36.6855 103.117 40.1651 103.117H47.1244C48.317 103.117 48.8667 102.747 48.8667 101.731V99.424C48.8667 98.4085 48.1354 98.0388 47.1244 98.0388H40.1651C33.569 98.0388 29.7262 102.836 29.7262 109.476V113.721C29.7262 120.268 33.5739 125.158 40.1651 125.158H46.9428C48.1354 125.158 48.6851 124.788 48.6851 123.773V121.465C48.6802 120.455 47.9489 120.085 46.9428 120.085Z" fill="white"/>
<path d="M129.08 33.3518C129.08 32.3362 128.344 31.9665 127.328 31.9665H108.251C107.235 31.9665 106.499 32.3362 106.499 33.3518V35.659C106.499 36.6745 107.054 37.0443 108.251 37.0443H115.205V57.3356C115.205 58.3512 115.574 59.0857 116.589 59.0857H119.721C120.737 59.0857 121.105 58.3462 121.105 57.3356V37.0393H127.328C128.525 37.0393 129.08 36.6696 129.08 35.654V33.3518V33.3518Z" fill="white"/>
<path d="M83.7514 99.4291C83.7514 98.4136 83.0152 98.0438 81.9993 98.0438H62.9275C61.9116 98.0438 61.1754 98.4136 61.1754 99.4291V101.736C61.1754 102.752 61.73 103.122 62.9275 103.122H69.8819V123.413C69.8819 124.428 70.25 125.163 71.2659 125.163H74.3971C75.413 125.163 75.7811 124.424 75.7811 123.413V103.122H82.0042C83.2017 103.122 83.7563 102.752 83.7563 101.736V99.4291H83.7514Z" fill="white"/>
<path d="M27.92 66.3879C27.92 65.3724 28.6562 65.0026 29.6721 65.0026H48.7488C49.7647 65.0026 50.5009 65.3724 50.5009 66.3879V68.6951C50.5009 69.7106 49.9463 70.0804 48.7488 70.0804H41.7895V90.3717C41.7895 91.3873 41.4214 92.1218 40.4055 92.1218H37.2743C36.2584 92.1218 35.8903 91.3824 35.8903 90.3717V70.0754H29.6721C28.4746 70.0754 27.92 69.7106 27.92 68.6951V66.3879Z" fill="white"/>
<path d="M44.3073 51.7044C44.3073 50.5062 43.1245 49.5841 40.6657 48.5684C36.2928 46.9116 29.736 44.6977 29.736 39.9001C29.736 35.4723 32.3764 31.9665 38.7516 31.9665H46.7661C47.7673 31.9665 48.4936 32.3363 48.4936 33.352V35.6596C48.4936 36.6754 47.7673 37.0452 46.7661 37.0452H39.1148C37.3872 36.9515 35.2916 37.415 35.2916 39.0767C35.2916 40.4622 36.656 41.1969 38.57 42.0302C43.3944 43.968 49.858 46.2756 49.858 51.162C49.858 56.4083 46.398 59.0857 40.8472 59.0857H31.8316C30.8304 59.0857 30.104 58.7159 30.104 57.7002V55.3926C30.104 54.3768 30.8304 54.007 31.8316 54.007H40.4792C42.2116 54.012 44.3073 53.4597 44.3073 51.7044Z" fill="white"/>
<path fill-rule="evenodd" clip-rule="evenodd" d="M63.9729 31.9665H55.2468C54.0542 31.9665 53.318 32.7061 53.318 34.2741V57.3353C53.318 58.351 53.6861 59.0857 54.6971 59.0857H57.8234C58.8344 59.0857 59.2025 58.3461 59.2025 57.3353V51.1521L64.6256 49.9539C69.8622 48.7558 74.9173 47.0004 74.9173 41.6505V39.3429C74.8191 33.7169 69.5776 31.9665 63.9729 31.9665ZM68.7531 41.4681C68.7531 43.7757 66.6378 44.604 64.3409 45.1563L59.1976 46.3545V36.9466H64.3409C66.6378 36.9466 68.7531 37.6862 68.7531 40.0825V41.4681Z" fill="white"/>
<path d="M80.3256 59.0857H92.4136C93.3853 59.0857 94.092 58.7159 94.1804 57.7002V55.3926C94.1804 54.3768 93.6503 54.007 92.5019 54.007H84.1194V33.7169C84.1194 32.7012 83.766 31.9665 82.7942 31.9665H79.7956C78.8238 31.9665 78.4705 32.7061 78.4705 33.7169V57.3304C78.4754 58.5335 79.0054 59.0857 80.3256 59.0857Z" fill="white"/>
<path d="M57.2246 98.0438H54.0934C53.0824 98.0438 52.7144 98.7833 52.7144 99.8038V123.403C52.7144 124.419 53.0824 125.163 54.0934 125.163H57.2246C58.2356 125.163 58.6037 124.424 58.6037 123.403V99.8038C58.6037 98.7882 58.2356 98.0438 57.2246 98.0438Z" fill="white"/>
<path d="M102.185 31.9665H99.0539C98.0429 31.9665 97.6748 32.706 97.6748 33.7265V57.3257C97.6748 58.3413 98.0429 59.0857 99.0539 59.0857H102.185C103.196 59.0857 103.564 58.3462 103.564 57.3257V33.7265C103.564 32.706 103.196 31.9665 102.185 31.9665Z" fill="white"/>
<path d="M119.117 65.0075H115.986C114.975 65.0075 114.607 65.7469 114.607 66.7674V75.8384H102.902V66.7674C102.902 65.7519 102.533 65.0075 101.522 65.0075H98.3913C97.3803 65.0075 97.0122 65.7469 97.0122 66.7674V90.3667C97.0122 91.3823 97.3803 92.1267 98.3913 92.1267H101.522C102.533 92.1267 102.902 91.3872 102.902 90.3667V80.9211H114.607V90.3618C114.607 91.3774 114.975 92.1218 115.986 92.1218H119.117C120.128 92.1218 120.496 91.3823 120.496 90.3618V66.7625C120.496 65.7469 120.128 65.0075 119.117 65.0075Z" fill="white"/>
</svg>
