<svg version="1.1" id="prefix__Layer_1"
  xmlns="http://www.w3.org/2000/svg" x="0" y="0" viewBox="0 0 64.8 31.7" xml:space="preserve">
  <style>.prefix__st0{fill:#fff}</style>
  <g id="prefix__Layer_2_1_">
    <g id="prefix__Layer_1-2">
      <g id="prefix__Szst_logo">
        <path class="prefix__st0" d="M32.8 5.5H8.9v6.8h22.8c3.6 0 6 .5 7.2 1.6 1.3 1.1 1.9 3 1.9 5.9v4.4c0 2.9-.6 4.8-1.9 5.9s-3.7 1.6-7.2 1.6H9.1c-3.6 0-6-.5-7.2-1.6C.6 29 0 27 0 24.2v-.9l7.5-1.4v3.8h25.8v-7.2H10.5c-3.5 0-5.9-.5-7.2-1.6s-1.9-3-1.9-5.9V7.5c0-2.9.6-4.8 1.9-5.9S7 0 10.5 0h20.7c3.4 0 5.8.5 7.1 1.5s2 2.8 2 5.4v.7l-7.5 1.5V5.5zM45.6 14.9v-1.6L57.5 2.8H46.8V.1h17.1v1.5L51.8 12.1h12.1v2.8H45.6zM56.9 19.4v12.1H53V19.4h-7.8v-2.6h19.6v2.6h-7.9z"/>
      </g>
    </g>
  </g>
</svg>