<svg xmlns="http://www.w3.org/2000/svg" viewBox="0 0 161 161">
  <path fill-rule="evenodd" fill="#fff" d="M59.71 128.44v-12.36c-4.24-.27-8.47-.76-12.08-3.19-2.22-2.5-2.22-2.5-3.82-4.1a35.61 35.61 0 0 0-7.57-3.88c-4-2.85-5.9-9.17-3-13.47 3.05-2.57 3.26-2.5 7.22-2.5a4.8 4.8 0 0 0 2.15.55c.42-.55.35-3.4.28-5V83h13.56A6.16 6.16 0 0 1 58 78.87c.9-2.85-.69-5.9-1-8.75a3.73 3.73 0 0 1 .42-3.19c1-2.29 1.94-4.38 1-6.94-1-1-.28-2.16.62-2.92a31.222 31.222 0 0 0 4.1-1.87 2.37 2.37 0 0 1 1.98-1.2c2-1.81 5.77-2.09 7.15-4.45-.48-4.65-5.13-6.32-7.08-10.13-.9-4 4-6.25 6-9.1a72.24 72.24 0 0 1 6.46-4.51h2.29c4.31 2.08 8.33 5.41 11.94 8.54a4 4 0 0 1 .28 2.22c1.25 1.67.49 2.15-.35 3.89-1.66 2.29-3.26 4.51-4.93 6.8-.34 1.46-.2 1.81.63 2.22a3.76 3.76 0 0 1 1.25.77c.9.83 2.15 1.11 2.78 2.22.63 1.11 1.11 1.18 2.77 1.39.694.322 1.417.576 2.16.76 1.59.56 2.43 1.87 3.88 2.78.7.41 1 .34 1 1.25 0 .91.13 1.59-.63 2.15-.07 1.73-.35 4.3.42 5.35.77 1.05 1.39 1.66.83 3.4a11.005 11.005 0 0 0-.47 6.45c.49 3.68.84 2.92 1.6 3.75 1.11.49 1.18 2.29.9 3.34h12.64v.27h.14v6c.55 0 1.11-.06 1.73-.06 9.52-2.92 12.85 5.13 7 12.21-1.46 1.81-3.27 2.23-5.07 3.62-3.13 2.29-4.58 5.34-6.74 8s-8.33 2.57-11.59 1.94v13.4h-1.88v-12.25H61.72v12.22h-2.01zm1.39-13.81a1.541 1.541 0 0 1 .07-.56c2.91-2.85 3.26-3.33 3.68-3.61 1.38 0 2.63.42 4 .42 1.693-.336 3.415-.5 5.14-.49a9.78 9.78 0 0 0 5.42 3.33c.55.42.62.49.2.91H61.1zm22.35 0a1.482 1.482 0 0 1 .91-1.67 8.82 8.82 0 0 0 2.7-2.64c2.92.35 3.75.07 6.25-1.32 2 0 2.78 1.88 4.24 3.13.76.41 4 1.73 1.18 2.43-5.07 0-10.21 0-15.28.07zm-3.26-4.24c.21-1.87 1.32-3.89.49-6.46-.35 0-.7-.06-1.05-.06-1.73 1-3.74 6-3.95 6-1-3.27 0-5.35 2-7.92.07-.07 2.57-1.94 1-2.08-.916.551-1.892.993-2.91 1.32-2.36 1.18-4.52 4.23-6.74 4-2.22-.23-2.08-1.52-1.59-3.12s.34-3.06.83-4.44c.55-1.88 1.94-1.6 3.54-1.6 4.65 1.73 9.44 1.67 14.3.83 2.85-1 1.6 1.11 2.15 2.92.33.972.724 1.921 1.18 2.84-.07 2-1.66.77-2.57 0a28.554 28.554 0 0 0-3-2.84c-1.25-1-.63-.21-.35.83 2.64 2.22 3.47 4.72 3 8.33-2-1.59-1.53-5.76-4-5.62-.76 2.22.42 5.83-2.36 7l.03.07zm-9.51-.48a3.092 3.092 0 0 1-.35-3.34c2 0 1.67 1.18 1.32 2.92a1.6 1.6 0 0 1-1 .42h.03zm23.6-3.68a7.066 7.066 0 0 1-2.77-3.13 27.563 27.563 0 0 1-1.81-4.51 2 2 0 0 1 .14-1.53c1.39-.42 5.69-1.46 6.39.07 0 1.81-.14 2.43-.14 5.14.76 2.43 1 3.75-1.81 4v-.04zM65.12 105c-1.18-.84-3 0-3.75-1.46-.06-1.32-.13-2.64-.27-4-.42-.9-2-2.43-1-3.4 1.87.28 4.23 1.32 6.45 1.53v1.73c-1.11 2-.69 3.06-.34 5.21a.996.996 0 0 0-.21.28c-.28 0-.56.07-.84.07l-.04.04zm-8.26-.63c-4-.83-9.09-1.87-12.91-2.78-3.82-.91-9.58-5.27-6-9.37 1.18-.62 4-.69 4.86.49 0 .55.07 1.32.07 1.94.598-.058 1.2-.082 1.8-.07 4.1.21 10.69.49 13.33 4.1 1.25 3.33 2.92 6.66-1.18 5.69h.03zm44.14-.57c-2.5-.49-2.08-1.46-2.78-3.55-.21-.83-.55-1.66-.83-2.56 0-2.43 2.64-1.88 4.37-1.88a19.67 19.67 0 0 1 3.33-1.18c3.89 0 7.78 0 11.67.07v-3c.69-.13 1.39-.2 2.15-.34 6.46.28 4.58 6.94.63 8.54-1.6.62-4 1.18-5.42 2.08-3.68 2.43-8.68 1.67-13.12 1.81v.01zM44.3 93.1v-8.19h71v8.19h-71zM61 79.7a23.318 23.318 0 0 0 5.55-1.32c1.18 0 1.18.21.7 1.25a8.829 8.829 0 0 0-.88 2.37 10.13 10.13 0 0 1-3.26.14 7.079 7.079 0 0 0-1.46.7c-.553.303-1.132.557-1.73.76-2.85.63.34-3.33 1.11-3.89L61 79.7zm20.2 4c-.64-.05-1.27-.19-1.87-.42V82.2c1.32-.21 2.29-.62 3.4.21h2.57c.55-.76.28-1.18-.14-1.87-.42-.69-.21-.49.55-.77.07-1.59-.83-2.84 1.32-3.33 1.67.56 3.2 1 4.17 2.57.21 1.6.62 2.5.07 4-3.4.34-6.67.55-10.07.69zm-7.84-.14c-.63-.28-1.18-.48-1.81-.76-1.6-1.67 1.11-4.45 2.36-5.42 3-1.52 5.07-1.32 8.54-1.32 1.11-.69 1.32-.83 2.36 0a2 2 0 0 0-.14.63c-1.52.76-8.12-1-6.73 2.29-.49 1-1 1.8.21 2.5a1 1 0 0 1-.7 1.11c0 .42 0 .56.35.83-1.53.07-3 .07-4.44.14zM93.73 83c-.28-.14-.63-.21-.9-.35a28.401 28.401 0 0 1-.56-4.17c1.6-1.32 3.06 3.2 2.57 4.17-.35.14-.76.21-1.11.35zm-25.62-.28c-1.67-1.32.42-4.24 1.74-5.07a6.133 6.133 0 0 1 1.52-.14c.21.21.21.21.14 1A8.841 8.841 0 0 0 70.19 81c0 .35-.07.63-.07.77-.07.9-.07.9-.9.9a5.926 5.926 0 0 1-1.11.07v-.02zm32.42-.21a25.647 25.647 0 0 1-3.19-.28 4.66 4.66 0 0 1-2-3.75c.83-.41 1.59.7 2.43.91 1 0 1.94 0 2.84-.07.77 1.59 3 3.75-.07 3.19h-.01zm-16.59-.42c-.76-.27-1.53-.55-2.36-.76-1.25.21-4.24-.21-2.08-1.8 1.66.2 5.2-.07 5.2 2.29-.263.059-.519.15-.76.27zm-.14-2.77a1.33 1.33 0 0 1-.69-.56c-1.25-.55-3.27.42-4.1-.62.35-1.11 4.58-.56 5.55-.35.23.359.329.786.28 1.21a1.83 1.83 0 0 1-1 .35l-.04-.03zm-24-.84c.83-2.36.48-5.27-1-8.33a3.91 3.91 0 0 1 0-2c.83-1.39 1.59-2.15 1.94-3.75 1.67-1 1.87 1.67 1.74 2.78a11.33 11.33 0 0 0-.56 4.86c.49 1.66 3 5.83-.07 6.11a7.17 7.17 0 0 0-1 .14c-.337.044-.672.11-1 .2l-.05-.01zm38-.34c-.14-2.57.48-5.35.76-7.92 0-2.22-.42-4.44-.42-6.73-.21-.91-.41-1.6 0-2 .77-.69 1-.34 1.11.42.06.39.084.785.07 1.18a20.75 20.75 0 0 0 .28 3c.14.76 1 1.8 1.11 2.63a13.46 13.46 0 0 0-.76 6.67c.07 1.18.21 1.73-.84 2.29a2.24 2.24 0 0 1-1.31.42v.04zM92 75.47c1.81-2.08 2.22-5.62 2.22-8.26a6.37 6.37 0 0 0-1-4.1c-1-1.39-1.25-1.32.7-2.22a22.42 22.42 0 0 0 3.68-3.54 2.41 2.41 0 0 1 2.29 1.11c.48.9.07 1-.7 1.39-1.326.423-2.606.98-3.82 1.66-.83.56-1 .7-.69 1.46.35 1 1 1.25 1 2.43.14 2.57.28 5.76-.69 8.06-.56 1.25-1 2.43-1.39 3.26-1 2.29-3 .35-1.6-1.25zm-26.6 1.11c-2.22-2.36-1.32-7.15-1.32-10.07-.21-.76-.41-1.53-.62-2.29.07-.83.62-2.15.14-2.91H63a5.53 5.53 0 0 1-1.32.83c-1.46-.56-1.66-1.74-2.29-3.06 0-.9 2-1.8 3.26-2.15 1.05-.21 1.12-.07 1.67.7a12.83 12.83 0 0 0 3.13 3c.189.416.21.889.06 1.32a16.73 16.73 0 0 0-2.29 7 12.79 12.79 0 0 0 1.6 6c.35.56 1.11 1.18.56 1.67-.84.62-1.25.76-1.95-.07l-.03.03zm2-11a18.28 18.28 0 0 1 1.45-3.68 7.2 7.2 0 0 1 2.78 1c2.92.49 5.55.7 8.33-.55h1.39c2.78.665 5.67.713 8.47.14 1.18-.35 1.46-1 1.81.34 4.58 6.74-1.6 16.25-6.25 9.51-.21-1 .48-3.19-.7-3.33-.28 1.11-.41 1.74-.48 2.15-.21.84-1.18 2.57-2 .91a23.639 23.639 0 0 0-1.52-6.88c-.63.84.48 3.68.41 4.93-.07 1.81-2.36 3.68-3 1.39-.21-.9.14-2-.84-2.36a3 3 0 0 0-1 2.15c-1.53 7-11.66 2-9-5.76l.15.04zm16.94-3.61c-.5-.194-1.01-.357-1.53-.49-.84-.27-.56-.48-.14-.9a24.865 24.865 0 0 0 2.43-2.64 18.227 18.227 0 0 0 4.65-1.52c1.67-1.74 1.46-1.88 4.1-1.46.07.14.14.35.21.48-.14.56-.7.63-1 .91-2 1.52-4 1.59-5.9 3a1 1 0 0 1 .07.49c2.08.76 4.65-.91 6.32-1.88.21-.21 3.54-3.12 3-1.32-1 4-8.95 5.07-12.21 5.28v.05zm-11.53-.42a13.19 13.19 0 0 1-6.32-3.33 16.433 16.433 0 0 0-1.87-1.94v-.77c.34-.14 2.78-.41 3.89-.69a2.681 2.681 0 0 1 1.87 1.39c.69.55 1.46 1.11 2.15 1.73 2.5 1.11 4.72.7 7.29.14a22.003 22.003 0 0 1 4.52-1.66c.13 1.31-2.09 2.91-3.06 3.68a29.258 29.258 0 0 1-4.65 1.38c-1.25 0-2.57.07-3.82.07zm1.25-4.23a4.27 4.27 0 0 1-2.22-.9c-.42-.21-.14-.49 0-.77 1.3-.362 2.657-.478 4-.34 2.84 0 4.92-1.12 7.42-2.23.84-.41 1-.9 1.6-1.52.6-.62 1.18-.77 2.85-.28a.88.88 0 0 1 .07.83c-.84 1.11-1.11 1.53-1.46 1.74-.38.212-.774.396-1.18.55-3.75 1.6-6.94 2.78-11.11 2.92h.03zm12.57-1c-.63-1.32 1.39-3.13 3.12-3 .07.35.42.35.76.49-.27 1.46-2.49 2.91-3.88 2.5v.01zm-14-2.57a23.545 23.545 0 0 0 3.68-1.18l1.11-.9c1-.91 1.32-.91 2.78-1a6.49 6.49 0 0 1 2.5.28 1.06 1.06 0 0 1 0 1.11c-1.32.7-2.57 1.32-3.75 1.81a8.48 8.48 0 0 1-3.19.55c-.84 0-1.67.07-2.5.14-1 .14-1.81-.55-.63-.83v.02zm4.72-5.07c1.18-1.32 2.92-1.53 4.65-1.81 1.6-.76 1.74-1.24 2.78-2.56a19.391 19.391 0 0 1 2.71-3.34c.49-.41 2.15-1.39 1.8 0a4.29 4.29 0 0 1-1.59 2.16c-1.32.76-2.71 2.91-3.54 4.51-.28.55-.49 1.39-1.18 1.53-2.78.13-3.27.13-4.45.27-.9.07-1.25.28-1.18-.76zm-3.19.56c-.21-2.57 3.19-3.75 5.62-4.45 2.43-.7 2.5-1.25 4.1-3.26a51.93 51.93 0 0 1 5.14-5.35c2.15-1 1.11 1.32.2 1.74-3 1.18-4.3 5.41-6.38 6.8-2.36 1.53-6.39 2-7.78 4.17a1.141 1.141 0 0 1-.9.35zm-.83-2.43c-.28-.14-.35-.42-3.41-3.2A33.512 33.512 0 0 1 67.48 40c.07-.69.35-.62.91-.62 1.94 1.52 2.77 5.06 5.41 5.9.222.38.343.81.35 1.25-.21.14-.21.14-.76.21l-.06.07zm1.87-1.6a16.79 16.79 0 0 1-3.82-3.89 7.078 7.078 0 0 1-.07-1.18 5 5 0 0 0-3.54-1.67C67 39.71 66 39.5 66.3 37.84c.292-.087.573-.204.84-.35.07-1.18.34-2.15 1.73-1.66.42.69.91 1.31 1.39 2 .83.42 2.36 1 1.81 2.15.2.21.41.49.62.7 1.81.83 2 2.08 3.47 3.33 0 .9.14 1-.9 1.11l-.06.09zm1.6-1.88c-.84-.41-1.25-1.45-1.67-2.91-.35-.63-.62-1.32-1.25-1.46-1.11-.21-1.25-2.78-.35-3.68a3.379 3.379 0 0 0 3.27 1c.164.504.371.992.62 1.46a1.67 1.67 0 0 0 2.71.62 2.35 2.35 0 0 0 .56-2.56c.34.07.34.07 1 .48a2.9 2.9 0 0 0 2.57-1.32c.41-.07.55.07.76.42 0-3.06-2.08-4.93-4.58-6.18-.28-.14-.56-.35-.84-.49-.48-.34-.55-.27-.27-1.11 1.11-.07 2.77 1 3.81 1.74 1.46 1.11 2.43 1.8 2.64 3.47.077.61.194 1.215.35 1.81.07.48.28 2-.69 1.18a1.583 1.583 0 0 1-.35-.35c0 2.64-.49 3.47-2 4.72-1.18 1-1.25 2-1.73 2.64-.9 1.11-3.54 1-4.65.48l.09.04zm-.14-1.66c.37-.789.89-1.499 1.53-2.09.48-.48 1.38-.55 1.66-.13.42.69 1 1.25 1.39 2 .49 1-.55.69-.9.28a3.28 3.28 0 0 0-3.13.34c-.41.21-.69.14-.55-.41v.01zM78 41c0-.21.55-.62.48-.76.91-.07.77-.14 1.12 0 0 .14.41.62.41.76-.666.035-1.334.035-2 0H78zm7.47-2c-.14-.07-.21-.07-.28-.14a2.9 2.9 0 0 1 .81-2.34c.21 0 .35.07.56.07.07 1.32.07 1.6-1 2.43l-.09-.02zm-7.09-1.6c-.55-1.32 1-2.91-.13-4.44a3.14 3.14 0 0 0-3.13.28c-.07.76-.21.69.42.9a1.999 1.999 0 0 1 1.8-.35c.14.14.14.14.14 1-.14.07-.35.14-.48.21a.53.53 0 0 0-.07.28c-1.46.07-3.13-.14-3.2-1.88a4.87 4.87 0 0 1 2.85-2.63 5.17 5.17 0 0 0 1.87-1.18c.49-.7.63-.28 1.32.13 1.24.623 2.34 1.495 3.23 2.56.55.56.55.56-.28.56-1.32-.07-2.5-.28-3.19 1.32.112 1.083.155 2.172.13 3.26-.41.49-1 .7-1.32 0l.04-.02zm-7.15-.07c-1-1-1.25-1-.76-2.71.69-1.38 1-2.56 2.22-3.74 1.67-1.46 3.33-3.06 5.56-3.27.55.42.48.84-.21 1.11-2.5 1.39-4 2.16-5.28 4.72-.28 1-.55 3.55-.69 3.82a3.409 3.409 0 0 1-.84.07zm16.11-1.73a19.53 19.53 0 0 1-.49-2.78c.35-.21.56-.14 1-.14.34 1.11 1.11 2.71-.49 2.92h-.02zm-6.39-1c0-1.46 1.88-1.19 2.78-.63.07.56.21.69-.28.9-.21.07-.34.14-.55.21a1.73 1.73 0 0 1-2-.48h.05zM80.12 0a80.372 80.372 0 0 1 80.12 80.12 80.373 80.373 0 0 1-80.12 80.12A80.37 80.37 0 0 1 0 80.12 80.37 80.37 0 0 1 80.12 0zm0 1.53A78.7 78.7 0 0 0 1.53 80.12a78.7 78.7 0 0 0 78.59 78.59 78.696 78.696 0 0 0 55.539-23.051A78.696 78.696 0 0 0 158.71 80.12 78.697 78.697 0 0 0 80.12 1.53zM57.83 134.34l1.46.7-2.57 4.86-1.59-.83a4.3 4.3 0 0 0-2.13-5.49 2.904 2.904 0 0 0-1.87-.49 1.416 1.416 0 0 0-1.18.77c-.42.76.21 1.87 1.94 3.4.105.053.2.124.28.21a11.15 11.15 0 0 1 2.92 3.47 3.12 3.12 0 0 1-.28 2.78 4.001 4.001 0 0 1-2.81 2.15 5.61 5.61 0 0 1-4-.76 6.672 6.672 0 0 1-1.73-1.25 7.084 7.084 0 0 1-1.25-1.81l-.83.63-1.32-.7 2.36-4.51 1.52.83a4.11 4.11 0 0 0-.13 3 4.16 4.16 0 0 0 2.08 2.15 2.86 2.86 0 0 0 1.73.42 1.396 1.396 0 0 0 1.12-.7c.41-.76-.21-1.87-1.81-3.26-.28-.28-.56-.49-.76-.7a9.823 9.823 0 0 1-2.64-3.26 3.29 3.29 0 0 1 .28-2.78 3.997 3.997 0 0 1 2.91-2.22 6.33 6.33 0 0 1 4.17.84 8.124 8.124 0 0 1 1.87 1.38c.55.532 1.01 1.15 1.36 1.83l.9-.7v.04zm-22 .77.34.34-1.17 1.19-5.34-5.14 1.18-1.25.62.62a2 2 0 0 0 .7.56c.2.07.27.07.41-.07a.996.996 0 0 0 .21-.28c.117-.123.212-.265.28-.42l3.26-6.87-6.94 3.47a.526.526 0 0 0-.28.14c-.14.07-.21.21-.28.28-.07.07-.21.21-.14.35.07.14.21.34.49.69l.69.69-1.11 1.18-4.51-4.37 1.17-1.22.42.42c.212.24.51.388.83.41a2.908 2.908 0 0 0 1.25-.34l10.07-5 2.36 2.29L35.55 133a3.062 3.062 0 0 0-.28 1.18c.055.392.255.748.56 1v-.07zm-23.19-28.68 4.72-2.36.76 1.46a5 5 0 0 0-2.22 2.08c-.21.56 0 1.53.69 2.85l1.18 2.43 3.54-1.89-.27-.63c-.35-.69-.7-1-1-1.11a3.264 3.264 0 0 0-1.81.49l-.76-1.46 5.76-3 .76 1.53-.55.28c-.63.28-1 .62-1.11 1a2 2 0 0 0 .2 1.46l.35.62 4.1-2.08-1.15-2.1c-.7-1.39-1.39-2.15-2.09-2.36a6.19 6.19 0 0 0-3.26.69l-.76-1.53 5.07-2.57 6.11 12-1.46.76-.35-.69c-.28-.56-.49-.84-.69-.91-.2-.07-.56.07-1 .28l-6.94 3.54c-.48.28-.76.49-.83.7a2 2 0 0 0 .28 1l.34.69-1.45.76-6.11-12-.05.07zm-5-25.75 1.66-.14.07.62c.017.36.139.708.35 1a2.14 2.14 0 0 0 1 .07l6.32-.76a4.429 4.429 0 0 1 3.75 1 6.74 6.74 0 0 1 1.73 4 5.69 5.69 0 0 1-.76 4 4.29 4.29 0 0 1-3.26 1.8l-6.35.73a1.91 1.91 0 0 0-1 .35c-.14.14-.14.56-.07 1.11l.07.7-1.67.2-.9-7.49 1.67-.21.13.9c.07.63.14 1 .35 1.11a2 2 0 0 0 1 .07l6.18-.74a3.63 3.63 0 0 0 2.15-.84 2.88 2.88 0 0 0 .42-2 3.29 3.29 0 0 0-.9-2.15 2.81 2.81 0 0 0-2.15-.35l-6.43.76a1.62 1.62 0 0 0-1 .35c-.14.14-.14.49-.07 1l.07.91-1.67.2-.76-6.17.07-.03zm12-21.39a5.85 5.85 0 0 1 3.68 2.43 5.32 5.32 0 0 1 .49 4.28 7.32 7.32 0 0 1-3.26 4.79 6.852 6.852 0 0 1-5.55.62 7 7 0 0 1-4.52-3.12A6.55 6.55 0 0 1 9.72 63a5.75 5.75 0 0 1 .76-1.87 8.083 8.083 0 0 1 1.46-1.67l-1-.55.42-1.67 5.34 1.39-.41 1.73a4.57 4.57 0 0 0-3.13.35 3.1 3.1 0 0 0-1.6 2.15 3.151 3.151 0 0 0 .7 3 6.85 6.85 0 0 0 3.61 1.94 6.94 6.94 0 0 0 4.16 0 3.25 3.25 0 0 0 2.09-2.36 3.43 3.43 0 0 0-.42-2.64 5.17 5.17 0 0 0-2.47-1.8l.42-1.74-.01.03zm-.42-17.77 1.46.83-.42.77c-.27.48-.41.83-.34 1 .217.294.501.53.83.69l6.73 3.89c.49.28.84.42 1 .35.334-.194.6-.488.76-.84l.42-.69 1.45.83-3.81 6.53-1.46-.84.41-.69c.28-.49.42-.83.35-1-.07-.17-.28-.42-.76-.7l-6.74-3.88c-.48-.28-.83-.42-1-.35-.17.07-.42.35-.69.83l-.42.63-1.51-.88 3.75-6.52-.01.04zm10.56-12.85L31 29.85l-.63.63a1.76 1.76 0 0 0-.62 1c.105.34.324.633.62.83l6.43 6.29 1.52-1.6a3.82 3.82 0 0 0 1.39-2.5 5.93 5.93 0 0 0-1.8-2.85l1.18-1.25 4.09 4-8.88 9.2-1.25-1.11.55-.56a1.76 1.76 0 0 0 .63-1c0-.21-.21-.48-.63-.83L28 34.71a1.319 1.319 0 0 0-.9-.55c-.21 0-.49.21-.91.62l-.48.56-1.25-1.18 5.34-5.49h-.02zm18.54-13.12.77 1.45-.7.35a2.25 2.25 0 0 0-.83.69c-.07.21.07.56.35 1l3.74 6.81c.28.48.49.76.7.83.21.07.55-.07 1-.35l.69-.41.84 1.45-6.6 3.68-.83-1.45.69-.35c.49-.35.77-.56.84-.77.07-.21-.07-.48-.28-1l-3.82-6.8c-.28-.49-.49-.76-.69-.83-.2-.07-.56.07-1 .34l-.69.35-.76-1.46 6.59-3.61-.01.08zM62 24.37l-1.6.35-1.25-5.35 1.74-.37A4.64 4.64 0 0 0 63 21.38a4.37 4.37 0 0 0 3.13.35 3.66 3.66 0 0 0 1.73-.83 1.37 1.37 0 0 0 .42-1.39c-.21-.83-1.39-1.32-3.68-1.32h-.35a10 10 0 0 1-4.51-.69 3 3 0 0 1-1.6-2.23 4.06 4.06 0 0 1 .7-3.47 6 6 0 0 1 3.47-2 5.77 5.77 0 0 1 2.15-.21 7.66 7.66 0 0 1 2.08.56l.28-1 1.46-.35 1.11 4.93-1.67.41a3.71 3.71 0 0 0-1.87-2.29 4 4 0 0 0-3-.27 2.54 2.54 0 0 0-1.52.76 1.6 1.6 0 0 0-.42 1.32c.21.83 1.39 1.25 3.47 1.25h1a9.74 9.74 0 0 1 4.17.76 3 3 0 0 1 1.59 2.22 4.11 4.11 0 0 1-.69 3.61 6.67 6.67 0 0 1-3.75 2.16 9.538 9.538 0 0 1-2.36.13 6.098 6.098 0 0 1-2.15-.55L62 24.37zM64.92 4.3l-1.39 4-1.81.42-3-3.06 1-.21 2.57 1.19 1.73-2.16 1-.21-.1.03zm18.67 5.49h-.21a2.65 2.65 0 0 0-2.29.69 4.82 4.82 0 0 0-.9 2.85l-1.74-.14.35-5.41 13 1-.34 5.41-1.69-.19a5 5 0 0 0-.49-3 2.531 2.531 0 0 0-2.15-1h-.21l-.69 9.09c-.017.34.03.679.14 1a2.16 2.16 0 0 0 1.11.28l.9.07-.14 1.67-7.7-.56.14-1.66.9.07a1.7 1.7 0 0 0 1.11-.14 2.12 2.12 0 0 0 .31-1.01l.62-9-.03-.02zm30.76 6.6-2.15 4.86-1.53-.7c.434-.936.58-1.98.42-3-.21-.63-1-1.25-2.3-1.81l-2.5-1.11-1.59 3.68.69.28a2 2 0 0 0 1.46.2c.35-.13.69-.62 1.11-1.52l1.53.69-2.64 5.9-1.53-.62.28-.63a2.072 2.072 0 0 0 .21-1.52 1.705 1.705 0 0 0-1.11-.91l-.7-.34-1.87 4.23 2.22 1a4.22 4.22 0 0 0 3.13.49 6.09 6.09 0 0 0 2.08-2.56l1.59.69-2.36 5.21-12.28-5.5.69-1.53.69.28c.33.219.726.318 1.12.28a2.4 2.4 0 0 0 .62-.91l3.12-7.08c.21-.48.35-.83.21-1-.14-.17-.34-.42-.9-.63l-.69-.34.69-1.53 12.29 5.49v-.04zm21.38 17.14-1.11 1.25-.48-.41a1.378 1.378 0 0 0-.84-.56c-.21 0-.48.21-.9.63l-4.3 4.65a4.61 4.61 0 0 1-3.48 1.66 6.68 6.68 0 0 1-4-2 5.872 5.872 0 0 1-2-3.54 4.33 4.33 0 0 1 1.38-3.48l4.42-4.73c.271-.277.462-.623.55-1 0-.21-.21-.49-.62-.91l-.56-.41 1.21-1.21 5.49 5.13-1.11 1.25-.7-.62a1.8 1.8 0 0 0-1-.63c-.34.11-.632.333-.83.63l-4.24 4.58a3.146 3.146 0 0 0-1.11 2 2.266 2.266 0 0 0 1 1.73 3.15 3.15 0 0 0 2 1.11 2.88 2.88 0 0 0 1.94-1.11l4.3-4.65c.42-.42.63-.7.63-.9 0-.2-.21-.49-.63-.84l-.62-.62 1.18-1.18 4.44 4.16-.01.02zm-4.51 18.26-.63-1.45 4.93-2.34.77 1.6a4.644 4.644 0 0 0-1.95 2.57 4.58 4.58 0 0 0 .35 3.13 3.538 3.538 0 0 0 1.18 1.52 1.56 1.56 0 0 0 1.46.14c.76-.42 1-1.66.49-3.89a.739.739 0 0 1-.07-.34c-.42-2.16-.56-3.61-.28-4.52a3.124 3.124 0 0 1 1.87-2.08 4.246 4.246 0 0 1 3.54-.07 6.068 6.068 0 0 1 2.71 3c.305.66.517 1.36.63 2.08a5.687 5.687 0 0 1-.14 2.15h1.11l.62 1.39-4.58 2.15-.76-1.52a3.653 3.653 0 0 0 1.87-2.37 4.174 4.174 0 0 0-.35-3 2.62 2.62 0 0 0-1.11-1.32 1.282 1.282 0 0 0-1.32-.07c-.76.35-1 1.53-.55 3.61.12.32.191.658.21 1 .358 1.36.43 2.78.21 4.17a3.389 3.389 0 0 1-2 2.08 3.869 3.869 0 0 1-3.61 0 6 6 0 0 1-2.82-3.17 7.723 7.723 0 0 1-.69-2.22 6.384 6.384 0 0 1 .14-2.3l-1.25.07h.02zM148 67.28c.56-.07.9-.21 1-.35.1-.14.14-.56.07-1.11l-.07-.77 1.6-.2 1.11 7.84a6.686 6.686 0 0 1-.35 4.1 3.412 3.412 0 0 1-2.7 1.66 3.158 3.158 0 0 1-3-.9 7.328 7.328 0 0 1-1.46-3.82l-.34-2.5-3.06.42a2 2 0 0 0-1 .35 1.74 1.74 0 0 0-.07 1.11l.14.9-1.67.28-1-7.57 1.67-.21.07.77c.009.373.155.729.41 1a2 2 0 0 0 1 .07l7.65-1.07zM145.52 71l.14 1.11c.089.84.373 1.649.83 2.36a1.944 1.944 0 0 0 1.81.48 1.71 1.71 0 0 0 1.46-.9 4.466 4.466 0 0 0 .14-2.43l-.21-1.25-4.17.63zm4.86 25.27-1.59-.27.2-.9c.14-.56.14-1 0-1.11-.14-.11-.41-.35-1-.42l-8.82-2.08-.48 2.15c-.28 1.32-.28 2.29.14 2.85a6.339 6.339 0 0 0 3 1.52l-.34 1.67-5.56-1.32 2.85-12.5 1.66.35-.2.76c-.14.56-.14 1 0 1.12.14.12.41.34 1 .48l7.57 1.74c.55.14.9.14 1 0 .1-.14.34-.42.48-1l.14-.76 1.67.35-1.74 7.43.02-.06zm-8.12 20.55-1.53-.77.42-.76c.21-.49.35-.83.28-1-.07-.17-.35-.42-.84-.7l-6.94-3.47c-.49-.27-.83-.41-1-.34-.17.07-.42.34-.7.9l-.34.69-1.46-.76 3.4-6.67 1.46.77-.35.69a1.432 1.432 0 0 0-.28 1c.067.207.347.417.84.63l6.94 3.54c.286.216.643.316 1 .28.14 0 .42-.35.63-.84l.41-.69 1.46.76-3.4 6.74zm-9.65 10.27.14-.14a2.595 2.595 0 0 0 .83-2.22 4.313 4.313 0 0 0-1.6-2.5l1.18-1.32 4 3.75-9 9.58-4-3.74 1.18-1.25a5.05 5.05 0 0 0 2.64 1.45 2.631 2.631 0 0 0 2.15-1l.14-.14-6.67-6.18a1.682 1.682 0 0 0-.9-.55c-.21 0-.49.21-.9.62l-.63.7L120 123l5.28-5.7 1.25 1.11-.63.7a2.002 2.002 0 0 0-.62.9c.084.368.306.69.62.9l6.67 6.18h.04zM107 147.47l-.76-1.46.55-.35a1.44 1.44 0 0 0 .76-.62 1.881 1.881 0 0 0-.27-1l-3-5.62a4.237 4.237 0 0 1-.41-3.82 6.27 6.27 0 0 1 3.13-3.1 6 6 0 0 1 4-.77 4.393 4.393 0 0 1 2.84 2.43l3.06 5.7c.28.48.48.76.69.83.21.07.49-.07 1-.35l.56-.27.83 1.45-6.66 3.54-.77-1.45.77-.49c.55-.28.83-.49.9-.69.07-.2-.07-.49-.35-1L111 134.9a3.367 3.367 0 0 0-1.53-1.67 2.325 2.325 0 0 0-1.95.35 3.225 3.225 0 0 0-1.73 1.53c-.091.367-.1.75-.027 1.121.072.372.225.723.447 1.029l3 5.69c.28.49.49.77.7.84.21.07.48-.07 1-.28l.76-.42.76 1.46-5.43 2.92zM5.55 58.74l3.06 3-.49 1.86L4 64.92l.27-1 2.16-1.73-1.08-2.55.2-.9z"/>
</svg>