<svg width="424" height="48"
  xmlns="http://www.w3.org/2000/svg">
  <g fill="#ffffff" fill-rule="evenodd">
    <path d="M172.624 28.731c3.675-2.058 5.653-2.57 13.03-2.823h6.022V17.69h-6.021a26.805 26.805 0 0 0-13.031 2.372V9.87h24.733V1.54h-32.789v42.353h34.146v-8.47h-26.09V28.73zM69.763 18.199 58.71 1.541H48.337l17.384 25.298v16.998h8.197V26.839L91.161 1.541H81.126zM0 10.039h15.066v33.798h8.339V10.039H38.98V1.54H0zM131.807 20.233h-3.674a26.89 26.89 0 0 0-13.06 2.372V10.04h16.734c3.336 0 6.502.847 6.502 4.913 0 4.602-2.488 5.28-6.502 5.28m1.498-18.692h-26.429v42.353h8.197V31.076c3.505-1.864 5.343-2.372 13.06-2.372h3.674c9.356 0 15.038-5.28 15.038-13.61.466-7.019-4.85-13.084-11.872-13.553a12.643 12.643 0 0 0-1.668 0M353.333 16.957c-8.027 0-9.017-1.722-9.017-4.263s4.325-4.574 8.48-4.574a18.608 18.608 0 0 1 12.381 3.727l5.653-6.466A30.403 30.403 0 0 0 352.57.016c-9.187 0-17.214 5.082-17.214 12.734 0 9.177 7.18 12.565 17.214 12.565 8.706 0 12.89.678 12.89 4.602 0 4.405-5.343 6.777-12.89 6.777-7.547 0-10.345-4.236-12.861-6.946l-6.021 6.099a25.449 25.449 0 0 0 18.882 9.007c11.872 0 21.087-4.744 21.087-14.937 0-6.804-2.685-12.96-20.324-12.96M251.375 31.075a16.793 16.793 0 0 0-8.675-4.602l-4.187 7.425c1.807.277 3.52.972 5.006 2.033h.167a14.15 14.15 0 0 1-5.34.847c-8.027 0-16.058-4.235-16.058-13.92 0-9.684 7.858-13.92 15.886-13.92 8.028 0 16.395 4.066 16.395 13.582a12.374 12.374 0 0 1-3.194 8.555M238.347.185c-12.554 0-24.595 8.302-24.595 22.42 0 14.117 11.875 22.588 24.422 22.588a28.296 28.296 0 0 0 13.54-3.558 13.072 13.072 0 0 0 6.871 2.823l4.294-7.256a10.063 10.063 0 0 1-4.353-1.355 22.21 22.21 0 0 0 4.353-13.581c0-14.598-12.152-22.08-24.532-22.08M385.02 1.541v8.499h15.066v33.794h8.198V10.04H424V1.541zM305.28 29.749a34.975 34.975 0 0 0-16.734 3.724l9.837-19.338 8.028 15.642-1.131-.028zM291.147.695l2.826 5.28-19.786 38.033h8.48l.17-.509c1.328-1.863 12.04-5.957 22.245-5.957h5.003l3.364 6.293h9.017L300.051.695h-8.904z"/>
  </g>
</svg>