<svg xmlns="http://www.w3.org/2000/svg" viewBox="0 0 148 84" xml:space="preserve">
  <path d="M80.8 72.6c-3.1 0-5.7-2.5-5.7-5.7 0-3.1 2.5-5.7 5.7-5.7 3.1 0 5.7 2.5 5.7 5.7s-2.5 5.7-5.7 5.7m0-14.9c-5.1 0-9.3 4.2-9.3 9.3 0 5.1 4.2 9.3 9.3 9.3 5.1 0 9.3-4.2 9.3-9.3 0-5.2-4.1-9.3-9.3-9.3M45.1 0c-9 0-16.2 7.3-16.2 16.2v15c0 6.9-5.6 12.6-12.6 12.6-6.9 0-12.6-5.6-12.6-12.6v-7.5c0-1-.8-1.8-1.8-1.8s-1.8.8-1.8 1.8v7.5c0 9 7.3 16.2 16.2 16.2 9 0 16.2-7.3 16.2-16.2v-15c0-6.9 5.6-12.6 12.6-12.6s12.6 5.6 12.6 12.6v7.5c0 1 .8 1.8 1.8 1.8s1.8-.8 1.8-1.8v-7.5C61.3 7.3 54 0 45.1 0m7.5 25.6c1 0 1.8-.8 1.8-1.8v-7.5c0-5.1-4.2-9.3-9.3-9.3-5.1 0-9.3 4.2-9.3 9.3v7.5c0 1 .8 1.8 1.8 1.8s1.8-.8 1.8-1.8v-7.5c0-3.1 2.5-5.7 5.6-5.7 3.1 0 5.7 2.5 5.7 5.7v7.5c0 .9.8 1.8 1.9 1.8M16.2 40.5c5.1 0 9.3-4.2 9.3-9.3v-7.5c0-1-.8-1.8-1.8-1.8s-1.8.8-1.8 1.8v7.5c0 3.1-2.5 5.7-5.7 5.7-3.1 0-5.7-2.5-5.7-5.7v-7.5c0-1-.8-1.8-1.8-1.8s-1.8.8-1.8 1.8v7.5c0 5.1 4.2 9.3 9.3 9.3m64.6-3.6c-3.1 0-5.7-2.5-5.7-5.7 0-3.1 2.5-5.7 5.7-5.7 3.1 0 5.7 2.5 5.7 5.7 0 3.1-2.5 5.7-5.7 5.7m0 10.5c9 0 16.2-7.3 16.2-16.2v-22c0-1-.8-1.8-1.8-1.8s-1.8.8-1.8 1.8v22c0 6.9-5.6 12.6-12.6 12.6-6.9 0-12.6-5.6-12.6-12.6 0-6.9 5.6-12.6 12.6-12.6 2 0 3.9.5 5.6 1.3v3.9c-1.6-1.2-3.5-1.9-5.7-1.9-5.1 0-9.3 4.2-9.3 9.3 0 5.1 4.2 9.3 9.3 9.3 5.1 0 9.3-4.2 9.3-9.3v-22c0-1-.8-1.8-1.8-1.8s-1.8.8-1.8 1.8V16c-1.8-.7-3.7-1-5.6-1-9 0-16.2 7.3-16.2 16.2s7.3 16.2 16.2 16.2m64.6-4.2c-1 0-1.8.8-1.8 1.8 0 6.9-5.6 12.6-12.6 12.6h-16.8v23.7c0 1 .8 1.8 1.8 1.8s1.8-.8 1.8-1.8v-20H131c9 0 16.2-7.3 16.2-16.2.1-1-.8-1.9-1.8-1.9m-28.8-6.3c-3.1 0-5.7-2.5-5.7-5.7 0-3.1 2.5-5.7 5.7-5.7s5.7 2.5 5.7 5.7c0 3.1-2.6 5.7-5.7 5.7m0 10.5c2 0 4-.4 5.8-1.1.3.6.9 1.1 1.7 1.1 1 0 1.8-.8 1.8-1.8V31.2c0-5.1-4.2-9.3-9.3-9.3-5.1 0-9.3 4.2-9.3 9.3 0 5.1 4.2 9.3 9.3 9.3 2.1 0 4.1-.7 5.7-1.9v3.9c-1.7.9-3.7 1.3-5.7 1.3-6.9 0-12.6-5.6-12.6-12.6 0-6.9 5.6-12.6 12.6-12.6 6.9 0 12.6 5.6 12.6 12.6v14.4c0 1 .8 1.8 1.8 1.8s1.8-.8 1.8-1.8V31.2c0-9-7.3-16.2-16.2-16.2-9 0-16.2 7.3-16.2 16.2s7.2 16.2 16.2 16.2M80.8 79.6c-6.9 0-12.6-5.6-12.6-12.6 0-6.9 5.6-12.6 12.6-12.6 6.9 0 12.6 5.6 12.6 12.6 0 6.9-5.6 12.6-12.6 12.6m10.3-25.2H131c5.1 0 9.3-4.2 9.3-9.3 0-1-.8-1.8-1.8-1.8s-1.8.8-1.8 1.8c0 3.1-2.5 5.7-5.7 5.7H80.8c-9 0-16.2 7.3-16.2 16.2s7.3 16.2 16.2 16.2c9 0 16.2-7.3 16.2-16.2 0-2-.4-3.9-1-5.7h11.2v20.1c0 1 .8 1.8 1.8 1.8s1.8-.8 1.8-1.8V57.7H94.1c-.8-1.3-1.8-2.4-3-3.3m-46 6.9c3.1 0 5.7 2.5 5.7 5.7 0 3.1-2.5 5.7-5.7 5.7-3.1 0-5.6-2.5-5.6-5.7-.1-3.1 2.5-5.7 5.6-5.7m0-10.6c-1.9 0-3.9.4-5.6 1V45c0-1-.8-1.8-1.8-1.8s-1.8.8-1.8 1.8v22c0 5.1 4.2 9.3 9.3 9.3 5.1 0 9.3-4.2 9.3-9.3 0-5.1-4.2-9.3-9.3-9.3-2.1 0-4.1.7-5.6 1.9v-3.9c1.7-.9 3.7-1.3 5.6-1.3C52 54.4 57.7 60 57.7 67c0 6.9-5.6 12.6-12.6 12.6S32.5 73.9 32.5 67V45c0-1-.8-1.8-1.8-1.8s-1.8.8-1.8 1.8v22c0 9 7.3 16.2 16.2 16.2 9 0 16.2-7.3 16.2-16.2S54 50.7 45.1 50.7" fill-rule="evenodd" clip-rule="evenodd" fill="#fff"/>
</svg>